{"glyphs":{"0":{"ha":433,"x_min":0,"x_max":382,"o":"m 262 534 q 261 538 262 536 q 259 556 260 547 q 241 606 254 583 q 113 677 203 677 l 113 279 q 115 262 114 271 q 133 212 121 235 q 262 141 171 141 l 262 534 m 247 833 q 315 774 314 774 q 359 718 343 744 q 382 640 382 678 q 382 167 382 168 l 150 -7 q 147 -7 149 -7 q 122 3 141 -7 q 71 42 96 19 q 0 173 0 108 l 0 647 l 247 833 z "},"1":{"ha":407,"x_min":0,"x_max":356,"o":"m 252 118 q 240 168 240 135 l 240 690 q 236 737 239 717 q 190 806 229 791 q 146 814 168 814 q 92 799 118 814 q 66 780 79 791 q 49 760 58 771 q 42 751 45 756 q 37 745 40 748 q 33 738 33 738 q 64 744 50 744 q 109 713 96 744 q 117 680 115 699 l 117 112 q 119 93 117 103 q 0 -14 40 60 q 111 8 55 8 q 146 6 128 8 q 245 -26 199 -1 l 356 56 l 338 62 l 321 70 q 288 87 301 78 q 258 110 267 101 l 252 118 z "},"2":{"ha":439,"x_min":0,"x_max":388,"o":"m 388 557 q 258 357 388 471 q 127 260 193 300 l 127 140 q 248 211 216 140 q 262 260 259 233 q 264 278 264 269 l 264 286 l 380 201 q 309 40 380 124 q 304 35 308 39 l 302 32 l 298 28 q 280 7 288 16 q 251 -18 258 -18 q 250 -17 250 -18 l 249 -17 l 248 -16 q 243 -13 245 -14 q 225 -1 235 -7 q 163 25 195 16 q 104 35 132 35 q 0 -8 44 35 q 12 151 12 69 q 0 321 12 233 l 208 473 q 238 503 222 484 q 256 557 256 526 q 247 605 256 578 q 118 675 209 675 l 118 494 l 5 411 l 5 645 l 252 832 q 320 772 319 772 q 365 715 349 743 q 388 638 388 677 l 388 557 z "},"3":{"ha":433,"x_min":0,"x_max":382,"o":"m 329 412 q 322 419 329 412 q 305 435 315 427 q 298 441 300 439 q 294 445 294 444 l 382 511 q 382 491 382 511 l 382 638 q 359 715 382 677 q 315 772 343 743 q 246 832 314 772 l 0 645 l 0 416 l 113 500 l 113 642 q 241 571 204 642 q 259 513 254 548 q 261 492 260 503 q 262 486 262 489 l 262 496 l 155 415 l 155 351 q 248 267 223 319 q 260 230 257 249 q 262 210 261 216 l 262 136 q 133 207 171 136 q 115 263 121 236 q 113 281 114 272 l 113 339 l 0 255 l 0 168 q 71 37 0 102 q 122 -2 96 14 q 147 -13 141 -13 q 150 -12 149 -13 l 382 161 q 382 195 382 162 q 382 293 382 228 q 359 370 382 332 q 329 412 343 397 z "},"4":{"ha":591,"x_min":0,"x_max":541,"o":"m 440 130 q 541 60 440 87 l 446 -22 q 347 11 399 4 q 311 13 328 13 q 200 -9 255 13 q 317 98 240 64 l 317 209 l 130 209 q 70 282 70 279 l 70 658 q 35 725 70 715 q 18 728 26 728 q 0 724 9 728 l 0 733 q 43 804 0 775 q 89 818 64 818 q 118 814 102 818 q 151 795 135 809 q 159 786 155 791 q 186 727 178 763 q 193 661 193 699 l 193 342 l 317 342 l 317 735 l 440 826 l 440 325 q 499 177 499 288 q 446 210 472 210 q 440 209 443 210 l 440 130 z "},"5":{"ha":453,"x_min":0,"x_max":402,"o":"m 132 491 q 208 507 168 507 q 225 506 216 507 q 312 478 272 502 q 401 323 401 425 l 401 162 l 170 -12 q 167 -12 169 -12 q 142 -1 161 -12 q 91 37 116 14 q 20 168 20 103 l 20 195 l 132 278 l 132 273 q 134 265 133 269 q 137 245 135 255 q 157 198 144 219 q 279 136 195 136 l 279 261 q 249 341 279 304 q 215 367 233 360 q 195 370 205 370 q 126 340 163 370 q 75 298 117 332 l 20 368 l 20 641 q 0 819 20 764 q 109 777 45 777 q 173 786 138 777 q 266 827 227 800 q 334 768 334 768 q 379 711 363 738 q 402 634 402 672 l 402 609 l 281 525 l 281 528 q 281 532 281 530 q 278 550 280 541 q 261 600 273 577 q 132 671 223 671 l 132 491 z "},"6":{"ha":433,"x_min":0,"x_max":382,"o":"m 155 348 q 144 345 151 347 q 130 342 137 343 q 113 333 113 336 l 113 278 q 115 260 113 269 q 132 211 120 233 q 260 140 170 140 l 260 233 q 247 288 260 253 q 199 343 231 331 q 170 349 185 349 q 157 348 163 349 l 155 348 m 262 531 l 262 534 q 261 538 262 536 q 259 556 260 547 q 241 606 254 583 q 113 677 203 677 l 113 458 q 239 488 184 488 q 292 479 268 488 q 382 291 382 446 l 382 165 l 150 -8 q 147 -9 149 -9 q 122 2 141 -9 q 71 41 96 18 q 0 172 0 106 l 0 647 l 246 833 q 315 774 314 774 q 359 718 343 744 q 382 640 382 678 l 382 615 l 262 531 z "},"7":{"ha":598,"x_min":22,"x_max":547,"o":"m 452 791 q 508 807 469 795 q 547 819 545 818 q 526 761 547 797 q 510 734 519 748 q 503 724 507 729 q 497 718 500 720 q 412 590 462 671 q 355 492 374 527 q 313 388 326 436 q 294 273 300 341 l 294 218 q 304 190 294 201 q 406 104 350 135 q 341 46 406 104 q 272 -9 279 -9 l 271 -9 q 215 27 238 9 q 170 76 185 51 q 162 125 162 88 l 162 263 q 220 441 162 346 q 269 513 241 477 q 312 565 290 541 q 368 633 319 573 q 414 692 415 693 q 256 650 340 650 l 241 650 q 165 664 195 652 q 213 605 178 619 l 85 510 q 56 533 68 522 q 22 597 22 564 q 35 639 22 617 q 113 721 60 677 q 205 797 113 722 q 225 791 206 797 q 244 785 235 787 q 271 779 257 781 q 328 774 298 774 q 452 791 385 774 z "},"8":{"ha":433,"x_min":0,"x_max":382,"o":"m 262 578 l 261 578 q 113 683 261 683 q 125 580 113 595 q 235 507 138 565 l 262 527 l 262 578 m 262 165 q 242 295 262 263 q 154 359 223 327 l 113 328 l 113 269 q 115 251 114 260 q 133 201 121 224 q 262 130 171 130 l 262 165 m 301 469 l 315 457 q 359 401 343 428 q 382 323 382 362 q 382 156 382 157 l 150 -18 q 147 -18 149 -18 q 122 -7 141 -18 q 71 31 96 8 q 0 162 0 97 l 0 329 l 92 399 l 91 400 q 30 464 54 430 q 0 547 0 507 l 0 652 l 246 840 q 315 779 314 780 q 359 723 343 750 q 382 646 382 684 l 382 569 l 382 542 l 294 475 l 298 472 l 301 469 z "},"9":{"ha":433,"x_min":0,"x_max":382,"o":"m 227 477 q 238 479 231 478 q 252 483 245 481 q 270 492 270 488 l 270 547 q 267 564 269 555 q 250 614 262 591 q 123 685 213 685 l 123 592 q 136 537 123 572 q 183 481 152 494 q 213 476 197 476 q 225 477 219 476 l 227 477 m 121 294 l 121 291 q 121 286 121 289 q 123 269 122 277 q 141 218 129 241 q 270 148 179 148 l 270 367 q 144 336 198 336 q 90 345 115 336 q 1 534 1 378 l 1 659 l 233 833 q 235 833 233 833 q 260 823 241 833 q 311 784 286 807 q 382 653 382 718 l 382 178 l 136 -9 q 68 51 68 50 q 23 107 39 81 q 0 184 0 146 l 0 210 l 121 294 z "},"\u0000":{"ha":0,"x_min":0,"x_max":0,"o":""}," ":{"ha":142,"x_min":0,"x_max":0,"o":""},"!":{"ha":186,"x_min":0,"x_max":169,"o":"m 100 157 q 169 75 115 123 l 68 0 q 32 29 50 9 q 0 83 12 53 l 100 157 m 159 827 l 129 288 q 115 257 129 269 q 84 243 102 244 q 53 257 66 244 q 39 285 39 269 l 39 288 l 7 827 l 159 827 z "},"\"":{"ha":267,"x_min":0,"x_max":250,"o":"m 108 826 l 87 579 q 77 557 87 566 q 55 547 68 548 q 33 557 42 548 q 23 578 23 565 l 23 579 l 0 826 l 108 826 m 250 826 l 229 579 q 220 557 229 566 q 197 547 210 548 q 175 557 184 548 q 165 578 165 565 l 165 579 l 142 826 l 250 826 z "},"#":{"ha":465,"x_min":0,"x_max":448,"o":"m 230 772 l 305 772 l 355 909 l 419 909 l 369 772 l 448 772 l 425 709 l 345 709 l 312 616 l 391 616 l 367 553 l 288 553 l 245 435 l 182 435 l 224 553 l 149 553 l 106 435 l 43 435 l 85 553 l 0 553 l 23 616 l 109 616 l 142 709 l 57 709 l 81 772 l 166 772 l 216 909 l 280 909 l 230 772 m 281 709 l 206 709 l 173 616 l 248 616 l 281 709 z "},"$":{"ha":355,"x_min":0,"x_max":334,"o":"m 130 994 l 130 1075 l 205 1075 l 205 1022 q 270 997 237 1017 q 334 929 317 968 l 237 866 q 216 891 237 869 q 175 924 194 915 q 132 936 159 934 l 129 936 q 118 934 122 936 l 117 932 q 102 907 102 923 l 102 905 q 106 892 103 899 q 111 882 108 888 q 221 814 127 861 q 322 722 314 768 q 328 673 328 695 q 326 655 328 664 q 296 595 321 618 q 205 536 292 593 l 205 464 l 130 464 l 130 513 q 76 532 105 516 q 5 616 10 566 l 99 677 q 115 648 104 663 q 189 600 146 609 q 203 597 196 597 q 230 612 221 597 q 233 621 232 614 l 234 625 l 234 629 q 235 635 235 632 q 233 646 235 641 q 146 731 221 699 q 52 777 72 764 q 0 857 0 811 l 0 863 q 37 932 3 905 l 43 938 l 130 994 z "},"%":{"ha":403,"x_min":0,"x_max":386,"o":"m 364 894 l 56 137 l 18 153 l 327 909 l 364 894 m 338 393 q 337 401 338 397 q 330 420 334 412 q 279 448 315 448 l 279 271 q 280 264 279 268 q 287 245 282 254 q 338 216 302 216 l 338 393 m 332 511 q 359 487 359 488 q 377 465 370 475 q 386 434 386 449 q 385 227 386 227 l 294 157 l 292 157 q 282 161 290 157 q 262 177 272 168 q 234 229 234 203 l 234 437 l 332 511 m 104 774 q 104 777 104 775 q 103 784 104 781 q 96 804 101 795 q 45 831 81 831 l 45 654 q 46 647 45 650 q 53 627 48 637 q 104 600 68 600 l 104 774 m 98 894 q 125 870 125 871 q 143 848 136 859 q 152 817 152 832 l 152 610 l 60 541 l 59 541 q 48 545 56 541 q 28 560 39 551 q 0 612 0 587 l 0 820 l 98 894 z "},"&":{"ha":434,"x_min":0,"x_max":417,"o":"m 254 347 l 152 347 l 113 317 l 113 250 q 254 135 113 135 l 254 347 m 417 347 l 359 347 l 359 163 l 127 -13 q 64 44 64 43 q 22 97 37 71 q 0 170 0 133 q 1 303 0 303 l 83 365 q 79 369 82 366 q 73 374 77 371 l 64 382 q 22 435 37 410 q 0 507 0 472 l 0 675 l 218 838 q 220 839 218 839 q 244 829 227 839 q 292 792 268 814 q 359 669 359 730 l 359 630 l 254 551 l 254 566 q 253 572 253 569 q 250 589 252 581 q 233 635 245 614 q 113 699 197 699 l 113 581 q 115 568 114 574 q 125 534 117 550 q 208 455 148 486 l 254 455 l 254 494 l 359 572 l 359 455 l 417 455 l 417 347 z "},"'":{"ha":125,"x_min":0,"x_max":108,"o":"m 108 826 l 87 579 q 77 557 87 566 q 55 547 68 548 q 33 557 42 548 q 23 578 23 565 l 23 579 l 0 826 l 108 826 z "},"(":{"ha":315,"x_min":0,"x_max":283,"o":"m 283 1033 l 281 1029 l 279 1026 l 279 1025 l 277 1023 q 273 1017 275 1020 q 261 996 267 1007 q 224 924 242 962 q 144 672 170 805 q 122 448 122 559 q 283 -149 122 146 l 174 -208 q 7 311 37 43 q 0 450 0 380 q 27 711 0 581 q 119 989 58 858 q 159 1065 138 1030 q 171 1087 165 1077 q 175 1093 173 1090 l 176 1095 l 177 1095 l 283 1033 z "},")":{"ha":315,"x_min":0,"x_max":283,"o":"m 106 1095 l 107 1095 l 109 1093 q 113 1087 111 1090 q 125 1065 119 1077 q 165 989 146 1030 q 256 711 226 858 q 283 450 283 581 q 276 311 283 380 q 110 -208 247 43 l 1 -149 q 161 448 161 146 q 140 672 161 559 q 59 924 113 805 q 22 996 41 962 q 10 1017 16 1007 q 6 1023 8 1020 l 5 1025 l 4 1026 l 2 1029 l 0 1033 l 106 1095 z "},"*":{"ha":325,"x_min":0,"x_max":303,"o":"m 217 973 q 249 921 232 937 q 262 913 256 915 q 270 911 266 911 l 273 911 q 281 916 278 913 q 271 888 279 901 q 255 868 264 876 q 230 860 243 860 q 164 913 188 860 q 149 958 156 931 q 120 915 129 929 q 115 897 115 906 q 117 885 115 891 q 132 876 121 876 q 149 880 139 876 q 104 831 134 831 q 77 840 92 831 q 51 882 51 855 q 77 948 51 909 l 102 985 q 35 1028 62 1021 q 23 1029 28 1029 l 20 1029 q 10 1025 14 1028 q 4 1017 5 1021 q 0 1043 0 1029 l 0 1047 q 5 1072 1 1061 q 24 1091 11 1084 q 50 1098 37 1098 q 106 1074 77 1098 q 140 1042 122 1062 q 146 1094 144 1077 l 146 1097 q 135 1122 146 1112 q 126 1125 131 1125 q 104 1111 117 1125 q 101 1135 101 1124 q 145 1181 101 1181 l 150 1181 q 201 1107 201 1178 q 200 1084 201 1097 l 195 1040 q 240 1075 227 1058 q 247 1089 245 1082 q 248 1095 248 1092 q 247 1100 248 1097 q 242 1108 245 1105 q 271 1101 256 1107 q 292 1086 284 1095 q 303 1062 302 1076 l 303 1056 q 256 991 303 1019 q 217 973 240 983 z "},"+":{"ha":348,"x_min":0,"x_max":331,"o":"m 123 331 l 0 331 l 41 417 l 123 417 l 123 539 l 208 539 l 208 417 l 331 417 l 290 331 l 208 331 l 208 208 l 123 208 l 123 331 z "},",":{"ha":206,"x_min":20,"x_max":189,"o":"m 64 16 l 64 19 q 20 83 64 52 l 121 157 q 189 75 172 120 q 49 -62 152 5 l 20 -39 q 64 16 62 -18 z "},"-":{"ha":348,"x_min":0,"x_max":331,"o":"m 331 417 l 290 331 l 0 331 l 41 417 l 331 417 z "},".":{"ha":206,"x_min":20,"x_max":189,"o":"m 121 157 q 189 75 136 123 l 88 0 q 52 29 70 9 q 20 83 32 53 l 121 157 z "},"/":{"ha":627,"x_min":0,"x_max":610,"o":"m 610 1051 l 104 -205 l 0 -161 l 505 1094 l 610 1051 z "},":":{"ha":186,"x_min":0,"x_max":169,"o":"m 100 157 q 169 75 115 123 l 68 0 q 32 29 50 9 q 0 83 12 53 l 100 157 m 100 587 q 169 505 115 553 l 68 430 q 32 459 50 439 q 0 513 12 483 l 100 587 z "},";":{"ha":186,"x_min":0,"x_max":169,"o":"m 100 587 q 169 505 115 553 l 68 430 q 32 459 50 439 q 0 513 12 483 l 100 587 m 44 16 l 44 19 q 0 83 44 52 l 100 157 q 169 75 152 120 q 28 -62 132 5 l 0 -39 q 44 16 42 -18 z "},"<":{"ha":361,"x_min":0,"x_max":344,"o":"m 344 199 l 0 342 l 0 414 l 344 558 l 344 464 l 132 378 l 344 294 l 344 199 z "},"=":{"ha":348,"x_min":0,"x_max":331,"o":"m 331 349 l 290 263 l 0 263 l 41 349 l 331 349 m 331 517 l 290 431 l 0 431 l 41 517 l 331 517 z "},">":{"ha":361,"x_min":0,"x_max":344,"o":"m 0 294 l 212 378 l 0 464 l 0 558 l 344 414 l 344 342 l 0 199 l 0 294 z "},"?":{"ha":414,"x_min":0,"x_max":379,"o":"m 199 157 q 267 75 214 123 l 165 0 q 130 29 148 9 q 98 83 110 53 l 199 157 m 288 492 l 274 476 l 260 460 q 234 429 245 443 q 198 361 207 392 q 192 319 192 340 q 218 222 192 273 q 117 302 142 241 q 100 379 100 342 q 104 416 100 397 q 176 536 117 468 q 193 554 182 543 l 201 564 l 210 573 q 244 613 231 597 q 290 698 281 661 q 292 718 292 709 q 254 768 292 758 q 225 771 241 771 q 214 770 220 771 q 179 764 197 769 q 113 719 132 750 q 92 640 92 686 l 92 635 q 96 591 92 617 l 99 570 q 102 549 100 557 l 87 558 q 73 568 80 563 q 57 579 64 574 q 26 602 37 593 q 12 617 12 614 q 8 640 10 626 l 6 652 l 4 665 q 0 715 0 695 q 39 808 1 775 q 106 838 66 829 q 142 841 125 841 q 188 834 165 841 q 252 801 219 824 q 340 733 305 764 q 379 653 379 697 q 371 610 379 633 q 336 549 360 582 q 288 492 319 526 z "},"@":{"ha":823,"x_min":0,"x_max":806,"o":"m 454 351 l 454 359 l 455 650 q 415 702 455 679 q 350 599 350 654 l 350 355 q 389 303 350 326 l 454 351 m 410 991 q 655 892 513 991 q 806 682 806 784 q 806 472 806 588 l 806 472 l 806 382 l 564 209 q 465 303 487 239 l 462 302 l 335 209 q 228 328 242 245 l 227 328 q 224 359 224 341 l 224 359 l 224 433 q 224 477 224 451 l 224 591 q 316 733 224 656 q 408 797 362 772 q 522 742 462 797 q 579 649 579 690 l 579 355 q 618 303 579 326 l 682 351 l 682 682 q 640 789 682 747 q 517 874 593 836 q 410 911 446 911 l 396 911 q 290 874 361 911 q 167 789 213 836 q 125 682 125 748 l 125 277 q 167 169 125 211 q 336 58 242 94 l 298 30 l 257 0 q 83 119 157 45 q 0 277 0 202 q 1 418 0 321 q 0 682 0 547 q 44 792 0 734 q 151 892 84 844 q 397 991 293 991 l 410 991 z "},"A":{"ha":1025,"x_min":-34,"x_max":1004,"o":"m 543 334 q 584 366 572 340 q 589 383 588 374 q 590 389 590 386 l 590 392 l 588 399 q 502 665 570 524 l 374 372 q 452 349 391 368 q 532 334 503 334 q 543 334 538 334 m 838 -8 q 1004 -138 911 -113 q 910 -176 1001 -138 q 861 -186 885 -186 q 730 -109 794 -186 q 607 266 673 -21 q 526 240 570 240 q 456 254 493 240 q 371 273 406 273 q 327 263 345 273 l 229 58 q 322 14 275 45 l 212 -68 q 113 -36 165 -43 q 77 -34 95 -34 q -34 -56 22 -34 q 9 -1 -19 -29 q 64 40 35 24 q 138 65 100 60 l 440 738 q 357 762 403 762 q 311 757 335 762 q 188 701 257 744 l 189 703 q 195 710 191 706 q 220 736 205 722 q 309 808 263 777 q 426 862 372 850 q 465 867 446 867 q 543 842 509 867 q 644 692 606 797 q 723 358 656 655 q 838 -8 789 60 z "},"B":{"ha":718,"x_min":0,"x_max":694,"o":"m 526 52 q 562 206 562 147 q 512 297 562 277 q 398 321 451 321 q 347 315 372 321 q 347 282 347 298 q 326 116 347 203 q 345 117 336 117 q 526 52 450 117 m 357 708 q 326 566 326 656 q 327 534 326 550 l 332 471 l 338 408 q 391 427 357 410 q 464 467 429 444 q 555 583 555 528 q 497 674 555 642 q 380 706 454 698 l 357 708 m 517 409 q 694 298 683 384 l 694 290 q 555 -73 694 186 q 278 9 424 9 q 0 -59 144 9 q 205 104 100 71 l 180 422 q 177 464 177 441 q 182 529 177 494 q 283 711 201 649 l 243 711 l 232 710 q 176 717 203 711 q 109 745 139 725 q 21 921 29 798 l 21 923 q 116 842 50 867 q 174 829 140 832 q 233 827 195 827 q 311 828 260 827 l 351 829 l 391 830 q 546 812 484 830 q 650 739 625 789 q 666 667 666 707 q 665 655 666 661 q 643 572 663 610 q 581 478 622 530 q 517 409 547 437 z "},"C":{"ha":654,"x_min":5,"x_max":637,"o":"m 540 759 l 541 759 l 541 758 q 544 756 543 757 q 554 750 549 753 q 585 734 570 741 q 620 725 606 725 q 637 735 633 725 l 637 730 q 633 690 637 713 q 565 608 620 608 q 526 616 547 608 q 492 633 511 623 l 476 644 l 460 654 q 394 688 420 681 q 337 695 366 695 q 243 677 292 695 q 174 629 203 663 q 134 553 145 595 q 122 465 122 508 q 127 408 122 436 q 185 273 140 346 q 491 41 279 121 l 591 115 l 620 75 l 413 -82 q 362 -64 408 -82 q 301 -41 314 -47 q 24 255 81 68 q 5 374 5 317 q 6 401 5 388 q 51 543 12 469 q 163 682 85 608 q 233 741 191 708 l 250 753 l 267 766 q 304 790 288 781 q 384 819 347 816 q 395 820 389 820 q 466 802 429 820 q 504 782 483 795 l 522 770 l 540 759 z "},"D":{"ha":790,"x_min":0,"x_max":752,"o":"m 612 163 q 538 52 602 108 q 347 90 441 90 q 326 89 336 90 q 355 136 336 103 q 385 252 382 183 l 385 261 q 382 313 385 284 l 379 344 l 376 374 l 370 446 l 364 517 q 363 550 363 534 q 393 693 363 640 l 434 688 q 485 671 457 686 q 528 639 511 657 q 579 540 562 603 q 592 484 586 516 l 597 456 l 601 429 q 618 248 618 325 q 612 163 618 200 m 743 505 q 683 680 728 615 q 581 776 641 740 q 356 830 498 825 q 186 840 215 836 q 58 876 111 849 q 0 912 4 903 q 159 747 58 787 q 326 703 260 707 q 252 621 279 671 q 220 531 229 581 q 214 467 214 496 q 217 428 214 446 l 248 153 q 249 125 249 138 q 243 78 249 99 q 47 -25 117 49 q 214 -5 134 -5 q 359 -23 290 -5 q 469 -68 431 -41 l 469 -68 q 516 -31 473 -68 l 533 -16 q 548 -3 539 -10 q 566 13 564 12 q 639 78 615 54 q 699 156 677 117 q 752 391 752 255 q 743 505 752 445 z "},"E":{"ha":705,"x_min":0,"x_max":688,"o":"m 380 330 l 382 313 q 385 229 385 284 l 385 205 q 326 102 380 143 q 404 108 363 108 q 677 55 526 108 q 534 -62 539 -62 q 232 -10 397 -10 q 47 -25 143 -10 q 243 92 117 49 q 249 132 249 113 q 248 153 249 143 l 217 428 q 214 467 214 446 q 220 531 214 496 q 252 621 229 581 q 326 703 279 671 l 240 715 q 120 765 197 722 q 0 912 43 808 q 58 876 4 903 q 186 840 111 849 q 356 830 215 836 q 566 793 498 825 q 688 626 634 760 q 393 693 638 671 q 363 550 363 640 q 364 517 363 534 l 370 446 l 372 428 l 399 422 q 482 410 455 410 q 494 411 489 410 q 541 442 528 416 q 547 468 547 456 q 576 402 576 433 q 559 357 576 378 q 476 316 526 316 q 452 318 465 316 q 380 330 395 327 z "},"F":{"ha":705,"x_min":0,"x_max":688,"o":"m 289 680 q 123 741 202 690 q 0 896 43 791 q 58 860 4 886 q 186 823 111 833 q 355 814 214 819 q 566 777 497 809 q 688 610 634 743 q 422 673 638 654 l 401 673 q 385 545 385 618 q 387 504 385 525 l 394 416 l 397 407 l 397 405 q 421 406 409 406 q 617 342 526 406 l 482 272 q 406 328 449 317 q 410 249 410 286 q 345 43 410 109 q 195 -52 262 -41 q 237 -20 217 -45 q 262 34 254 2 q 268 89 268 59 q 266 125 268 106 l 233 327 l 226 327 q 102 314 186 327 q 226 376 176 357 q 218 455 218 416 q 220 491 218 473 q 289 680 231 596 z "},"G":{"ha":697,"x_min":5,"x_max":680,"o":"m 602 387 l 648 345 q 680 298 680 313 l 680 126 l 413 -75 q 362 -58 408 -75 q 301 -34 314 -40 q 24 260 81 74 q 5 377 5 321 q 6 405 5 391 q 51 545 12 473 q 163 684 85 610 q 269 763 191 709 q 384 820 347 817 q 395 821 389 821 q 466 803 429 821 q 545 758 483 795 q 616 732 589 732 q 637 736 628 732 l 633 692 q 565 610 620 610 q 526 618 547 610 q 465 653 511 625 q 394 689 420 682 q 337 696 366 696 q 243 678 292 696 q 174 631 203 664 q 134 555 145 597 q 122 469 122 511 q 127 412 122 439 q 185 277 140 350 q 491 47 279 126 l 568 104 l 568 201 q 544 239 568 216 q 482 296 521 262 l 602 387 z "},"H":{"ha":763,"x_min":0,"x_max":746,"o":"m 574 69 q 644 -64 574 -12 l 645 -64 l 646 -65 l 746 9 q 697 97 697 39 l 697 327 l 696 327 l 697 721 q 686 769 697 747 q 661 803 677 787 q 648 814 654 808 q 635 822 642 819 l 631 825 l 628 827 l 627 827 l 625 828 l 625 828 l 524 753 q 549 732 536 747 q 573 666 573 705 l 573 384 q 478 452 547 425 q 416 465 445 465 l 414 465 l 307 465 l 307 715 q 185 833 307 833 q 57 758 87 833 q 182 651 182 758 l 182 465 l 171 465 q 103 492 125 465 q 92 511 96 500 q 91 515 92 513 q 153 388 103 434 q 182 367 168 374 l 182 56 q 46 -8 107 50 q 0 -66 16 -38 q 111 -44 56 -44 q 146 -46 129 -44 q 203 -60 175 -50 q 245 -79 225 -67 l 254 -73 l 255 -73 l 355 2 l 355 3 l 356 3 l 341 12 q 319 41 327 25 q 307 90 307 63 l 307 353 q 456 349 380 351 q 534 330 503 346 q 573 298 559 317 l 573 195 l 574 195 l 574 69 m 91 515 q 90 517 90 516 l 90 519 q 91 515 90 517 z "},"I":{"ha":435,"x_min":0,"x_max":418,"o":"m 242 60 q 304 142 269 85 q 325 250 325 176 q 306 425 325 319 q 296 532 296 479 q 387 853 296 694 q 261 806 315 806 q 161 864 200 806 l 0 737 q 153 693 81 693 q 203 699 179 693 q 149 562 152 637 q 148 530 148 547 q 157 450 148 492 q 182 288 169 391 q 189 182 189 236 q 184 95 189 139 q 19 -26 118 92 q 54 -1 19 -24 q 92 12 73 12 q 123 2 108 12 q 117 0 119 1 q 123 1 120 1 q 130 -3 127 -1 q 161 -29 144 -15 l 174 -42 q 187 -54 181 -49 q 232 -68 207 -68 q 255 -65 243 -68 q 286 -55 267 -63 q 308 -42 298 -50 l 418 38 q 325 18 358 18 q 295 24 305 18 l 243 58 l 242 60 z "},"J":{"ha":553,"x_min":0,"x_max":526,"o":"m 328 702 q 240 712 286 707 q 121 762 198 720 q 0 909 43 805 q 58 873 4 899 q 186 837 112 846 q 308 828 215 833 q 526 612 526 826 q 526 591 526 602 q 388 694 489 693 q 366 570 366 629 q 366 552 366 561 q 385 405 370 484 q 404 298 400 326 q 410 199 410 243 q 390 85 410 124 q 318 -3 357 23 q 279 -25 294 -18 q 197 -42 241 -42 q 153 -38 176 -42 q 77 -2 109 -31 q 38 72 41 29 l 38 77 q 78 24 50 44 q 142 3 106 3 q 240 61 203 3 q 256 170 256 105 q 242 309 256 230 q 222 496 222 422 q 227 551 222 527 q 309 689 238 629 q 328 702 319 695 z "},"K":{"ha":818,"x_min":-1,"x_max":798,"o":"m 306 425 l 307 425 q 451 579 353 475 q 514 646 482 612 q 533 667 524 657 q 538 672 536 670 l 540 674 q 566 724 566 701 q 566 728 566 726 q 553 755 564 741 q 530 779 543 768 l 631 854 q 688 748 679 805 q 690 724 690 736 q 683 677 690 701 q 631 589 670 631 l 450 397 q 597 160 557 277 q 688 -20 638 44 q 774 -71 728 -71 q 798 -68 786 -71 q 737 -157 798 -139 q 689 -165 712 -165 q 624 -149 654 -165 q 533 -43 572 -121 q 489 49 495 35 q 307 304 374 290 l 306 304 l 306 90 q 318 41 306 63 q 340 12 326 25 l 355 3 l 354 3 l 355 2 l 254 -73 l 254 -73 l 245 -79 q 202 -60 224 -67 q 146 -46 174 -50 q 111 -44 128 -44 q -1 -66 55 -44 q 45 -8 15 -38 q 182 56 106 50 l 182 651 q 56 758 182 758 q 184 833 87 833 q 306 715 306 833 l 306 425 z "},"L":{"ha":589,"x_min":0,"x_max":572,"o":"m 148 77 q 310 98 252 98 q 572 28 446 97 l 426 -79 q 178 -9 358 -9 q 0 -23 100 -9 q 83 229 83 64 q 50 472 83 335 q 45 526 45 498 q 64 649 45 586 q 319 867 119 833 q 361 878 338 878 q 434 856 394 878 q 539 732 504 817 q 548 690 548 711 q 534 633 548 662 q 382 493 513 591 l 378 490 l 374 488 l 372 487 q 430 612 430 552 q 380 717 430 667 q 246 779 330 768 q 225 783 236 781 q 198 629 198 728 q 201 564 198 599 q 222 272 222 313 l 222 269 q 148 77 219 173 z "},"M":{"ha":1023,"x_min":0,"x_max":991,"o":"m 172 76 q 196 12 172 39 q 221 -9 209 -3 l 120 -84 l 119 -84 l 119 -83 l 117 -83 l 114 -81 l 109 -78 q 98 -70 103 -75 q 84 -59 90 -64 q 59 -25 68 -43 q 48 23 48 -3 l 48 643 q 0 730 48 701 l 100 805 l 101 804 l 102 804 q 170 696 161 760 l 172 697 l 172 633 q 428 838 420 838 q 590 675 543 777 q 806 838 798 838 q 911 747 868 800 q 989 543 975 668 q 991 490 991 516 q 927 271 991 368 q 841 140 848 153 q 822 73 822 104 l 822 65 q 836 28 824 43 q 867 13 848 13 l 869 13 q 913 33 897 14 q 925 64 925 47 q 921 85 925 74 l 922 84 q 924 81 923 83 q 932 73 928 77 q 942 58 938 65 q 949 41 947 50 q 957 0 957 19 q 943 -48 957 -26 q 866 -96 921 -85 q 844 -98 854 -98 q 795 -85 817 -98 q 678 1 756 -62 l 709 40 q 773 151 739 79 q 850 345 842 281 q 853 402 853 374 q 830 540 853 475 q 707 707 795 641 l 607 633 q 626 511 626 574 q 620 440 626 477 q 542 231 602 324 q 474 146 509 180 q 471 138 471 142 q 499 90 471 123 q 532 56 513 75 q 547 42 539 50 l 553 36 q 559 31 555 34 l 421 -71 q 370 -8 401 -52 q 343 44 343 31 q 345 48 343 47 q 411 135 385 91 q 486 345 473 238 q 489 403 489 375 q 467 540 489 475 q 344 707 431 641 l 172 578 l 172 76 z "},"N":{"ha":763,"x_min":1,"x_max":746,"o":"m 696 84 q 722 18 696 45 q 746 -3 734 3 l 645 -78 l 644 -77 l 642 -76 l 640 -75 l 637 -75 l 636 -75 q 534 -16 581 -67 q 465 85 503 18 q 262 499 399 203 l 262 91 q 311 3 262 33 l 211 -71 l 210 -71 l 210 -71 q 138 63 138 -18 l 139 639 q 118 717 139 690 q 59 745 97 745 q 1 717 27 745 l 1 719 q 15 770 1 745 q 50 806 28 793 q 119 822 78 822 q 277 721 246 819 l 573 115 l 573 665 q 549 731 573 702 q 524 751 536 745 l 625 827 l 625 826 l 627 825 l 628 825 l 631 823 l 635 821 l 648 812 q 661 801 653 808 q 686 768 677 785 q 697 720 697 745 l 696 84 z "},"O":{"ha":819,"x_min":5,"x_max":800,"o":"m 659 259 q 667 340 667 301 q 633 486 667 418 q 409 688 570 612 q 365 701 394 695 q 340 702 353 702 q 246 684 294 702 q 177 637 206 670 q 137 562 149 604 q 125 477 125 518 q 131 421 125 448 q 189 288 144 359 q 494 60 283 139 q 659 259 640 174 m 777 556 q 800 433 799 495 l 800 425 q 779 309 800 363 q 424 -80 723 153 q 372 -62 419 -80 q 309 -38 322 -44 q 135 83 206 12 q 24 259 55 162 q 5 379 5 323 q 6 407 5 393 q 52 549 13 475 q 168 689 87 614 q 268 765 196 715 q 355 819 339 815 q 365 820 359 820 q 457 808 389 820 q 623 741 543 793 q 777 556 736 666 z "},"P":{"ha":766,"x_min":0,"x_max":747,"o":"m 538 264 q 608 376 589 308 q 620 453 620 414 q 614 507 620 480 q 556 622 600 576 q 434 683 507 672 l 380 690 q 349 527 349 631 q 350 491 349 510 l 355 414 l 361 336 l 364 301 q 538 264 450 298 m 536 790 q 688 689 632 758 q 747 519 746 617 l 747 514 q 698 351 747 418 q 566 225 667 309 q 548 210 564 224 q 533 196 539 201 l 516 181 q 469 144 473 144 l 469 144 q 368 186 433 168 q 341 79 363 124 q 288 -8 310 16 q 191 -56 251 -47 q 222 -28 207 -51 q 245 66 245 7 q 243 98 245 81 l 233 206 l 214 206 q 47 186 133 206 q 226 286 111 254 l 216 395 q 213 438 213 415 q 219 510 213 472 q 250 610 229 566 q 325 698 278 665 l 240 709 q 146 746 197 718 q 67 806 101 771 q 0 907 24 850 q 26 886 4 898 q 43 878 33 883 l 51 875 q 56 872 55 873 q 175 840 99 850 q 239 833 200 836 l 270 830 q 298 827 287 828 l 328 824 l 358 821 q 418 815 396 818 q 536 790 488 806 z "},"Q":{"ha":819,"x_min":5,"x_max":800,"o":"m 672 254 q 682 338 682 297 q 647 484 682 415 q 416 690 583 613 q 371 702 401 696 q 346 703 358 703 q 250 686 298 703 q 178 637 209 671 q 137 562 149 604 q 125 476 125 518 q 131 418 125 447 q 190 284 144 356 q 504 53 286 132 l 585 112 q 672 254 652 172 m 563 28 q 631 16 595 16 l 635 16 q 741 55 671 16 q 679 -24 718 15 q 528 -94 606 -94 q 512 -94 519 -94 q 321 -33 435 -87 q 135 92 206 22 q 24 266 55 170 q 5 385 5 330 q 6 412 5 398 q 52 552 13 479 q 168 690 87 617 q 268 766 197 718 q 355 819 339 815 q 365 820 358 820 q 457 808 389 820 q 623 742 542 794 q 777 559 736 668 q 800 437 799 499 l 800 430 q 779 315 800 368 q 637 87 723 161 l 563 28 z "},"R":{"ha":813,"x_min":0,"x_max":796,"o":"m 528 254 q 364 301 450 298 l 361 336 q 356 499 356 429 q 380 690 356 644 l 434 683 q 556 622 507 672 q 614 507 600 576 q 620 453 620 480 q 608 376 620 414 q 528 254 589 308 m 568 228 q 698 351 668 310 q 747 514 747 418 l 747 519 q 688 689 746 617 q 536 790 632 758 q 418 815 488 806 q 64 862 124 826 q 0 907 4 898 l 67 806 q 146 746 101 771 q 240 709 197 718 l 325 698 q 223 540 237 633 q 214 433 214 477 q 216 395 214 412 l 226 286 q 47 186 111 254 q 214 206 133 206 l 233 206 l 243 98 q 245 66 245 81 q 222 -28 245 7 q 191 -56 207 -51 q 288 -8 251 -47 q 341 79 310 16 q 368 186 363 124 q 542 17 490 132 q 640 -123 593 -99 q 697 -138 667 -138 q 739 -132 718 -138 q 796 -28 793 -115 q 758 -41 776 -41 q 680 50 711 -41 q 568 228 637 174 z "},"S":{"ha":709,"x_min":0,"x_max":691,"o":"m 60 145 l 60 144 l 60 145 m 406 619 q 314 661 364 632 q 271 688 296 671 l 229 716 q 227 692 227 703 l 227 685 q 317 528 231 597 q 397 475 347 504 l 418 463 l 438 451 q 477 429 465 436 q 532 397 493 420 l 565 377 l 597 358 q 675 311 675 312 q 638 254 673 306 q 559 136 599 193 q 419 -45 443 -34 q 370 -56 395 -56 q 298 -37 336 -56 q 243 -4 276 -26 l 216 14 q 190 31 201 24 q 92 60 142 60 q 0 20 36 60 q 100 158 37 114 q 190 187 142 187 q 278 164 232 187 q 353 119 307 149 l 388 95 q 427 73 409 82 q 447 67 437 67 q 509 125 479 67 q 530 180 524 153 q 533 202 533 194 q 530 212 533 210 q 455 256 496 231 l 383 298 q 236 386 288 355 q 114 507 146 439 q 98 581 98 541 q 104 635 98 607 q 124 699 111 663 l 136 730 l 149 761 l 150 763 l 288 865 q 379 811 322 848 l 423 783 q 469 756 448 767 q 543 739 502 739 l 548 739 q 621 753 583 739 q 650 765 635 758 q 673 777 662 770 q 691 785 690 785 q 615 704 663 745 q 526 637 582 676 q 450 612 491 612 q 406 619 429 612 z "},"T":{"ha":705,"x_min":0,"x_max":688,"o":"m 289 680 q 123 741 202 690 q 0 896 43 791 q 58 860 4 886 q 186 823 111 833 q 355 814 214 819 q 566 777 497 809 q 688 610 634 743 q 422 673 638 654 l 401 673 q 395 582 395 635 q 421 313 395 477 q 426 252 426 281 q 187 -54 426 49 q 229 -22 209 -48 q 254 31 245 -1 q 260 142 260 88 q 253 259 260 202 q 230 463 239 369 q 229 487 229 475 q 289 680 229 572 z "},"U":{"ha":643,"x_min":14,"x_max":626,"o":"m 454 95 l 452 95 q 199 -96 201 -97 q 94 -5 137 -58 q 16 199 29 74 q 14 238 14 218 q 100 495 14 363 l 111 511 l 123 527 q 146 561 138 548 q 169 628 169 597 l 169 635 q 147 672 168 656 q 109 687 128 687 l 106 687 q 62 667 78 686 q 51 637 51 653 q 55 615 51 627 l 54 615 l 54 616 q 52 618 53 617 q 43 628 47 623 q 34 642 38 635 q 26 659 28 650 q 19 700 19 680 q 32 748 19 726 q 110 795 54 785 q 132 798 121 798 q 180 785 159 798 q 298 699 220 762 l 267 661 q 203 549 236 621 q 155 397 163 462 q 152 338 152 366 q 174 202 152 266 q 297 35 210 101 l 452 150 l 452 664 q 428 730 452 703 q 404 751 416 745 l 504 826 l 505 826 l 506 825 l 507 825 l 511 823 l 515 820 q 527 812 521 817 q 540 801 534 806 q 565 767 556 785 q 576 719 576 745 l 577 97 q 626 9 577 39 l 526 -65 l 525 -64 l 524 -64 q 454 69 454 -12 l 454 95 z "},"V":{"ha":614,"x_min":0,"x_max":597,"o":"m 525 825 l 526 824 l 526 824 l 528 823 l 531 821 l 536 819 q 547 810 542 814 q 561 799 554 805 q 586 766 576 784 q 597 718 597 743 l 597 130 l 293 -98 q 254 -72 273 -86 q 90 108 152 0 q 30 311 32 212 l 30 321 q 71 512 30 425 q 124 597 96 564 q 125 600 125 599 q 90 647 125 611 q 0 734 58 681 l 121 824 q 203 739 174 772 q 237 696 237 703 l 237 696 q 185 609 204 653 q 147 425 147 518 q 148 398 147 411 q 214 198 154 297 q 382 24 277 94 l 473 93 q 473 663 473 111 q 448 729 473 701 q 424 750 436 743 l 525 825 z "},"W":{"ha":1023,"x_min":14,"x_max":1006,"o":"m 833 664 q 810 728 833 701 q 785 749 797 743 l 886 824 l 886 824 l 887 823 l 888 823 l 892 821 l 897 818 q 908 810 903 814 q 922 799 916 804 q 947 765 937 783 q 958 717 958 743 l 958 97 q 1006 9 958 39 l 905 -65 l 905 -64 l 904 -64 q 836 43 845 -20 l 833 43 l 833 106 q 578 -98 585 -98 q 416 65 463 -37 q 200 -98 208 -98 q 94 -7 138 -60 q 17 197 31 72 q 14 250 14 224 q 79 469 14 372 q 165 600 157 587 q 184 667 184 635 l 184 675 q 170 712 182 697 q 138 727 157 727 l 137 727 q 92 707 109 726 q 81 676 81 693 q 85 655 81 666 l 84 656 q 81 659 83 657 q 73 667 77 663 q 64 682 68 675 q 56 699 59 690 q 49 740 49 721 q 62 788 49 766 q 140 836 85 825 q 161 838 151 838 q 211 825 189 838 q 328 739 250 802 l 297 700 q 233 589 267 661 q 156 395 164 459 q 153 338 153 366 q 176 200 153 264 q 298 33 211 99 l 399 107 q 380 229 380 165 q 386 300 380 263 q 464 509 404 416 q 532 594 496 559 q 535 602 535 597 q 507 650 535 617 q 474 684 493 665 q 459 698 467 690 l 452 704 q 447 709 450 706 l 585 811 q 635 748 605 792 q 663 696 663 709 q 661 692 663 693 q 595 605 621 649 q 520 395 533 502 q 517 337 517 365 q 539 200 517 264 q 662 33 575 99 l 833 161 l 833 664 z "},"X":{"ha":740,"x_min":-1,"x_max":723,"o":"m 275 301 q 191 589 208 545 q 164 654 168 645 q 57 736 134 735 q 16 715 35 734 q 170 848 71 846 q 231 829 203 846 q 276 782 260 812 q 328 642 305 728 l 371 488 q 476 695 474 689 q 504 753 492 732 q 543 801 522 783 q 618 834 574 830 q 629 835 624 835 q 671 827 650 835 q 723 741 723 806 q 703 676 723 705 q 652 640 682 648 q 624 637 636 637 l 618 637 q 587 650 600 638 l 587 650 q 591 649 590 649 q 615 660 605 649 q 625 685 625 670 q 615 710 625 700 q 591 720 605 720 q 564 704 574 720 q 560 698 562 701 l 559 696 l 559 696 l 558 694 q 508 596 557 692 l 503 585 l 496 574 q 484 550 490 560 q 458 499 470 522 q 401 389 427 437 q 400 385 401 387 l 415 332 q 476 180 443 239 q 631 62 542 62 q 706 81 667 62 q 689 65 706 81 l 686 61 l 682 57 q 672 48 677 52 q 653 29 662 37 q 585 -31 599 -24 q 511 -49 547 -49 q 372 42 433 -49 q 312 169 340 92 q 304 197 308 183 q 246 81 248 86 q 218 24 230 44 q 180 -24 200 -7 q 104 -58 148 -54 q 93 -58 98 -58 q 52 -50 72 -58 q -1 36 -1 -30 q 20 101 -1 72 q 71 136 41 129 q 98 140 86 140 q 132 130 119 140 q 109 119 118 130 q 100 94 100 109 q 109 69 100 80 q 132 59 119 59 q 164 82 152 59 q 214 181 165 85 l 220 192 l 226 203 q 238 227 233 217 q 264 278 253 255 q 275 301 270 290 z "},"Y":{"ha":686,"x_min":9,"x_max":669,"o":"m 423 460 l 423 439 q 425 372 423 408 l 427 328 l 431 284 l 444 149 l 298 38 q 176 205 211 104 q 153 340 153 269 q 157 399 153 369 q 204 551 164 465 q 269 663 237 624 l 299 702 q 182 787 220 765 q 134 800 160 800 q 111 798 123 800 q 33 751 56 788 q 20 703 20 730 q 27 661 20 684 q 35 644 30 653 q 45 631 39 637 q 53 621 49 626 q 55 619 54 620 l 56 618 l 56 618 q 52 640 52 629 q 63 670 52 656 q 108 690 79 689 l 109 690 q 142 675 129 690 q 155 638 155 660 q 134 564 155 603 q 115 530 127 549 l 104 514 l 94 498 q 14 248 14 378 q 17 201 14 225 q 95 -1 31 77 q 200 -92 138 -55 l 201 -92 q 232 -71 205 -92 q 260 -48 243 -62 l 275 -36 l 289 -24 l 448 97 l 454 33 l 454 29 q 455 7 455 19 q 454 -20 455 -5 q 452 -83 454 -53 q 442 -196 449 -163 l 441 -199 q 322 -184 378 -184 q 115 -258 197 -184 q 9 -375 41 -312 q 197 -319 113 -324 q 224 -318 211 -318 q 350 -334 289 -318 l 391 -302 q 421 -279 401 -293 l 452 -255 q 510 -203 490 -227 q 568 -1 564 -142 q 568 50 568 23 q 565 168 568 104 l 562 208 l 559 248 l 555 328 q 552 418 552 374 q 576 654 552 551 q 645 812 600 760 q 656 823 652 819 q 669 832 662 829 q 489 682 554 782 q 423 460 425 584 z "},"Z":{"ha":599,"x_min":0,"x_max":582,"o":"m 201 73 q 334 90 260 90 q 582 54 441 90 l 389 -71 q 180 -30 288 -30 q 0 -57 92 -30 l 393 728 q 216 696 311 696 q 16 726 123 696 l 209 851 q 391 814 283 814 q 575 836 473 814 l 578 837 l 578 837 l 201 73 z "},"[":{"ha":190,"x_min":0,"x_max":173,"o":"m 124 -3 q 149 -83 124 -63 q 168 -91 158 -91 q 173 -90 170 -91 l 173 -204 l 171 -204 q 165 -205 169 -205 q 157 -205 161 -205 l 146 -205 q 119 -203 132 -205 q 87 -195 102 -201 q 27 -153 49 -182 q 0 -58 0 -117 l 0 946 q 27 1041 0 1005 q 87 1083 49 1070 q 119 1091 102 1088 q 146 1093 132 1093 l 157 1093 q 165 1093 161 1093 q 171 1092 169 1093 l 173 1092 l 173 978 q 168 979 170 979 q 149 970 158 979 q 124 891 124 951 l 124 -3 z "},"\\":{"ha":627,"x_min":0,"x_max":610,"o":"m 105 1094 l 610 -161 l 506 -205 l 0 1051 l 105 1094 z "},"]":{"ha":190,"x_min":0,"x_max":173,"o":"m 49 891 q 24 970 49 951 q 5 979 15 979 q 0 978 3 979 l 0 1092 l 2 1092 q 7 1093 4 1093 q 16 1093 12 1093 l 26 1093 q 54 1091 41 1093 q 86 1083 71 1088 q 146 1041 124 1070 q 173 946 173 1005 l 173 -58 q 146 -153 173 -117 q 86 -195 124 -182 q 54 -203 71 -201 q 26 -205 41 -205 l 16 -205 q 7 -205 12 -205 q 2 -204 4 -205 l 0 -204 l 0 -90 q 5 -91 3 -91 q 24 -83 15 -91 q 49 -3 49 -63 l 49 891 z "},"^":{"ha":315,"x_min":0,"x_max":298,"o":"m 0 770 l 113 1040 l 186 1040 l 298 770 l 205 770 l 149 909 l 94 770 l 0 770 z "},"_":{"ha":409,"x_min":0,"x_max":392,"o":"m 392 -101 l 351 -187 l 0 -187 l 41 -101 l 392 -101 z "},"`":{"ha":230,"x_min":0,"x_max":213,"o":"m 63 847 l 204 689 q 213 670 213 682 q 205 650 213 659 q 186 642 198 643 l 184 642 q 167 648 175 642 l 0 779 l 63 847 z "},"a":{"ha":418,"x_min":0,"x_max":401,"o":"m 229 441 q 190 493 229 471 q 125 390 125 445 l 125 146 q 164 95 125 117 l 229 142 l 229 441 m 352 150 q 360 119 352 134 q 376 95 366 106 q 401 75 389 82 l 300 0 q 258 43 275 14 q 236 94 245 65 l 110 0 q 4 119 18 36 l 3 119 q 0 150 1 132 l 1 150 l 1 382 q 39 458 1 418 q 122 524 68 491 q 243 588 183 563 q 330 521 303 565 q 352 440 352 486 l 352 150 z "},"b":{"ha":418,"x_min":0,"x_max":401,"o":"m 277 441 q 239 493 277 471 l 172 444 l 172 144 l 237 95 q 277 146 277 118 l 277 148 l 277 441 m 292 588 q 379 521 352 565 q 401 440 401 486 l 401 119 l 400 119 q 292 0 386 36 l 205 63 l 121 0 l 120 1 l 119 1 l 118 1 l 115 3 l 110 6 q 98 14 104 10 q 85 26 92 20 q 60 59 69 41 q 49 107 49 81 l 49 664 q 41 704 49 686 q 24 731 35 718 q 0 751 12 745 l 101 826 l 102 826 l 102 825 l 104 825 l 107 823 l 112 820 q 123 812 118 817 q 136 801 130 807 q 161 768 153 785 q 173 719 173 745 l 173 499 l 292 588 z "},"c":{"ha":371,"x_min":8,"x_max":354,"o":"m 123 261 q 161 170 130 214 q 305 101 212 101 q 354 105 328 101 l 216 0 q 197 2 207 1 q 173 7 185 4 q 113 36 140 17 q 15 212 36 90 q 8 287 8 249 q 18 380 8 332 q 74 509 33 457 q 214 597 125 574 l 298 480 l 211 414 l 143 507 q 113 372 113 454 q 123 261 113 321 z "},"d":{"ha":418,"x_min":0,"x_max":401,"o":"m 229 441 q 190 493 229 471 q 125 390 125 445 l 125 146 q 164 95 125 117 l 229 142 l 229 441 m 300 0 q 260 40 277 14 q 235 92 242 64 l 110 0 q 4 119 18 36 l 3 119 q 0 150 1 132 l 1 150 l 1 382 q 39 458 1 418 q 122 524 68 491 q 229 582 176 558 l 229 664 q 222 704 229 686 q 205 731 216 718 q 180 751 193 745 l 281 826 l 282 826 l 283 825 l 284 825 l 288 823 l 292 820 q 304 812 298 817 q 317 801 311 807 q 342 768 333 785 q 353 719 353 745 l 353 160 q 377 94 353 121 q 401 75 387 83 l 301 0 l 300 0 z "},"e":{"ha":371,"x_min":8,"x_max":354,"o":"m 143 509 q 113 372 113 456 q 119 292 113 335 l 235 381 l 143 509 m 127 241 q 145 196 134 218 q 184 145 161 166 q 305 101 232 101 q 354 106 328 101 l 216 0 q 197 2 207 1 q 173 7 185 4 q 113 36 140 17 q 15 213 36 90 q 8 288 8 250 q 18 381 8 334 q 214 600 53 557 l 349 412 l 346 409 l 127 241 z "},"f":{"ha":382,"x_min":0,"x_max":361,"o":"m 50 524 l 0 524 l 27 588 l 50 588 l 49 678 q 71 759 49 724 q 157 826 98 803 l 269 752 q 288 781 282 765 q 293 806 293 793 q 290 829 293 817 q 347 782 326 812 q 361 739 361 761 q 361 730 361 734 q 315 662 355 696 l 313 664 l 212 732 q 185 704 196 722 q 174 669 174 686 l 174 588 l 236 588 l 209 524 l 174 524 l 174 162 q 198 96 174 123 q 223 75 211 81 l 122 0 l 121 1 l 121 1 l 119 1 l 116 3 l 111 6 q 100 14 105 10 q 86 26 92 20 q 61 59 71 41 q 50 107 50 81 l 50 524 z "},"g":{"ha":374,"x_min":0,"x_max":357,"o":"m 231 143 l 231 358 q 230 435 230 404 q 219 482 230 460 q 192 504 210 494 q 127 399 127 454 l 127 148 q 166 96 127 119 l 231 143 m 355 469 q 356 208 355 467 q 357 -58 357 -52 q 283 -203 357 -138 q 158 -260 221 -260 q 137 -258 147 -260 q 46 -205 83 -250 q 21 -144 21 -175 q 32 -104 21 -124 q 85 -70 50 -70 l 90 -70 q 109 -73 99 -70 q 115 -75 112 -74 l 117 -76 l 118 -76 q 91 -115 94 -92 l 91 -120 q 104 -152 91 -138 q 141 -167 119 -167 l 144 -167 q 196 -140 172 -165 q 231 -57 231 -105 l 231 87 l 111 -1 q 4 120 19 36 l 3 120 q 0 152 1 134 l 1 152 l 1 391 q 39 468 1 427 q 123 535 70 501 q 247 600 185 574 q 269 589 258 595 q 355 469 347 549 z "},"h":{"ha":467,"x_min":0,"x_max":450,"o":"m 401 162 q 450 75 401 104 l 350 0 l 349 1 l 349 1 q 278 134 278 54 l 278 441 q 239 493 278 471 l 173 445 l 173 162 q 221 75 173 104 l 121 0 l 120 1 l 119 1 q 49 134 49 54 l 49 664 q 41 704 49 686 q 24 731 35 718 q 0 751 12 745 l 100 826 l 102 826 l 102 825 l 104 825 l 107 823 l 112 820 q 123 812 117 817 q 136 801 130 807 q 161 768 153 785 q 173 719 173 745 l 173 499 l 292 588 q 379 521 352 565 q 401 440 401 486 l 401 162 z "},"i":{"ha":239,"x_min":0,"x_max":222,"o":"m 173 162 q 197 96 173 123 q 222 75 210 81 l 121 0 l 120 1 l 119 1 l 118 1 l 115 3 l 110 6 q 98 14 104 10 q 85 26 92 20 q 60 59 69 41 q 49 107 49 81 l 49 424 q 24 490 49 463 q 0 511 12 505 l 100 586 l 101 586 l 102 585 l 104 585 l 107 583 l 112 580 q 123 572 117 576 q 136 561 130 566 q 161 528 153 545 q 173 479 173 505 l 173 162 m 106 749 q 119 732 111 741 q 140 714 129 722 q 188 701 162 701 q 218 705 202 701 q 158 635 195 661 q 102 616 130 616 q 4 674 54 616 l 106 749 z "},"j":{"ha":398,"x_min":16,"x_max":381,"o":"m 269 751 q 282 734 275 743 q 304 716 292 724 q 351 703 326 703 q 381 707 366 703 q 321 637 359 663 q 266 618 294 618 q 168 676 217 618 l 269 751 m 345 -59 q 273 -202 345 -137 q 149 -258 212 -258 q 130 -256 140 -258 q 41 -204 77 -249 q 16 -144 16 -174 q 27 -104 16 -124 q 79 -71 44 -71 l 83 -71 q 102 -73 92 -71 q 109 -75 106 -75 l 111 -77 l 111 -77 q 85 -115 87 -92 q 84 -121 84 -118 q 98 -151 84 -138 q 134 -166 113 -166 l 137 -166 q 187 -140 163 -165 q 221 -58 221 -105 l 220 426 q 196 492 220 465 q 172 513 184 507 l 272 588 l 273 588 l 273 587 l 275 587 l 279 585 l 283 582 q 294 574 289 578 q 308 563 302 568 q 333 529 323 547 q 345 481 345 507 l 345 -59 z "},"k":{"ha":475,"x_min":0,"x_max":458,"o":"m 298 469 q 254 492 275 475 l 173 432 l 173 376 l 298 469 m 49 664 q 41 704 49 686 q 24 731 35 718 q 0 751 12 745 l 101 826 l 102 826 l 102 825 l 104 825 l 107 823 l 112 820 q 123 812 118 817 q 136 801 130 807 q 161 768 153 785 q 173 719 173 745 l 173 487 l 322 598 l 323 597 l 323 599 q 336 581 329 589 q 359 564 347 570 q 406 551 380 551 q 435 555 420 551 q 401 506 423 530 q 361 475 382 486 q 321 465 341 465 q 309 466 315 465 q 389 399 363 442 q 409 322 409 366 l 409 162 q 458 75 409 104 l 357 0 l 357 1 l 356 1 q 286 130 288 52 l 286 323 q 246 375 286 352 l 173 321 l 173 162 q 222 75 173 104 l 121 0 l 120 1 l 119 1 q 49 134 49 54 l 49 664 z "},"l":{"ha":238,"x_min":0,"x_max":221,"o":"m 49 664 q 41 704 49 686 q 24 731 35 718 q 0 751 12 745 l 101 826 l 102 826 l 102 825 l 104 825 l 107 823 l 112 820 q 123 812 118 817 q 136 801 130 807 q 161 768 153 785 q 173 719 173 745 l 173 161 q 221 75 173 103 l 121 0 l 120 1 l 119 1 q 49 134 49 54 l 49 664 z "},"m":{"ha":694,"x_min":0,"x_max":677,"o":"m 401 162 q 449 75 401 104 l 349 0 l 348 1 l 347 1 q 277 134 277 54 l 277 441 q 239 493 277 471 l 173 445 l 173 162 q 221 75 173 104 l 121 0 l 120 1 l 119 1 q 49 134 49 54 l 49 424 q 24 490 49 463 q 0 511 12 505 l 100 586 l 101 586 l 103 585 l 106 583 l 110 581 q 120 574 115 578 q 132 565 126 570 q 155 538 146 553 q 171 498 168 519 l 292 588 q 392 493 369 558 l 519 588 q 606 521 579 565 q 628 440 628 486 l 628 162 q 677 75 628 104 l 576 0 l 576 1 l 575 1 q 505 134 505 54 l 505 441 q 466 493 505 471 l 401 445 l 401 162 z "},"n":{"ha":467,"x_min":0,"x_max":450,"o":"m 172 162 q 221 75 172 104 l 121 0 l 120 1 l 119 1 q 49 134 49 54 l 49 424 q 24 490 49 463 q 0 511 12 505 l 100 586 l 101 586 l 103 585 l 106 583 l 110 581 q 120 574 115 578 q 132 565 126 570 q 155 538 146 553 q 172 498 168 519 l 292 588 q 379 521 352 565 q 401 440 401 486 l 401 162 q 450 75 401 104 l 349 0 l 349 1 l 348 1 q 277 134 277 54 l 277 441 q 239 493 277 470 l 172 445 l 172 162 z "},"o":{"ha":414,"x_min":8,"x_max":363,"o":"m 344 98 l 216 0 q 197 2 207 1 q 173 7 185 4 q 113 36 140 17 q 15 212 36 90 q 8 287 8 249 q 18 380 8 332 q 74 509 33 457 q 214 597 125 574 q 363 253 363 554 q 356 104 363 184 l 344 98 m 246 237 q 143 507 245 506 q 113 372 113 454 q 123 261 113 321 q 161 170 130 214 q 246 109 195 125 l 246 237 z "},"p":{"ha":415,"x_min":0,"x_max":398,"o":"m 173 446 l 173 121 q 214 129 194 129 q 276 109 246 129 l 276 441 q 237 494 276 471 l 173 446 m 173 -76 q 180 -115 173 -97 q 197 -142 186 -130 q 222 -163 210 -157 l 121 -238 l 120 -237 l 119 -237 l 118 -237 l 115 -235 l 110 -232 q 98 -224 104 -228 q 85 -212 92 -218 q 60 -179 69 -197 q 49 -131 49 -157 l 49 426 q 41 466 49 447 q 24 493 35 480 q 0 513 12 507 l 100 588 l 101 588 l 103 587 l 106 585 l 110 583 q 120 576 115 580 q 132 567 126 572 q 156 539 146 554 q 172 499 168 521 l 291 588 q 397 469 382 552 l 398 136 l 217 -1 q 173 36 206 17 l 173 -76 z "},"q":{"ha":418,"x_min":0,"x_max":401,"o":"m 123 146 q 163 95 123 118 l 228 144 l 229 444 l 164 494 q 124 441 124 471 l 124 440 l 123 146 m 109 0 q 22 67 49 23 q 0 148 0 102 l 0 469 l 1 469 q 109 588 16 552 l 195 526 l 280 588 l 281 588 l 281 587 l 283 587 l 286 585 l 291 582 q 302 574 297 578 q 316 563 309 569 q 340 530 332 547 q 352 481 352 507 l 352 -76 q 376 -142 352 -115 q 401 -163 389 -157 l 300 -238 l 300 -237 l 298 -237 l 297 -237 l 294 -235 l 289 -232 q 277 -224 283 -228 q 264 -212 271 -218 q 239 -179 248 -197 q 228 -131 228 -157 l 228 89 l 109 0 z "},"r":{"ha":397,"x_min":0,"x_max":380,"o":"m 292 588 q 380 519 353 564 l 277 444 q 239 493 276 471 l 173 445 l 173 163 q 180 123 173 142 q 197 96 186 109 q 222 75 210 81 l 121 0 l 120 1 l 119 1 l 118 1 l 115 3 l 110 6 q 98 14 104 10 q 85 26 92 20 q 60 59 69 41 q 49 107 49 81 l 49 424 q 24 490 49 463 q 0 511 12 505 l 100 586 l 101 586 l 103 585 l 106 583 l 110 581 q 120 574 115 578 q 132 565 126 570 q 155 538 146 553 q 171 498 168 519 l 292 588 z "},"s":{"ha":355,"x_min":4,"x_max":338,"o":"m 225 349 q 271 322 225 349 q 326 243 318 295 q 332 186 332 212 q 330 165 332 176 q 300 97 325 123 q 191 14 296 94 q 147 0 171 0 q 80 23 117 0 q 9 121 14 63 l 103 191 q 119 157 108 174 q 193 101 151 112 q 206 99 200 99 q 234 115 225 99 q 237 125 236 119 l 238 130 l 238 135 q 239 143 239 139 q 237 155 239 149 q 151 253 225 216 q 56 306 76 291 q 4 397 4 345 l 4 405 q 41 485 7 453 l 47 491 l 178 589 q 191 589 184 589 q 274 559 233 589 q 338 481 321 526 l 241 408 q 220 437 241 411 q 179 475 198 465 q 136 489 163 486 l 134 489 q 122 486 126 489 l 121 485 q 106 455 106 474 l 106 454 q 110 439 107 447 q 115 427 112 433 q 225 349 132 403 z "},"t":{"ha":249,"x_min":0,"x_max":232,"o":"m 174 524 l 174 162 q 199 96 174 123 q 223 75 211 81 l 123 0 l 122 1 l 121 1 l 119 1 l 116 3 l 111 6 q 100 14 106 10 q 87 26 93 20 q 62 59 71 41 q 50 107 50 81 l 50 524 l 0 524 l 27 588 l 51 588 q 43 650 51 631 q 26 677 37 664 q 1 697 14 690 l 102 772 l 103 772 l 104 771 l 105 770 l 109 768 l 113 766 q 125 758 119 762 q 138 747 132 753 q 163 713 154 731 q 174 665 174 690 l 174 588 l 232 588 l 205 524 l 174 524 z "},"u":{"ha":467,"x_min":0,"x_max":450,"o":"m 401 164 q 408 125 401 143 q 425 98 414 110 q 450 77 437 83 l 349 2 l 349 2 l 347 3 l 344 5 l 340 7 q 330 14 335 10 q 318 23 324 18 q 294 50 304 35 q 279 90 283 69 l 157 0 q 71 67 98 23 q 49 148 49 102 l 49 438 q 41 469 49 454 q 24 493 35 482 q 0 513 12 506 l 100 588 q 138 553 122 576 q 160 510 151 534 q 173 459 170 482 l 173 146 q 212 95 173 117 l 277 143 l 277 426 q 269 465 277 447 q 253 492 263 480 q 228 513 240 507 l 329 588 l 330 588 l 330 587 l 332 587 l 335 585 l 340 582 q 351 574 346 578 q 365 563 359 568 q 390 529 380 547 q 401 481 401 507 q 401 164 401 452 z "},"v":{"ha":418,"x_min":0,"x_max":401,"o":"m 207 0 q 98 73 145 28 q 49 157 49 121 l 49 437 q 41 469 49 454 q 24 492 35 481 q 0 513 12 505 l 100 587 q 138 552 122 575 q 160 509 151 534 q 173 458 170 481 l 172 149 q 212 96 172 119 l 277 145 q 277 425 277 229 q 253 492 277 464 q 228 513 240 506 l 329 587 l 330 587 l 330 587 l 332 586 l 335 584 l 340 581 q 351 573 346 577 q 365 562 359 568 q 390 528 380 547 q 401 480 401 506 l 401 144 l 207 0 z "},"w":{"ha":649,"x_min":0,"x_max":632,"o":"m 559 587 l 560 587 l 562 587 l 563 586 l 566 584 l 571 581 q 583 573 576 577 q 595 562 589 568 q 621 528 612 547 q 632 480 632 506 q 631 165 632 460 l 409 0 q 302 92 339 31 l 178 0 q 83 73 121 26 q 49 157 49 118 l 49 437 q 41 469 49 454 q 24 492 35 481 q 0 513 12 505 l 101 587 q 160 509 140 565 q 173 458 170 481 l 172 156 q 212 104 172 127 l 280 157 l 280 437 q 256 492 280 467 q 231 513 243 505 l 332 587 q 391 509 370 565 q 404 458 401 481 l 404 156 q 442 104 404 127 l 508 153 l 508 425 q 500 465 508 446 q 484 492 494 479 q 459 513 471 506 l 559 587 z "},"x":{"ha":431,"x_min":39,"x_max":396,"o":"m 178 325 q 172 341 175 334 q 136 423 157 391 q 116 449 125 439 q 88 465 102 462 q 68 467 78 467 l 64 467 q 50 464 56 467 q 45 462 47 463 q 42 460 43 461 l 41 460 q 94 532 62 504 q 152 557 123 557 q 173 553 162 557 q 231 499 208 542 q 256 435 247 471 l 309 517 q 317 545 317 531 q 300 578 317 563 q 332 587 317 587 q 381 557 359 587 q 395 514 395 538 q 372 448 395 484 l 268 302 q 346 137 304 176 q 366 124 356 127 q 377 122 372 122 q 382 123 380 122 q 396 129 391 124 q 380 85 393 107 q 355 56 370 66 q 316 42 338 42 q 214 125 251 42 q 191 194 202 153 q 146 127 160 150 q 138 100 138 114 q 142 82 138 91 q 164 67 147 67 q 191 73 176 67 q 122 -3 167 -3 q 79 12 102 -3 q 39 77 39 35 q 79 180 39 119 l 178 325 z "},"y":{"ha":418,"x_min":0,"x_max":401,"o":"m 329 588 l 330 587 l 330 587 l 332 587 l 335 585 l 340 582 q 351 574 346 578 q 365 562 359 568 q 390 529 380 547 q 401 481 401 507 l 401 54 q 359 -127 401 -58 q 349 -142 353 -136 q 336 -160 343 -152 q 300 -199 319 -183 q 204 -237 256 -237 q 184 -235 194 -237 q 93 -183 130 -228 q 68 -123 68 -153 q 79 -83 68 -103 q 132 -49 96 -50 q 155 -52 144 -49 q 163 -54 159 -53 l 165 -56 l 165 -56 q 138 -94 140 -71 l 138 -99 q 151 -130 138 -117 q 189 -145 167 -145 l 192 -145 q 243 -119 219 -144 q 277 -37 277 -84 l 277 89 l 157 0 q 71 67 98 23 q 49 148 49 102 l 49 438 q 41 469 49 454 q 24 493 35 481 q 0 513 12 506 l 101 588 q 138 553 122 575 q 160 510 151 534 q 173 443 170 482 l 172 146 q 212 94 172 117 l 277 144 l 277 426 q 253 492 277 464 q 228 513 241 507 l 329 588 z "},"z":{"ha":399,"x_min":0,"x_max":382,"o":"m 172 119 q 211 120 191 120 q 379 86 301 120 l 222 0 q 140 26 196 26 q 0 0 85 26 l 214 467 q 173 465 193 465 q 3 500 83 465 l 160 586 q 244 561 176 561 q 380 576 297 561 l 382 576 l 382 576 l 172 119 z "},"{":{"ha":283,"x_min":0,"x_max":267,"o":"m 214 -79 q 240 -150 214 -120 q 267 -172 253 -164 l 160 -251 l 159 -250 l 158 -250 l 157 -250 q 153 -248 155 -248 l 148 -244 q 136 -236 141 -239 q 122 -224 128 -231 q 96 -189 104 -207 q 83 -138 83 -165 l 83 345 q 71 388 83 367 q 42 420 60 406 q 0 448 21 439 q 42 477 22 459 q 71 509 60 492 q 83 551 83 530 l 83 1025 q 96 1076 83 1053 q 122 1111 104 1094 q 136 1123 128 1118 l 142 1128 l 148 1131 l 153 1135 q 157 1137 155 1136 l 158 1137 l 159 1137 l 160 1138 l 267 1059 q 240 1037 253 1052 q 222 1008 229 1024 q 214 966 214 989 l 214 837 q 215 716 214 769 l 215 558 q 185 481 215 515 q 161 459 175 470 l 157 456 l 151 452 l 143 448 l 151 443 l 157 439 l 161 436 q 185 414 175 426 q 215 337 215 380 l 214 -79 z "},"|":{"ha":144,"x_min":0,"x_max":127,"o":"m 127 1093 l 127 -204 l 0 -204 l 0 1093 l 127 1093 z "},"}":{"ha":283,"x_min":0,"x_max":267,"o":"m 52 -79 l 52 337 q 81 414 52 380 q 105 436 92 426 l 110 439 l 115 443 l 123 448 l 115 452 l 110 456 l 105 459 q 81 481 92 470 q 52 558 52 515 l 52 716 q 52 837 52 769 l 52 966 q 44 1008 52 989 q 26 1037 37 1024 q 0 1059 14 1052 l 106 1138 l 108 1137 l 109 1137 l 110 1137 q 113 1135 111 1136 l 119 1131 l 125 1128 l 131 1123 q 144 1111 138 1118 q 171 1076 162 1094 q 183 1025 183 1053 l 183 551 q 196 509 183 530 q 224 477 207 492 q 267 448 245 459 q 224 420 245 439 q 196 388 207 406 q 183 345 183 367 l 183 -138 q 171 -189 183 -165 q 144 -224 162 -207 q 131 -236 138 -231 q 119 -244 125 -239 l 113 -248 q 110 -250 111 -248 l 109 -250 l 108 -250 l 106 -251 l 0 -172 q 26 -150 14 -164 q 52 -79 52 -120 z "},"~":{"ha":425,"x_min":0,"x_max":408,"o":"m 408 106 l 298 26 q 275 13 287 18 q 245 3 260 6 q 222 0 233 0 q 177 14 197 0 q 164 26 172 18 l 151 39 q 120 64 132 56 q 76 82 96 82 q 55 77 65 82 q 46 71 54 76 q 30 59 38 65 q 9 42 9 44 l 0 66 l 92 133 q 134 157 111 148 q 163 164 151 164 q 174 163 170 164 q 208 146 188 160 l 233 126 l 260 107 q 309 92 282 92 q 326 94 317 92 q 349 100 338 96 q 357 102 353 101 l 359 104 l 359 104 l 399 130 l 408 106 z "},"":{"ha":186,"x_min":0,"x_max":169,"o":"m 0 744 q 32 798 12 774 q 68 827 50 818 l 169 753 q 100 670 115 705 l 0 744 m 7 0 l 39 539 l 39 543 q 53 570 39 559 q 84 584 66 583 q 115 570 102 583 q 129 539 129 558 l 159 0 l 7 0 z "},"":{"ha":370,"x_min":8,"x_max":353,"o":"m 165 618 q 245 571 197 584 l 342 627 l 342 555 l 214 477 l 196 479 q 172 484 185 481 q 113 508 140 492 l 54 378 l 18 395 l 81 532 q 15 659 31 578 q 8 707 8 682 q 18 768 8 736 q 74 879 33 834 q 212 954 125 935 q 266 930 242 947 l 317 1041 l 353 1025 l 297 903 q 340 825 324 872 l 235 761 q 234 768 235 764 l 165 618 m 138 656 l 216 823 q 142 876 191 876 q 112 774 112 831 q 123 701 112 740 q 138 656 126 677 z "},"":{"ha":369,"x_min":0,"x_max":351,"o":"m 154 726 l 155 721 q 156 684 156 699 l 156 673 q 135 587 155 615 q 113 557 121 567 q 235 589 179 589 q 351 547 299 589 l 265 482 q 130 519 204 519 q 7 498 73 519 q 48 607 41 513 q 50 659 50 633 q 47 726 50 693 l 0 726 l 19 773 l 41 773 l 39 784 l 36 796 q 34 829 34 812 q 45 903 34 865 q 192 1034 77 1014 q 231 1040 212 1040 q 280 1027 256 1040 q 341 953 320 1004 q 346 928 346 941 q 338 893 346 911 q 298 842 326 867 q 275 821 287 830 l 264 814 l 253 806 l 248 803 l 244 800 l 237 796 l 235 794 l 233 793 l 231 792 q 262 876 262 837 q 233 943 262 912 q 170 981 203 975 q 158 983 165 982 q 141 900 141 948 q 142 878 141 889 q 142 866 142 873 l 143 859 l 144 851 l 145 836 l 146 821 q 149 773 148 788 l 216 773 l 197 726 l 154 726 z "},"":{"ha":496,"x_min":0,"x_max":479,"o":"m 80 674 l 80 838 l 109 859 l 41 946 l 98 991 l 168 903 l 281 989 q 337 941 336 941 q 370 901 357 920 l 433 951 l 479 893 l 392 825 l 392 665 l 369 647 l 438 559 l 380 513 l 310 604 l 202 523 q 200 522 201 522 q 180 531 195 522 q 138 563 159 544 q 105 600 118 581 l 45 553 l 0 612 l 80 674 m 294 745 q 293 749 294 747 q 292 763 292 756 q 277 804 287 785 q 172 861 246 861 l 172 756 q 174 742 173 749 q 189 701 178 720 q 294 644 220 644 l 294 745 z "},"":{"ha":303,"x_min":0,"x_max":286,"o":"m 188 697 l 282 697 l 282 629 l 199 629 l 199 592 l 282 592 l 282 524 l 199 524 l 199 456 l 102 456 l 102 524 l 19 524 l 19 592 l 102 592 l 102 629 l 19 629 l 19 697 l 96 697 q 70 720 83 707 q 35 779 35 754 l 35 911 q 30 933 35 922 q 18 950 25 942 q 0 965 9 960 l 72 1018 q 99 993 87 1009 q 114 962 109 979 q 123 926 121 943 l 123 773 q 151 736 123 753 l 197 771 q 198 902 197 831 q 180 949 198 930 q 163 965 172 960 l 235 1018 l 235 1017 l 237 1017 l 239 1016 l 242 1014 l 251 1008 q 260 1000 256 1004 q 278 976 272 988 q 286 941 286 960 l 286 770 l 188 697 z "},"":{"ha":144,"x_min":0,"x_max":127,"o":"m 0 555 l 0 1093 l 127 1093 l 127 555 l 0 555 m 127 333 l 127 -204 l 0 -204 l 0 333 l 127 333 z "},"":{"ha":286,"x_min":4,"x_max":270,"o":"m 204 621 q 260 551 256 583 q 264 506 264 526 q 264 489 264 497 q 239 435 260 455 q 153 368 237 432 q 119 357 137 357 q 64 376 94 357 q 7 454 12 408 l 83 509 q 96 482 87 496 q 154 437 121 446 q 165 436 159 436 q 187 449 180 436 q 190 457 189 452 l 191 461 l 191 470 q 190 480 191 475 q 121 559 180 529 q 81 579 98 570 q 64 589 73 583 q 59 592 62 590 q 45 601 50 597 q 4 673 4 632 l 4 680 q 33 743 7 718 l 39 749 l 91 787 q 45 814 57 805 q 4 886 4 845 l 4 892 q 33 956 7 931 l 39 961 l 143 1039 q 154 1040 149 1040 q 219 1016 186 1040 q 270 954 256 989 l 193 895 q 176 918 193 898 q 143 949 159 940 q 109 960 130 958 l 106 960 q 98 958 101 960 l 97 956 q 85 933 85 948 l 85 932 q 88 920 86 926 q 93 911 90 916 q 180 848 106 891 q 260 764 254 805 q 264 718 264 739 q 264 702 264 709 q 239 648 260 668 q 204 621 237 646 m 103 686 q 157 650 119 673 q 165 649 161 649 q 187 662 180 649 q 190 670 189 665 l 191 674 l 191 683 q 190 693 191 688 q 129 768 181 739 q 98 745 102 747 l 97 743 q 85 720 85 735 l 85 719 q 87 710 86 715 q 96 695 91 703 q 103 686 99 690 z "},"":{"ha":380,"x_min":0,"x_max":363,"o":"m 100 785 q 169 702 115 750 l 68 627 q 32 656 50 637 q 0 711 12 680 l 100 785 m 295 785 q 363 702 310 750 l 262 627 q 227 656 244 637 q 195 711 206 680 l 295 785 z "},"":{"ha":549,"x_min":0,"x_max":532,"o":"m 267 1040 q 397 1006 334 1040 q 497 907 461 971 q 532 774 532 844 q 497 642 532 705 q 399 543 462 578 q 267 508 336 508 q 134 543 197 508 q 35 642 71 578 q 0 774 0 705 q 36 907 0 844 q 136 1006 72 971 q 267 1040 199 1040 m 267 982 q 164 955 214 982 q 86 878 115 928 q 58 774 58 828 q 86 671 58 720 q 163 594 114 622 q 267 566 213 566 q 370 594 320 566 q 447 671 419 622 q 474 774 474 720 q 446 878 474 828 q 368 955 418 928 q 267 982 319 982 m 144 623 l 144 918 l 249 918 q 323 910 299 918 q 362 880 347 901 q 376 833 376 858 q 352 774 376 799 q 325 748 328 749 q 360 692 336 730 l 404 623 l 325 623 l 298 671 q 254 732 270 720 q 224 739 245 739 l 209 739 l 209 623 l 144 623 m 209 798 l 252 798 q 298 806 288 798 q 309 829 309 815 q 304 846 309 839 q 289 857 299 852 q 249 861 279 861 l 209 861 l 209 798 z "},"":{"ha":282,"x_min":0,"x_max":265,"o":"m 151 953 q 125 984 151 970 q 82 922 82 955 l 82 776 q 109 745 82 759 l 151 774 l 151 953 m 233 778 q 237 760 233 768 q 248 745 241 752 q 265 733 257 737 l 198 688 q 170 714 182 696 q 156 745 161 727 l 73 688 q 3 760 12 710 l 2 760 q 0 778 1 768 l 1 778 l 1 918 q 26 963 1 939 q 81 1003 45 983 q 161 1041 121 1026 q 218 1001 200 1027 q 233 952 233 979 l 233 778 z "},"":{"ha":444,"x_min":0,"x_max":410,"o":"m 28 513 l 183 704 l 218 676 l 58 477 l 218 279 l 183 251 l 28 442 l 0 477 l 28 513 m 220 513 l 375 704 l 410 676 l 250 477 l 410 279 l 375 251 l 220 442 l 192 477 l 220 513 z "},"":{"ha":474,"x_min":0,"x_max":457,"o":"m 457 452 l 407 452 l 407 592 l 0 592 l 0 642 l 457 642 l 457 452 z "},"":{"ha":549,"x_min":0,"x_max":532,"o":"m 267 1041 q 397 1006 334 1041 q 497 908 461 972 q 532 774 532 844 q 497 643 532 706 q 399 544 462 579 q 267 509 336 509 q 134 544 197 509 q 35 643 71 579 q 0 774 0 706 q 36 908 0 844 q 136 1006 72 972 q 267 1041 199 1041 m 267 983 q 164 956 214 983 q 86 879 115 928 q 58 774 58 829 q 86 672 58 721 q 163 595 114 623 q 267 567 213 567 q 370 595 320 567 q 447 672 419 623 q 474 774 474 721 q 446 879 474 829 q 368 956 418 928 q 267 983 318 983 m 401 724 q 353 646 386 670 q 267 618 317 618 q 162 660 203 618 q 122 774 122 701 q 140 857 122 821 q 193 910 159 892 q 269 928 227 928 q 351 905 318 928 q 397 833 380 883 l 332 833 q 309 859 321 851 q 268 870 292 870 q 211 845 233 870 q 189 773 189 821 q 210 702 189 725 q 264 678 231 678 q 312 694 292 678 q 335 724 325 703 l 401 724 z "},"":{"ha":314,"x_min":0,"x_max":297,"o":"m 297 728 l 256 642 l 0 642 l 41 728 l 297 728 z "},"":{"ha":204,"x_min":0,"x_max":186,"o":"m 0 872 l 18 885 l 52 911 l 120 962 q 186 865 182 936 l 186 769 l 172 758 l 137 732 l 73 684 q 0 772 0 697 l 0 872 m 127 817 q 127 819 127 818 q 126 827 126 823 q 117 852 123 841 q 55 886 99 886 l 55 823 q 56 815 56 819 q 64 791 58 802 q 127 756 83 756 l 127 817 z "},"":{"ha":348,"x_min":0,"x_max":331,"o":"m 123 331 l 0 331 l 41 417 l 123 417 l 123 539 l 208 539 l 208 417 l 331 417 l 290 331 l 208 331 l 208 208 l 123 208 l 123 331 m 330 172 l 290 89 l 0 89 l 40 172 l 330 172 z "},"":{"ha":211,"x_min":0,"x_max":194,"o":"m 194 903 q 129 804 194 861 q 64 755 96 775 l 64 694 q 124 730 108 694 q 132 755 130 741 q 132 764 132 760 l 132 768 l 191 726 q 155 645 191 687 q 153 642 154 644 l 151 641 l 149 639 q 140 628 144 633 q 125 616 129 616 l 124 616 q 121 618 123 618 q 113 624 117 621 q 82 637 98 633 q 53 642 66 642 q 0 621 22 642 q 6 701 6 659 q 0 785 6 742 l 104 861 q 119 876 111 867 q 128 903 128 887 q 123 927 128 913 q 59 962 104 962 l 59 872 l 3 830 l 3 947 l 126 1041 q 160 1010 160 1011 q 182 983 175 996 q 194 944 194 963 l 194 903 z "},"":{"ha":208,"x_min":0,"x_max":191,"o":"m 164 829 q 161 833 164 829 q 153 841 157 837 q 149 844 151 843 l 147 846 l 191 879 l 191 943 q 180 981 191 962 q 157 1009 172 995 q 123 1040 157 1010 l 0 946 l 0 831 l 56 873 l 56 944 q 121 909 102 944 q 130 880 127 897 q 131 869 130 875 l 131 871 l 78 831 l 78 799 q 124 757 112 783 q 130 739 129 748 q 131 728 131 732 l 131 691 q 66 727 85 691 q 58 755 60 741 q 56 764 57 760 l 56 793 l 0 751 l 0 707 q 36 642 0 675 q 61 623 48 630 q 75 617 71 617 l 75 617 l 191 704 l 191 770 q 180 808 191 789 q 164 829 172 822 z "},"":{"ha":230,"x_min":0,"x_max":213,"o":"m 213 778 l 46 647 q 28 640 38 640 l 26 640 q 7 649 15 642 q 0 669 0 658 q 9 688 0 680 l 151 846 l 213 778 z "},"":{"ha":467,"x_min":0,"x_max":450,"o":"m 173 144 q 212 95 174 117 l 277 143 l 277 426 q 269 465 277 447 q 253 492 263 480 q 228 513 240 507 l 329 588 l 330 588 l 330 587 l 332 587 l 335 585 l 340 582 q 351 574 346 578 q 365 563 359 568 q 390 529 380 547 q 401 481 401 507 q 401 164 401 452 q 408 125 401 143 q 425 98 414 110 q 450 77 437 83 l 349 2 l 349 2 l 347 3 l 344 5 l 340 7 q 330 14 335 10 q 318 23 324 18 q 294 50 304 35 q 279 90 283 69 l 173 12 l 173 -66 q 221 -153 173 -124 l 121 -227 l 120 -227 l 119 -227 q 49 -93 49 -174 l 49 438 q 41 469 49 454 q 24 493 35 482 q 0 513 12 506 l 100 588 q 138 553 122 576 q 160 510 151 534 q 173 459 170 482 l 173 144 z "},"":{"ha":243,"x_min":0,"x_max":210,"o":"m 210 1040 l 210 615 l 156 615 l 156 987 l 136 987 l 136 615 l 83 615 l 83 882 l 79 882 q 23 905 46 882 q 0 961 0 928 q 23 1017 0 994 q 79 1040 46 1040 l 210 1040 z "},"":{"ha":142,"x_min":20,"x_max":164,"o":"m 106 587 q 164 517 119 558 l 78 454 q 47 478 62 462 q 20 524 30 498 l 106 587 z "},"":{"ha":195,"x_min":0,"x_max":178,"o":"m 138 -172 q 164 -203 156 -189 q 170 -224 170 -213 l 170 -227 q 163 -252 170 -240 q 144 -269 156 -264 q 123 -274 134 -274 q 107 -272 115 -274 q 77 -259 92 -268 q 31 -220 62 -251 q 0 -189 0 -190 q 2 -190 1 -189 q 51 -204 26 -204 l 53 -204 q 81 -186 81 -203 l 81 -184 q 25 -121 79 -165 l 111 63 l 178 63 l 90 -130 q 138 -172 108 -142 z "},"":{"ha":195,"x_min":0,"x_max":178,"o":"m 126 694 q 120 719 120 703 l 120 981 q 118 1004 119 994 q 95 1038 115 1031 q 74 1042 84 1042 q 46 1035 60 1042 q 33 1025 39 1031 q 24 1015 29 1021 q 21 1011 23 1013 q 19 1008 20 1009 q 16 1004 17 1004 q 32 1007 25 1007 q 55 991 48 1007 q 59 975 58 985 l 59 691 q 60 682 59 687 q 0 629 20 665 q 55 640 28 640 q 73 638 64 640 q 123 622 100 635 l 178 663 l 170 667 l 161 670 q 144 679 151 674 q 130 690 134 686 l 126 694 z "},"":{"ha":208,"x_min":0,"x_max":191,"o":"m 129 893 q 127 902 128 897 q 119 927 125 916 q 54 962 100 962 l 54 764 q 56 755 55 759 q 64 730 58 741 q 129 694 83 694 l 129 893 m 123 1042 q 157 1012 157 1013 q 180 984 172 997 q 191 945 191 964 l 191 709 l 75 622 q 74 621 75 621 q 61 627 71 621 q 36 646 48 635 q 0 711 0 679 l 0 949 l 123 1042 z "},"":{"ha":444,"x_min":0,"x_max":410,"o":"m 218 477 l 190 442 l 35 251 l 0 279 l 161 477 l 0 676 l 35 704 l 190 513 l 218 477 m 410 477 l 382 442 l 227 251 l 192 279 l 353 477 l 192 676 l 227 704 l 382 513 l 410 477 z "},"":{"ha":656,"x_min":0,"x_max":640,"o":"m 514 1041 l 79 -28 l 26 -6 l 462 1063 l 514 1041 m 153 591 q 171 578 158 587 q 191 568 178 573 l 201 564 l 212 559 l 146 511 q 87 530 118 526 q 64 531 76 531 q 0 518 33 531 q 71 581 24 562 q 70 593 70 587 l 70 962 q 65 981 68 972 q 38 999 57 999 q 19 996 29 999 q 22 1000 20 996 l 25 1004 l 27 1006 l 29 1009 q 39 1021 33 1014 q 54 1032 46 1027 q 87 1040 70 1040 q 113 1036 99 1040 q 140 995 136 1027 q 142 967 142 983 l 142 626 q 150 596 142 607 l 153 591 m 581 155 q 615 137 605 148 q 581 223 615 202 l 581 520 l 509 467 l 509 239 l 437 239 l 437 448 q 433 486 437 469 q 417 520 429 507 q 412 525 415 523 q 393 536 404 534 q 376 539 385 539 q 350 531 362 539 q 325 489 325 514 l 325 484 q 335 486 330 486 q 345 484 340 486 q 366 446 366 479 l 366 204 q 401 161 366 202 l 509 161 l 509 80 q 511 69 509 75 q 441 7 465 50 q 504 20 473 20 q 526 18 515 20 q 584 0 557 15 l 640 47 q 625 56 633 50 q 605 76 614 65 q 581 153 581 108 l 581 155 z "},"":{"ha":563,"x_min":0,"x_max":550,"o":"m 514 1041 l 79 -28 l 26 -6 l 462 1063 l 514 1041 m 153 591 q 171 578 158 587 q 191 568 178 573 l 201 564 l 212 559 l 146 511 q 87 530 118 526 q 64 531 76 531 q 0 518 33 531 q 71 581 24 562 q 70 593 70 587 l 70 962 q 65 981 68 972 q 38 999 57 999 q 19 996 29 999 q 22 1000 20 996 l 25 1004 l 27 1006 l 29 1009 q 39 1021 33 1014 q 54 1032 46 1027 q 87 1040 70 1040 q 113 1036 99 1040 q 140 995 136 1027 q 142 967 142 983 l 142 626 q 150 596 142 607 l 153 591 m 550 357 q 471 236 550 305 q 391 177 431 201 l 391 98 q 465 142 445 98 q 473 172 471 155 q 475 182 474 176 l 475 186 l 545 136 q 501 38 545 88 q 499 35 501 37 l 497 33 l 495 31 q 484 18 490 24 q 467 3 470 3 l 465 3 l 465 3 q 461 5 463 5 q 451 12 456 9 q 413 28 433 23 q 377 34 394 34 q 314 8 340 34 q 326 217 326 42 l 440 307 q 458 325 449 313 q 477 372 477 348 q 476 376 476 373 q 475 386 476 382 q 464 416 471 404 q 386 459 441 459 l 386 344 l 317 294 l 317 441 l 467 555 l 509 518 q 536 484 526 500 q 550 437 550 460 l 550 357 z "},"":{"ha":656,"x_min":0,"x_max":640,"o":"m 514 1041 l 79 -28 l 26 -6 l 462 1063 l 514 1041 m 181 781 q 187 776 185 777 q 214 743 204 758 q 227 696 227 720 q 227 614 227 642 q 227 587 227 587 l 89 484 q 87 483 88 483 q 73 490 84 483 q 42 513 58 498 q 0 590 0 551 l 0 638 l 66 688 l 66 653 l 68 648 l 68 643 q 79 614 72 627 q 155 571 102 571 l 155 651 q 154 659 155 656 q 147 681 153 670 q 92 731 133 711 l 92 769 l 155 817 l 155 843 l 154 855 q 143 886 151 872 q 66 928 121 928 l 66 820 l 0 770 l 0 930 l 146 1041 q 187 1005 186 1006 q 214 972 204 987 q 227 926 227 949 l 227 842 l 227 826 l 174 787 l 176 786 q 177 785 176 785 l 178 784 l 179 783 q 181 781 180 782 m 581 153 q 605 76 581 108 q 625 56 614 65 q 640 47 633 50 l 584 0 q 526 18 557 15 q 504 20 515 20 q 441 7 473 20 q 511 69 465 50 q 509 80 509 75 l 509 161 l 401 161 q 366 204 366 202 l 366 446 q 345 484 366 479 q 335 486 340 486 q 325 484 330 486 l 325 489 q 350 531 325 514 q 376 539 362 539 q 393 536 385 539 q 412 525 404 534 q 417 520 415 523 q 433 486 429 507 q 437 448 437 469 l 437 239 l 509 239 l 509 467 l 581 520 l 581 223 q 615 137 615 202 q 581 155 605 148 l 581 153 z "},"":{"ha":414,"x_min":18,"x_max":397,"o":"m 199 684 q 130 766 184 718 l 232 841 q 267 812 250 831 q 299 758 288 788 l 199 684 m 110 349 l 123 365 l 137 380 q 163 412 153 399 q 199 480 191 449 q 205 523 205 501 q 180 619 205 568 q 281 540 255 600 q 297 463 297 500 q 293 425 297 444 q 222 305 281 373 q 205 287 216 298 l 197 277 l 188 268 q 154 228 167 244 q 108 143 116 180 q 106 125 106 133 q 144 73 106 84 q 169 71 155 71 q 183 71 176 71 q 219 77 200 73 q 286 122 266 91 q 305 201 305 155 l 305 207 q 302 250 305 224 l 298 271 q 296 292 297 284 l 310 283 q 324 273 317 278 q 340 262 333 267 q 372 239 360 248 q 386 224 386 227 q 389 201 387 215 l 391 189 l 393 176 q 397 126 397 146 q 358 33 397 66 q 291 3 332 12 q 257 0 273 0 q 210 7 233 0 q 145 41 178 18 q 58 109 92 78 q 18 188 18 144 q 26 231 18 208 q 62 292 37 259 q 110 349 79 315 z "},"":{"ha":1025,"x_min":-34,"x_max":1004,"o":"m 543 334 q 584 366 572 340 q 589 383 588 374 q 590 389 590 386 l 590 392 l 588 399 q 502 665 570 524 l 374 372 q 452 349 391 368 q 532 334 503 334 q 543 334 538 334 m 838 -8 q 1004 -138 911 -113 q 910 -176 1001 -138 q 861 -186 885 -186 q 730 -109 794 -186 q 607 266 673 -21 q 526 240 570 240 q 456 254 493 240 q 371 273 406 273 q 327 263 345 273 l 229 58 q 322 14 275 45 l 212 -68 q 113 -36 165 -43 q 77 -34 95 -34 q -34 -56 22 -34 q 9 -1 -19 -29 q 64 40 35 24 q 138 65 100 60 l 440 738 q 357 762 403 762 q 311 757 335 762 q 188 701 257 744 l 189 703 q 195 710 191 706 q 220 736 205 722 q 309 808 263 777 q 426 862 372 850 q 465 867 446 867 q 543 842 509 867 q 644 692 606 797 q 723 358 656 655 q 838 -8 789 60 m 406 1115 l 547 957 q 556 938 556 949 q 549 918 556 927 q 530 909 541 911 l 528 909 q 510 916 518 909 l 343 1047 l 406 1115 z "},"":{"ha":1025,"x_min":-34,"x_max":1004,"o":"m 543 334 q 584 366 572 340 q 589 383 588 374 q 590 389 590 386 l 590 392 l 588 399 q 502 665 570 524 l 374 372 q 452 349 391 368 q 532 334 503 334 q 543 334 538 334 m 838 -8 q 1004 -138 911 -113 q 910 -176 1001 -138 q 861 -186 885 -186 q 730 -109 794 -186 q 607 266 673 -21 q 526 240 570 240 q 456 254 493 240 q 371 273 406 273 q 327 263 345 273 l 229 58 q 322 14 275 45 l 212 -68 q 113 -36 165 -43 q 77 -34 95 -34 q -34 -56 22 -34 q 9 -1 -19 -29 q 64 40 35 24 q 138 65 100 60 l 440 738 q 357 762 403 762 q 311 757 335 762 q 188 701 257 744 l 189 703 q 195 710 191 706 q 220 736 205 722 q 309 808 263 777 q 426 862 372 850 q 465 867 446 867 q 543 842 509 867 q 644 692 606 797 q 723 358 656 655 q 838 -8 789 60 m 627 1048 l 460 918 q 443 911 452 911 l 441 911 q 422 920 429 912 q 414 939 414 928 q 423 958 414 951 l 565 1116 l 627 1048 z "},"":{"ha":1025,"x_min":-34,"x_max":1004,"o":"m 543 334 q 584 366 572 340 q 589 383 588 374 q 590 389 590 386 l 590 392 l 588 399 q 502 665 570 524 l 374 372 q 452 349 391 368 q 532 334 503 334 q 543 334 538 334 m 838 -8 q 1004 -138 911 -113 q 910 -176 1001 -138 q 861 -186 885 -186 q 730 -109 794 -186 q 607 266 673 -21 q 526 240 570 240 q 456 254 493 240 q 371 273 406 273 q 327 263 345 273 l 229 58 q 322 14 275 45 l 212 -68 q 113 -36 165 -43 q 77 -34 95 -34 q -34 -56 22 -34 q 9 -1 -19 -29 q 64 40 35 24 q 138 65 100 60 l 440 738 q 357 762 403 762 q 311 757 335 762 q 188 701 257 744 l 189 703 q 195 710 191 706 q 220 736 205 722 q 309 808 263 777 q 426 862 372 850 q 465 867 446 867 q 543 842 509 867 q 644 692 606 797 q 723 358 656 655 q 838 -8 789 60 m 496 1073 q 615 971 560 986 l 541 909 l 536 909 q 465 964 494 909 l 433 932 l 356 932 l 496 1073 z "},"":{"ha":1025,"x_min":-34,"x_max":1004,"o":"m 543 334 q 584 366 572 340 q 589 383 588 374 q 590 389 590 386 l 590 392 l 588 399 q 502 665 570 524 l 374 372 q 452 349 391 368 q 532 334 503 334 q 543 334 538 334 m 838 -8 q 1004 -138 911 -113 q 910 -176 1001 -138 q 861 -186 885 -186 q 730 -109 794 -186 q 607 266 673 -21 q 526 240 570 240 q 456 254 493 240 q 371 273 406 273 q 327 263 345 273 l 229 58 q 322 14 275 45 l 212 -68 q 113 -36 165 -43 q 77 -34 95 -34 q -34 -56 22 -34 q 9 -1 -19 -29 q 64 40 35 24 q 138 65 100 60 l 440 738 q 357 762 403 762 q 311 757 335 762 q 188 701 257 744 l 189 703 q 195 710 191 706 q 220 736 205 722 q 309 808 263 777 q 426 862 372 850 q 465 867 446 867 q 543 842 509 867 q 644 692 606 797 q 723 358 656 655 q 838 -8 789 60 m 649 994 l 561 929 q 543 919 552 924 q 518 911 530 913 q 500 909 509 909 q 464 920 480 909 q 454 929 460 924 l 443 940 q 418 960 428 954 q 382 975 399 975 q 366 970 374 975 q 359 965 365 970 q 346 956 353 961 q 329 943 329 943 l 322 962 l 396 1015 q 430 1035 411 1027 q 453 1040 443 1040 q 462 1039 458 1040 q 488 1025 473 1037 l 509 1010 l 531 995 q 570 983 548 983 q 583 984 576 983 q 602 989 593 985 q 608 991 606 989 l 610 992 l 610 992 l 642 1013 l 649 994 z "},"":{"ha":1025,"x_min":-34,"x_max":1004,"o":"m 543 334 q 584 366 572 340 q 589 383 588 374 q 590 389 590 386 l 590 392 l 588 399 q 502 665 570 524 l 374 372 q 452 349 391 368 q 532 334 503 334 q 543 334 538 334 m 838 -8 q 1004 -138 911 -113 q 910 -176 1001 -138 q 861 -186 885 -186 q 730 -109 794 -186 q 607 266 673 -21 q 526 240 570 240 q 456 254 493 240 q 371 273 406 273 q 327 263 345 273 l 229 58 q 322 14 275 45 l 212 -68 q 113 -36 165 -43 q 77 -34 95 -34 q -34 -56 22 -34 q 9 -1 -19 -29 q 64 40 35 24 q 138 65 100 60 l 440 738 q 357 762 403 762 q 311 757 335 762 q 188 701 257 744 l 189 703 q 195 710 191 706 q 220 736 205 722 q 309 808 263 777 q 426 862 372 850 q 465 867 446 867 q 543 842 509 867 q 644 692 606 797 q 723 358 656 655 q 838 -8 789 60 m 424 1067 q 492 984 439 1032 l 391 909 q 355 939 373 919 q 323 993 335 962 l 424 1067 m 618 1067 q 687 984 633 1032 l 586 909 q 550 939 568 919 q 518 993 530 962 l 618 1067 z "},"":{"ha":1025,"x_min":-34,"x_max":1004,"o":"m 543 334 q 584 366 572 340 q 589 383 588 374 q 590 389 590 386 l 590 392 l 588 399 q 502 665 570 524 l 374 372 q 452 349 391 368 q 532 334 503 334 q 543 334 538 334 m 838 -8 q 1004 -138 911 -113 q 910 -176 1001 -138 q 861 -186 885 -186 q 730 -109 794 -186 q 607 266 673 -21 q 526 240 570 240 q 456 254 493 240 q 371 273 406 273 q 327 263 345 273 l 229 58 q 322 14 275 45 l 212 -68 q 113 -36 165 -43 q 77 -34 95 -34 q -34 -56 22 -34 q 9 -1 -19 -29 q 64 40 35 24 q 138 65 100 60 l 440 738 q 357 762 403 762 q 311 757 335 762 q 188 701 257 744 l 189 703 q 195 710 191 706 q 220 736 205 722 q 309 808 263 777 q 426 862 372 850 q 465 867 446 867 q 543 842 509 867 q 644 692 606 797 q 723 358 656 655 q 838 -8 789 60 m 525 1069 l 524 1070 l 524 1075 q 519 1089 522 1082 q 483 1109 509 1109 l 483 1029 q 484 1025 483 1027 q 488 1011 485 1017 q 525 991 499 991 l 525 1069 m 527 1193 l 553 1170 q 571 1147 565 1158 q 580 1118 580 1133 l 580 978 l 489 910 l 488 910 q 478 914 486 910 q 458 929 468 920 q 431 981 431 955 l 431 1120 l 527 1193 z "},"":{"ha":1002,"x_min":-29,"x_max":985,"o":"m 508 243 q 456 254 482 244 q 371 273 406 273 q 327 263 345 273 l 233 58 q 327 14 279 45 l 216 -68 q 117 -35 170 -42 q 82 -33 100 -33 q -29 -56 26 -33 q 14 0 -14 -28 q 68 41 39 25 q 143 66 104 61 l 440 738 q 357 762 403 762 q 311 757 335 762 q 188 701 257 744 l 189 703 q 195 710 191 706 q 220 736 205 722 q 309 808 263 777 q 426 862 372 850 q 482 866 452 866 q 711 829 574 866 q 850 808 789 808 q 985 846 933 808 q 778 690 929 690 q 661 709 725 690 q 630 572 630 657 q 631 538 630 555 l 639 463 l 672 454 q 755 441 728 441 q 767 442 762 441 q 813 473 801 447 q 820 499 820 487 q 848 433 848 465 q 831 388 848 410 q 748 347 799 347 q 724 349 736 347 q 649 363 657 360 q 651 304 651 332 q 607 80 651 168 q 684 85 645 85 q 932 45 802 85 l 749 -102 q 509 -33 667 -33 q 346 -47 436 -33 q 498 41 397 4 q 513 109 513 69 q 511 136 513 122 l 508 243 m 505 336 q 489 538 489 453 q 502 665 489 614 l 374 372 q 452 349 391 368 q 505 336 483 340 z "},"":{"ha":654,"x_min":5,"x_max":637,"o":"m 355 -61 q 301 -40 313 -45 q 24 256 81 68 q 5 374 5 318 q 6 402 5 389 q 51 543 12 470 q 163 683 85 608 q 233 741 191 709 l 250 753 l 267 767 q 304 791 288 781 q 384 820 347 817 q 395 821 389 821 q 466 803 429 821 q 504 783 483 795 l 522 771 l 540 760 l 541 760 l 541 759 q 544 757 543 758 q 554 751 549 754 q 585 735 570 741 q 620 726 606 726 q 637 736 633 726 l 637 730 q 633 691 637 713 q 565 609 620 609 q 526 617 547 609 q 492 634 511 623 l 476 644 l 460 654 q 394 688 420 682 q 337 696 366 696 q 243 677 292 696 q 174 629 203 663 q 134 553 145 596 q 122 466 122 509 q 127 409 122 437 q 185 274 140 347 q 491 41 279 121 l 591 116 l 620 75 l 414 -81 l 380 -156 q 427 -198 397 -169 q 454 -229 446 -215 q 459 -250 459 -239 l 459 -253 q 452 -278 459 -267 q 433 -296 446 -290 q 412 -300 423 -300 q 397 -298 405 -300 q 366 -286 381 -294 q 320 -247 351 -277 q 290 -216 290 -216 q 292 -216 290 -216 q 340 -231 315 -231 l 342 -231 q 371 -212 371 -229 l 371 -210 q 315 -148 369 -192 l 355 -61 z "},"":{"ha":705,"x_min":0,"x_max":688,"o":"m 380 330 l 382 313 q 385 229 385 284 l 385 205 q 326 102 380 143 q 404 108 363 108 q 677 55 526 108 q 534 -62 539 -62 q 232 -10 397 -10 q 47 -25 143 -10 q 243 92 117 49 q 249 132 249 113 q 248 153 249 143 l 217 428 q 214 467 214 446 q 220 531 214 496 q 252 621 229 581 q 326 703 279 671 l 240 715 q 120 765 197 722 q 0 912 43 808 q 58 876 4 903 q 186 840 111 849 q 356 830 215 836 q 566 793 498 825 q 688 626 634 760 q 393 693 638 671 q 363 550 363 640 q 364 517 363 534 l 370 446 l 372 428 l 399 422 q 482 410 455 410 q 494 411 489 410 q 541 442 528 416 q 547 468 547 456 q 576 402 576 433 q 559 357 576 378 q 476 316 526 316 q 452 318 465 316 q 380 330 395 327 m 298 1115 l 439 957 q 448 938 448 949 q 441 918 448 927 q 422 909 433 911 l 420 909 q 402 916 410 909 l 235 1047 l 298 1115 z "},"":{"ha":705,"x_min":0,"x_max":688,"o":"m 380 330 l 382 313 q 385 229 385 284 l 385 205 q 326 102 380 143 q 404 108 363 108 q 677 55 526 108 q 534 -62 539 -62 q 232 -10 397 -10 q 47 -25 143 -10 q 243 92 117 49 q 249 132 249 113 q 248 153 249 143 l 217 428 q 214 467 214 446 q 220 531 214 496 q 252 621 229 581 q 326 703 279 671 l 240 715 q 120 765 197 722 q 0 912 43 808 q 58 876 4 903 q 186 840 111 849 q 356 830 215 836 q 566 793 498 825 q 688 626 634 760 q 393 693 638 671 q 363 550 363 640 q 364 517 363 534 l 370 446 l 372 428 l 399 422 q 482 410 455 410 q 494 411 489 410 q 541 442 528 416 q 547 468 547 456 q 576 402 576 433 q 559 357 576 378 q 476 316 526 316 q 452 318 465 316 q 380 330 395 327 m 519 1048 l 353 917 q 335 910 345 910 l 333 910 q 314 919 321 911 q 307 939 307 928 q 315 958 307 950 l 457 1116 l 519 1048 z "},"":{"ha":705,"x_min":0,"x_max":688,"o":"m 380 330 l 382 313 q 385 229 385 284 l 385 205 q 326 102 380 143 q 404 108 363 108 q 677 55 526 108 q 534 -62 539 -62 q 232 -10 397 -10 q 47 -25 143 -10 q 243 92 117 49 q 249 132 249 113 q 248 153 249 143 l 217 428 q 214 467 214 446 q 220 531 214 496 q 252 621 229 581 q 326 703 279 671 l 240 715 q 120 765 197 722 q 0 912 43 808 q 58 876 4 903 q 186 840 111 849 q 356 830 215 836 q 566 793 498 825 q 688 626 634 760 q 393 693 638 671 q 363 550 363 640 q 364 517 363 534 l 370 446 l 372 428 l 399 422 q 482 410 455 410 q 494 411 489 410 q 541 442 528 416 q 547 468 547 456 q 576 402 576 433 q 559 357 576 378 q 476 316 526 316 q 452 318 465 316 q 380 330 395 327 m 389 1073 q 507 971 452 986 l 433 909 l 428 909 q 357 964 387 909 l 325 932 l 248 932 l 389 1073 z "},"":{"ha":705,"x_min":0,"x_max":688,"o":"m 380 330 l 382 313 q 385 229 385 284 l 385 205 q 326 102 380 143 q 404 108 363 108 q 677 55 526 108 q 534 -62 539 -62 q 232 -10 397 -10 q 47 -25 143 -10 q 243 92 117 49 q 249 132 249 113 q 248 153 249 143 l 217 428 q 214 467 214 446 q 220 531 214 496 q 252 621 229 581 q 326 703 279 671 l 240 715 q 120 765 197 722 q 0 912 43 808 q 58 876 4 903 q 186 840 111 849 q 356 830 215 836 q 566 793 498 825 q 688 626 634 760 q 393 693 638 671 q 363 550 363 640 q 364 517 363 534 l 370 446 l 372 428 l 399 422 q 482 410 455 410 q 494 411 489 410 q 541 442 528 416 q 547 468 547 456 q 576 402 576 433 q 559 357 576 378 q 476 316 526 316 q 452 318 465 316 q 380 330 395 327 m 303 1067 q 372 984 318 1032 l 271 909 q 235 939 252 919 q 203 993 214 962 l 303 1067 m 498 1067 q 566 984 513 1032 l 465 909 q 429 939 447 919 q 397 993 409 962 l 498 1067 z "},"":{"ha":435,"x_min":0,"x_max":418,"o":"m 87 1046 l 254 916 q 272 909 262 909 l 274 909 q 293 918 286 910 q 300 937 300 926 q 292 956 300 949 l 151 1114 l 87 1046 m 242 60 q 304 142 269 85 q 325 250 325 176 q 306 425 325 319 q 296 532 296 479 q 387 853 296 694 q 261 806 315 806 q 161 864 200 806 l 0 737 q 153 693 81 693 q 203 699 179 693 q 149 562 152 637 q 148 530 148 547 q 157 450 148 492 q 182 288 169 391 q 189 182 189 236 q 184 95 189 139 q 19 -26 118 92 q 54 -1 19 -24 q 92 12 73 12 q 123 2 108 12 q 117 0 119 1 q 123 1 120 1 q 130 -3 127 -1 q 161 -29 144 -15 l 174 -42 q 187 -54 181 -49 q 232 -68 207 -68 q 255 -65 243 -68 q 286 -55 267 -63 q 308 -42 298 -50 l 418 38 q 325 18 358 18 q 295 24 305 18 l 243 58 l 242 60 z "},"":{"ha":435,"x_min":0,"x_max":418,"o":"m 309 1116 l 167 958 q 158 939 158 950 q 165 919 158 928 q 184 910 173 911 l 186 910 q 204 917 196 910 l 371 1048 l 309 1116 m 242 60 q 304 142 269 85 q 325 250 325 176 q 306 425 325 319 q 296 532 296 479 q 387 853 296 694 q 261 806 315 806 q 161 864 200 806 l 0 737 q 153 693 81 693 q 203 699 179 693 q 149 562 152 637 q 148 530 148 547 q 157 450 148 492 q 182 288 169 391 q 189 182 189 236 q 184 95 189 139 q 19 -26 118 92 q 54 -1 19 -24 q 92 12 73 12 q 123 2 108 12 q 117 0 119 1 q 123 1 120 1 q 130 -3 127 -1 q 161 -29 144 -15 l 174 -42 q 187 -54 181 -49 q 232 -68 207 -68 q 255 -65 243 -68 q 286 -55 267 -63 q 308 -42 298 -50 l 418 38 q 325 18 358 18 q 295 24 305 18 l 243 58 l 242 60 z "},"":{"ha":435,"x_min":0,"x_max":418,"o":"m 240 1073 l 100 932 l 176 932 l 209 964 q 279 909 238 909 l 285 909 l 359 971 q 240 1073 304 986 m 242 60 q 304 142 269 85 q 325 250 325 176 q 306 425 325 319 q 296 532 296 479 q 387 853 296 694 q 261 806 315 806 q 161 864 200 806 l 0 737 q 153 693 81 693 q 203 699 179 693 q 149 562 152 637 q 148 530 148 547 q 157 450 148 492 q 182 288 169 391 q 189 182 189 236 q 184 95 189 139 q 19 -26 118 92 q 54 -1 19 -24 q 92 12 73 12 q 123 2 108 12 q 117 0 119 1 q 123 1 120 1 q 130 -3 127 -1 q 161 -29 144 -15 l 174 -42 q 187 -54 181 -49 q 232 -68 207 -68 q 255 -65 243 -68 q 286 -55 267 -63 q 308 -42 298 -50 l 418 38 q 325 18 358 18 q 295 24 305 18 l 243 58 l 242 60 z "},"":{"ha":435,"x_min":0,"x_max":418,"o":"m 47 993 q 79 939 59 962 q 115 909 97 919 l 216 984 q 148 1067 163 1032 l 47 993 m 242 993 q 274 939 254 962 q 310 909 292 919 l 411 984 q 342 1067 357 1032 l 242 993 m 242 60 q 304 142 269 85 q 325 250 325 176 q 306 425 325 319 q 296 532 296 479 q 387 853 296 694 q 261 806 315 806 q 161 864 200 806 l 0 737 q 153 693 81 693 q 203 699 179 693 q 149 562 152 637 q 148 530 148 547 q 157 450 148 492 q 182 288 169 391 q 189 182 189 236 q 184 95 189 139 q 19 -26 118 92 q 54 -1 19 -24 q 92 12 73 12 q 123 2 108 12 q 117 0 119 1 q 123 1 120 1 q 130 -3 127 -1 q 161 -29 144 -15 l 174 -42 q 187 -54 181 -49 q 232 -68 207 -68 q 255 -65 243 -68 q 286 -55 267 -63 q 308 -42 298 -50 l 418 38 q 325 18 358 18 q 295 24 305 18 l 243 58 l 242 60 z "},"":{"ha":790,"x_min":0,"x_max":752,"o":"m 486 465 l 445 379 l 376 379 l 376 374 l 379 344 l 382 313 q 385 261 385 284 l 385 252 q 355 136 382 183 q 326 89 336 103 q 347 90 336 90 q 538 52 441 90 q 612 163 602 108 q 618 248 618 200 q 601 429 618 325 l 597 456 l 592 484 q 579 540 586 516 q 528 639 562 603 q 485 671 511 657 q 434 688 457 686 l 393 693 q 363 550 363 640 q 364 517 363 534 l 369 465 l 486 465 m 214 465 q 220 531 214 496 q 252 621 229 581 q 326 703 279 671 l 240 715 q 146 751 197 722 q 0 912 43 808 q 26 891 4 903 q 43 883 33 888 l 51 880 q 56 877 54 878 q 186 840 111 849 q 253 833 215 836 l 287 832 l 321 831 q 581 776 498 825 q 683 680 641 740 q 743 505 728 615 q 752 391 752 445 q 699 156 752 255 q 639 78 677 117 q 566 13 615 54 q 548 -3 564 12 q 533 -16 539 -10 l 516 -31 q 469 -68 473 -68 l 469 -68 q 359 -23 431 -41 q 214 -5 290 -5 q 47 -25 134 -5 q 243 78 117 49 q 249 125 249 99 q 248 153 249 138 l 222 379 l 94 379 l 136 465 l 214 465 z "},"":{"ha":763,"x_min":1,"x_max":746,"o":"m 696 90 q 722 24 696 52 q 746 3 734 9 l 645 -72 l 644 -71 l 642 -70 l 640 -68 q 636 -69 637 -69 q 534 -9 582 -61 q 465 92 502 26 q 262 505 399 208 l 262 97 q 311 9 262 39 l 211 -65 l 210 -64 l 210 -64 q 138 69 138 -12 l 139 645 q 118 723 139 696 q 59 751 97 751 q 1 723 27 751 l 1 725 q 15 776 1 751 q 50 812 28 799 q 119 828 78 828 q 277 727 249 825 l 573 121 l 573 671 q 549 737 573 709 q 524 758 536 751 l 625 833 l 625 832 l 627 831 l 628 831 l 631 829 l 635 827 q 648 819 642 823 q 661 807 654 813 q 686 774 677 792 q 697 726 697 751 l 696 90 m 542 960 l 454 896 q 436 886 446 890 q 412 878 424 880 q 393 876 402 876 q 357 887 373 876 q 347 896 353 890 l 336 907 q 311 927 321 920 q 276 941 292 941 q 260 937 267 941 q 252 932 258 937 q 239 923 245 928 q 222 909 222 911 l 216 928 l 290 982 q 323 1002 304 994 q 347 1007 336 1007 q 355 1006 351 1007 q 382 992 366 1004 l 402 977 l 424 962 q 463 949 441 949 q 476 951 469 949 q 495 956 486 952 q 501 958 498 956 l 503 959 l 535 979 l 542 960 z "},"":{"ha":819,"x_min":5,"x_max":800,"o":"m 659 259 q 667 340 667 301 q 633 486 667 418 q 409 688 570 612 q 365 701 394 695 q 340 702 353 702 q 246 684 294 702 q 177 637 206 670 q 137 562 149 604 q 125 477 125 518 q 131 421 125 448 q 189 288 144 359 q 494 60 283 139 q 659 259 640 174 m 777 556 q 800 433 799 495 l 800 425 q 779 309 800 363 q 424 -80 723 153 q 372 -62 419 -80 q 309 -38 322 -44 q 135 83 206 12 q 24 259 55 162 q 5 379 5 323 q 6 407 5 393 q 52 549 13 475 q 168 689 87 614 q 268 765 196 715 q 355 819 339 815 q 365 820 359 820 q 457 808 389 820 q 623 741 543 793 q 777 556 736 666 m 323 1094 l 465 936 q 473 917 473 928 q 466 897 473 906 q 447 888 458 890 l 445 888 q 427 895 435 888 l 260 1026 l 323 1094 z "},"":{"ha":819,"x_min":5,"x_max":800,"o":"m 659 259 q 667 340 667 301 q 633 486 667 418 q 409 688 570 612 q 365 701 394 695 q 340 702 353 702 q 246 684 294 702 q 177 637 206 670 q 137 562 149 604 q 125 477 125 518 q 131 421 125 448 q 189 288 144 359 q 494 60 283 139 q 659 259 640 174 m 777 556 q 800 433 799 495 l 800 425 q 779 309 800 363 q 424 -80 723 153 q 372 -62 419 -80 q 309 -38 322 -44 q 135 83 206 12 q 24 259 55 162 q 5 379 5 323 q 6 407 5 393 q 52 549 13 475 q 168 689 87 614 q 268 765 196 715 q 355 819 339 815 q 365 820 359 820 q 457 808 389 820 q 623 741 543 793 q 777 556 736 666 m 545 1028 l 378 897 q 360 890 370 890 l 358 890 q 339 899 347 892 q 332 919 332 908 q 340 938 332 930 l 482 1096 l 545 1028 z "},"":{"ha":819,"x_min":5,"x_max":800,"o":"m 659 259 q 667 340 667 301 q 633 486 667 418 q 409 688 570 612 q 365 701 394 695 q 340 702 353 702 q 246 684 294 702 q 177 637 206 670 q 137 562 149 604 q 125 477 125 518 q 131 421 125 448 q 189 288 144 359 q 494 60 283 139 q 659 259 640 174 m 777 556 q 800 433 799 495 l 800 425 q 779 309 800 363 q 424 -80 723 153 q 372 -62 419 -80 q 309 -38 322 -44 q 135 83 206 12 q 24 259 55 162 q 5 379 5 323 q 6 407 5 393 q 52 549 13 475 q 168 689 87 614 q 268 765 196 715 q 355 819 339 815 q 365 820 359 820 q 457 808 389 820 q 623 741 543 793 q 777 556 736 666 m 414 1053 q 532 951 477 966 l 458 889 l 453 889 q 382 944 412 889 l 350 911 l 273 911 l 414 1053 z "},"":{"ha":819,"x_min":5,"x_max":800,"o":"m 659 259 q 667 340 667 301 q 633 486 667 418 q 409 688 570 612 q 365 701 394 695 q 340 702 353 702 q 246 684 294 702 q 177 637 206 670 q 137 562 149 604 q 125 477 125 518 q 131 421 125 448 q 189 288 144 359 q 494 60 283 139 q 659 259 640 174 m 777 556 q 800 433 799 495 l 800 425 q 779 309 800 363 q 424 -80 723 153 q 372 -62 419 -80 q 309 -38 322 -44 q 135 83 206 12 q 24 259 55 162 q 5 379 5 323 q 6 407 5 393 q 52 549 13 475 q 168 689 87 614 q 268 765 196 715 q 355 819 339 815 q 365 820 359 820 q 457 808 389 820 q 623 741 543 793 q 777 556 736 666 m 566 973 l 478 909 q 460 899 469 903 q 435 890 448 893 q 418 888 426 888 q 381 900 397 888 q 371 909 377 903 l 360 920 q 336 940 345 933 q 300 954 316 954 q 283 950 291 954 q 277 945 282 949 q 263 936 270 941 q 246 922 246 923 l 239 941 l 313 995 q 347 1015 328 1007 q 370 1020 360 1020 q 379 1019 375 1020 q 406 1005 390 1017 l 427 989 l 448 975 q 487 962 465 962 q 500 964 494 962 q 519 968 510 965 q 526 970 523 969 l 527 972 l 528 972 l 559 992 l 566 973 z "},"":{"ha":819,"x_min":5,"x_max":800,"o":"m 659 259 q 667 340 667 301 q 633 486 667 418 q 409 688 570 612 q 365 701 394 695 q 340 702 353 702 q 246 684 294 702 q 177 637 206 670 q 137 562 149 604 q 125 477 125 518 q 131 421 125 448 q 189 288 144 359 q 494 60 283 139 q 659 259 640 174 m 777 556 q 800 433 799 495 l 800 425 q 779 309 800 363 q 424 -80 723 153 q 372 -62 419 -80 q 309 -38 322 -44 q 135 83 206 12 q 24 259 55 162 q 5 379 5 323 q 6 407 5 393 q 52 549 13 475 q 168 689 87 614 q 268 765 196 715 q 355 819 339 815 q 365 820 359 820 q 457 808 389 820 q 623 741 543 793 q 777 556 736 666 m 321 1046 q 389 963 336 1011 l 288 888 q 252 918 270 898 q 220 972 232 941 l 321 1046 m 515 1046 q 584 963 530 1011 l 483 888 q 447 918 465 898 q 415 972 427 941 l 515 1046 z "},"":{"ha":311,"x_min":0,"x_max":294,"o":"m 29 316 l 28 317 l 86 374 l 29 431 l 0 460 l 60 521 l 61 522 l 147 435 l 233 522 l 234 521 l 294 460 l 265 431 l 208 374 l 266 317 l 265 316 l 294 287 l 234 227 l 147 313 l 60 227 l 0 287 l 29 316 z "},"":{"ha":819,"x_min":5,"x_max":800,"o":"m 249 212 q 494 60 340 117 q 659 259 640 174 q 667 340 667 301 q 633 486 667 418 q 600 541 619 514 l 249 212 m 565 581 q 409 688 504 644 q 365 701 394 695 q 340 702 353 702 q 246 684 294 702 q 177 637 206 670 q 137 562 149 604 q 125 477 125 518 q 131 421 125 448 q 189 288 144 359 q 214 253 200 270 l 565 581 m 721 653 q 777 556 757 609 q 800 433 799 495 l 800 425 q 779 309 800 363 q 424 -80 723 153 q 372 -62 419 -80 q 309 -38 322 -44 q 135 83 206 12 q 123 94 129 89 l 62 37 l 26 77 l 88 136 q 24 259 45 193 q 5 379 5 323 q 6 407 5 393 q 52 549 13 475 q 168 689 87 614 q 268 765 196 715 q 355 819 339 815 q 365 820 359 820 q 457 808 389 820 q 623 741 543 793 q 684 693 656 718 l 743 748 l 779 708 l 721 653 z "},"":{"ha":643,"x_min":14,"x_max":626,"o":"m 454 95 l 452 95 q 199 -96 201 -97 q 94 -5 137 -58 q 16 199 29 74 q 14 238 14 218 q 100 495 14 363 l 111 511 l 123 527 q 146 561 138 548 q 169 628 169 597 l 169 635 q 147 672 168 656 q 109 687 128 687 l 106 687 q 62 667 78 686 q 51 637 51 653 q 55 615 51 627 l 54 615 l 54 616 q 52 618 53 617 q 43 628 47 623 q 34 642 38 635 q 26 659 28 650 q 19 700 19 680 q 32 748 19 726 q 110 795 54 785 q 132 798 121 798 q 180 785 159 798 q 298 699 220 762 l 267 661 q 203 549 236 621 q 155 397 163 462 q 152 338 152 366 q 174 202 152 266 q 297 35 210 101 l 452 150 l 452 664 q 428 730 452 703 q 404 751 416 745 l 504 826 l 505 826 l 506 825 l 507 825 l 511 823 l 515 820 q 527 812 521 817 q 540 801 534 806 q 565 767 556 785 q 576 719 576 745 l 577 97 q 626 9 577 39 l 526 -65 l 525 -64 l 524 -64 q 454 69 454 -12 l 454 95 m 241 1080 l 382 922 q 391 903 391 915 q 384 884 391 892 q 364 876 376 876 l 362 876 q 345 882 353 876 l 178 1013 l 241 1080 z "},"":{"ha":643,"x_min":14,"x_max":626,"o":"m 454 95 l 452 95 q 199 -96 201 -97 q 94 -5 137 -58 q 16 199 29 74 q 14 238 14 218 q 100 495 14 363 l 111 511 l 123 527 q 146 561 138 548 q 169 628 169 597 l 169 635 q 147 672 168 656 q 109 687 128 687 l 106 687 q 62 667 78 686 q 51 637 51 653 q 55 615 51 627 l 54 615 l 54 616 q 52 618 53 617 q 43 628 47 623 q 34 642 38 635 q 26 659 28 650 q 19 700 19 680 q 32 748 19 726 q 110 795 54 785 q 132 798 121 798 q 180 785 159 798 q 298 699 220 762 l 267 661 q 203 549 236 621 q 155 397 163 462 q 152 338 152 366 q 174 202 152 266 q 297 35 210 101 l 452 150 l 452 664 q 428 730 452 703 q 404 751 416 745 l 504 826 l 505 826 l 506 825 l 507 825 l 511 823 l 515 820 q 527 812 521 817 q 540 801 534 806 q 565 767 556 785 q 576 719 576 745 l 577 97 q 626 9 577 39 l 526 -65 l 525 -64 l 524 -64 q 454 69 454 -12 l 454 95 m 462 1013 l 294 883 q 277 876 287 876 l 275 876 q 256 885 264 877 q 249 904 249 893 q 257 923 249 916 l 399 1081 l 462 1013 z "},"":{"ha":643,"x_min":14,"x_max":626,"o":"m 454 95 l 452 95 q 199 -96 201 -97 q 94 -5 137 -58 q 16 199 29 74 q 14 238 14 218 q 100 495 14 363 l 111 511 l 123 527 q 146 561 138 548 q 169 628 169 597 l 169 635 q 147 672 168 656 q 109 687 128 687 l 106 687 q 62 667 78 686 q 51 637 51 653 q 55 615 51 627 l 54 615 l 54 616 q 52 618 53 617 q 43 628 47 623 q 34 642 38 635 q 26 659 28 650 q 19 700 19 680 q 32 748 19 726 q 110 795 54 785 q 132 798 121 798 q 180 785 159 798 q 298 699 220 762 l 267 661 q 203 549 236 621 q 155 397 163 462 q 152 338 152 366 q 174 202 152 266 q 297 35 210 101 l 452 150 l 452 664 q 428 730 452 703 q 404 751 416 745 l 504 826 l 505 826 l 506 825 l 507 825 l 511 823 l 515 820 q 527 812 521 817 q 540 801 534 806 q 565 767 556 785 q 576 719 576 745 l 577 97 q 626 9 577 39 l 526 -65 l 525 -64 l 524 -64 q 454 69 454 -12 l 454 95 m 330 1040 q 449 938 394 953 l 375 876 l 370 876 q 299 931 328 876 l 267 899 l 190 899 l 330 1040 z "},"":{"ha":643,"x_min":14,"x_max":626,"o":"m 454 95 l 452 95 q 199 -96 201 -97 q 94 -5 137 -58 q 16 199 29 74 q 14 238 14 218 q 100 495 14 363 l 111 511 l 123 527 q 146 561 138 548 q 169 628 169 597 l 169 635 q 147 672 168 656 q 109 687 128 687 l 106 687 q 62 667 78 686 q 51 637 51 653 q 55 615 51 627 l 54 615 l 54 616 q 52 618 53 617 q 43 628 47 623 q 34 642 38 635 q 26 659 28 650 q 19 700 19 680 q 32 748 19 726 q 110 795 54 785 q 132 798 121 798 q 180 785 159 798 q 298 699 220 762 l 267 661 q 203 549 236 621 q 155 397 163 462 q 152 338 152 366 q 174 202 152 266 q 297 35 210 101 l 452 150 l 452 664 q 428 730 452 703 q 404 751 416 745 l 504 826 l 505 826 l 506 825 l 507 825 l 511 823 l 515 820 q 527 812 521 817 q 540 801 534 806 q 565 767 556 785 q 576 719 576 745 l 577 97 q 626 9 577 39 l 526 -65 l 525 -64 l 524 -64 q 454 69 454 -12 l 454 95 m 238 1034 q 307 951 253 999 l 205 876 q 170 905 187 886 q 138 960 149 929 l 238 1034 m 433 1034 q 501 951 448 999 l 400 876 q 364 905 382 886 q 332 960 344 929 l 433 1034 z "},"":{"ha":686,"x_min":9,"x_max":669,"o":"m 423 460 l 423 439 q 425 372 423 408 l 427 328 l 431 284 l 444 149 l 298 38 q 176 205 211 104 q 153 340 153 269 q 157 399 153 369 q 204 551 164 465 q 269 663 237 624 l 299 702 q 182 787 220 765 q 134 800 160 800 q 111 798 123 800 q 33 751 56 788 q 20 703 20 730 q 27 661 20 684 q 35 644 30 653 q 45 631 39 637 q 53 621 49 626 q 55 619 54 620 l 56 618 l 56 618 q 52 640 52 629 q 63 670 52 656 q 108 690 79 689 l 109 690 q 142 675 129 690 q 155 638 155 660 q 134 564 155 603 q 115 530 127 549 l 104 514 l 94 498 q 14 248 14 378 q 17 201 14 225 q 95 -1 31 77 q 200 -92 138 -55 l 201 -92 q 232 -71 205 -92 q 260 -48 243 -62 l 275 -36 l 289 -24 l 448 97 l 454 33 l 454 29 q 455 7 455 19 q 454 -20 455 -5 q 452 -83 454 -53 q 442 -196 449 -163 l 441 -199 q 322 -184 378 -184 q 115 -258 197 -184 q 9 -375 41 -312 q 197 -319 113 -324 q 224 -318 211 -318 q 350 -334 289 -318 l 391 -302 q 421 -279 401 -293 l 452 -255 q 510 -203 490 -227 q 568 -1 564 -142 q 568 50 568 23 q 565 168 568 104 l 562 208 l 559 248 l 555 328 q 552 418 552 374 q 576 654 552 551 q 645 812 600 760 q 656 823 652 819 q 669 832 662 829 q 489 682 554 782 q 423 460 425 584 m 418 1031 l 277 873 q 268 854 268 865 q 275 834 268 843 q 294 825 283 827 l 296 825 q 314 832 306 825 l 481 963 l 418 1031 z "},"":{"ha":766,"x_min":0,"x_max":747,"o":"m 237 753 q 435 918 288 894 q 389 880 411 914 q 351 743 357 831 l 358 742 q 418 736 396 739 q 536 711 488 727 q 688 610 632 679 q 747 440 746 538 l 747 435 q 698 271 747 339 q 566 146 667 230 q 548 130 564 144 q 533 117 539 122 l 516 102 q 469 65 473 65 l 469 65 q 359 109 431 91 q 357 110 358 110 q 341 68 351 87 q 288 -21 310 3 q 191 -71 251 -62 q 222 -42 207 -65 q 240 6 235 -22 q 245 56 245 29 q 243 87 245 71 l 241 126 q 227 127 234 127 l 212 127 q 47 107 132 127 q 178 190 93 156 q 237 209 207 201 l 216 564 q 213 610 213 587 q 214 637 213 623 q 146 667 182 647 q 67 727 101 692 q 0 828 24 770 q 26 807 4 819 q 43 799 33 804 l 51 795 q 56 793 55 793 q 175 761 99 771 q 237 753 199 757 m 352 615 q 368 222 366 302 q 538 185 451 218 q 608 296 589 229 q 620 374 620 335 q 614 428 620 401 q 556 543 600 496 q 434 604 507 593 l 352 615 z "},"":{"ha":492,"x_min":0,"x_max":473,"o":"m 419 619 q 387 541 419 569 l 296 463 q 275 429 275 445 q 296 397 275 412 l 366 349 q 468 243 460 295 q 473 186 473 212 q 472 165 473 176 q 441 97 467 123 q 412 75 439 95 q 332 14 380 51 q 289 0 313 0 q 222 23 259 0 q 186 50 201 36 l 283 131 q 334 101 306 109 q 348 99 342 99 q 376 115 367 99 q 379 125 378 119 l 380 130 l 380 135 q 380 143 380 139 q 379 155 380 149 q 292 254 367 216 q 218 306 237 291 q 166 393 166 351 q 203 468 166 436 l 273 531 q 291 571 291 549 q 273 618 291 593 q 136 669 237 669 l 124 669 l 124 162 q 149 96 124 124 q 173 75 161 81 l 73 1 l 71 1 l 71 1 l 69 2 l 66 4 l 61 7 q 50 14 56 10 q 37 26 43 20 q 12 59 20 41 q 0 107 0 82 l 0 638 l 271 825 q 360 751 344 766 q 394 709 376 736 q 419 619 419 670 z "},"":{"ha":418,"x_min":0,"x_max":401,"o":"m 229 441 q 190 493 229 471 q 125 390 125 445 l 125 146 q 164 95 125 117 l 229 142 l 229 441 m 352 150 q 360 119 352 134 q 376 95 366 106 q 401 75 389 82 l 300 0 q 258 43 275 14 q 236 94 245 65 l 110 0 q 4 119 18 36 l 3 119 q 0 150 1 132 l 1 150 l 1 382 q 39 458 1 418 q 122 524 68 491 q 243 588 183 563 q 330 521 303 565 q 352 440 352 486 l 352 150 m 121 847 l 263 689 q 272 670 272 682 q 264 650 272 659 q 245 642 257 643 l 243 642 q 226 648 234 642 l 59 779 l 121 847 z "},"":{"ha":418,"x_min":0,"x_max":401,"o":"m 229 441 q 190 493 229 471 q 125 390 125 445 l 125 146 q 164 95 125 117 l 229 142 l 229 441 m 352 150 q 360 119 352 134 q 376 95 366 106 q 401 75 389 82 l 300 0 q 258 43 275 14 q 236 94 245 65 l 110 0 q 4 119 18 36 l 3 119 q 0 150 1 132 l 1 150 l 1 382 q 39 458 1 418 q 122 524 68 491 q 243 588 183 563 q 330 521 303 565 q 352 440 352 486 l 352 150 m 342 778 l 176 647 q 158 640 168 640 l 156 640 q 137 649 144 642 q 130 669 130 658 q 138 688 130 680 l 280 846 l 342 778 z "},"":{"ha":418,"x_min":0,"x_max":401,"o":"m 229 441 q 190 493 229 471 q 125 390 125 445 l 125 146 q 164 95 125 117 l 229 142 l 229 441 m 352 150 q 360 119 352 134 q 376 95 366 106 q 401 75 389 82 l 300 0 q 258 43 275 14 q 236 94 245 65 l 110 0 q 4 119 18 36 l 3 119 q 0 150 1 132 l 1 150 l 1 382 q 39 458 1 418 q 122 524 68 491 q 243 588 183 563 q 330 521 303 565 q 352 440 352 486 l 352 150 m 214 806 q 333 704 278 719 l 258 642 l 253 642 q 183 697 212 642 l 151 665 l 74 665 l 214 806 z "},"":{"ha":418,"x_min":0,"x_max":401,"o":"m 229 441 q 190 493 229 471 q 125 390 125 445 l 125 146 q 164 95 125 117 l 229 142 l 229 441 m 352 150 q 360 119 352 134 q 376 95 366 106 q 401 75 389 82 l 300 0 q 258 43 275 14 q 236 94 245 65 l 110 0 q 4 119 18 36 l 3 119 q 0 150 1 132 l 1 150 l 1 382 q 39 458 1 418 q 122 524 68 491 q 243 588 183 563 q 330 521 303 565 q 352 440 352 486 l 352 150 m 364 726 l 276 662 q 258 652 267 656 q 234 644 245 646 q 216 642 224 642 q 179 653 195 642 q 169 662 175 656 l 158 673 q 134 693 143 686 q 98 707 114 707 q 81 703 89 707 q 75 698 80 703 q 61 689 68 694 q 45 675 45 677 l 37 694 l 111 748 q 145 768 126 760 q 168 773 158 773 q 177 772 173 773 q 203 758 188 770 l 224 743 l 246 728 q 285 715 263 715 q 298 717 292 715 q 317 722 308 718 q 323 724 321 722 l 325 725 l 326 725 l 357 745 l 364 726 z "},"":{"ha":418,"x_min":0,"x_max":401,"o":"m 229 441 q 190 493 229 471 q 125 390 125 445 l 125 146 q 164 95 125 117 l 229 142 l 229 441 m 352 150 q 360 119 352 134 q 376 95 366 106 q 401 75 389 82 l 300 0 q 258 43 275 14 q 236 94 245 65 l 110 0 q 4 119 18 36 l 3 119 q 0 150 1 132 l 1 150 l 1 382 q 39 458 1 418 q 122 524 68 491 q 243 588 183 563 q 330 521 303 565 q 352 440 352 486 l 352 150 m 119 785 q 188 702 134 750 l 87 627 q 51 656 68 637 q 19 711 31 680 l 119 785 m 314 785 q 382 702 329 750 l 281 627 q 245 656 263 637 q 214 711 225 680 l 314 785 z "},"":{"ha":418,"x_min":0,"x_max":401,"o":"m 229 441 q 190 493 229 471 q 125 390 125 445 l 125 146 q 164 95 125 117 l 229 142 l 229 441 m 352 150 q 360 119 352 134 q 376 95 366 106 q 401 75 389 82 l 300 0 q 258 43 275 14 q 236 94 245 65 l 110 0 q 4 119 18 36 l 3 119 q 0 150 1 132 l 1 150 l 1 382 q 39 458 1 418 q 122 524 68 491 q 243 588 183 563 q 330 521 303 565 q 352 440 352 486 l 352 150 m 220 753 l 220 755 q 219 760 220 757 q 214 774 218 767 q 178 793 203 793 l 178 714 q 179 709 178 712 q 184 696 180 702 q 220 675 195 675 l 220 753 m 222 878 l 249 854 q 267 832 260 842 q 275 802 275 817 l 275 663 l 184 595 l 184 595 q 174 599 181 595 q 154 614 163 605 q 126 665 126 640 l 126 805 l 222 878 z "},"":{"ha":616,"x_min":0,"x_max":600,"o":"m 389 509 q 358 372 358 456 q 364 292 358 335 l 481 381 l 389 509 m 229 329 l 138 260 q 125 229 125 248 q 125 148 125 209 l 125 146 q 165 95 125 117 l 229 142 l 229 329 m 330 524 q 459 600 378 578 l 595 412 l 591 409 l 373 241 q 391 196 380 218 q 429 145 407 166 q 551 101 477 101 q 600 106 574 101 l 461 0 q 443 2 452 1 q 418 7 431 4 q 359 36 386 17 q 288 123 313 68 l 111 0 q 5 119 19 36 l 4 119 q 0 165 0 140 q 22 230 1 214 l 229 384 l 229 441 q 190 493 229 471 l 58 395 l 56 393 q 10 460 16 427 q 9 470 9 465 q 24 513 9 492 q 81 560 45 543 q 78 536 78 548 q 83 512 78 524 q 102 483 88 496 l 244 588 q 330 524 301 566 z "},"":{"ha":371,"x_min":8,"x_max":354,"o":"m 157 13 q 113 36 134 22 q 15 212 36 90 q 8 287 8 249 q 18 380 8 332 q 74 509 33 457 q 214 597 125 574 l 298 480 l 211 414 l 143 507 q 113 372 113 454 q 123 261 113 321 q 161 170 130 214 q 305 101 212 101 q 354 105 328 101 l 222 5 l 195 -59 q 243 -101 212 -72 q 269 -132 261 -118 q 275 -154 275 -142 l 275 -156 q 268 -181 275 -170 q 249 -199 261 -193 q 228 -203 239 -203 q 212 -201 220 -203 q 182 -189 197 -197 q 136 -150 167 -180 q 105 -119 105 -119 q 106 -119 106 -119 q 155 -134 131 -134 l 157 -134 q 186 -115 186 -132 l 186 -113 q 130 -51 184 -95 l 157 13 z "},"":{"ha":371,"x_min":8,"x_max":354,"o":"m 143 509 q 113 372 113 456 q 119 292 113 335 l 235 381 l 143 509 m 127 241 q 145 196 134 218 q 184 145 161 166 q 305 101 232 101 q 354 106 328 101 l 216 0 q 197 2 207 1 q 173 7 185 4 q 113 36 140 17 q 15 213 36 90 q 8 288 8 250 q 18 381 8 334 q 214 600 53 557 l 349 412 l 346 409 l 127 241 m 102 847 l 243 689 q 252 670 252 682 q 245 650 252 659 q 226 642 237 643 l 224 642 q 206 648 214 642 l 39 779 l 102 847 z "},"":{"ha":371,"x_min":8,"x_max":354,"o":"m 143 509 q 113 372 113 456 q 119 292 113 335 l 235 381 l 143 509 m 127 241 q 145 196 134 218 q 184 145 161 166 q 305 101 232 101 q 354 106 328 101 l 216 0 q 197 2 207 1 q 173 7 185 4 q 113 36 140 17 q 15 213 36 90 q 8 288 8 250 q 18 381 8 334 q 214 600 53 557 l 349 412 l 346 409 l 127 241 m 323 778 l 156 647 q 138 640 148 640 l 136 640 q 117 649 125 642 q 110 669 110 658 q 119 688 110 680 l 260 846 l 323 778 z "},"":{"ha":371,"x_min":8,"x_max":354,"o":"m 143 509 q 113 372 113 456 q 119 292 113 335 l 235 381 l 143 509 m 127 241 q 145 196 134 218 q 184 145 161 166 q 305 101 232 101 q 354 106 328 101 l 216 0 q 197 2 207 1 q 173 7 185 4 q 113 36 140 17 q 15 213 36 90 q 8 288 8 250 q 18 381 8 334 q 214 600 53 557 l 349 412 l 346 409 l 127 241 m 195 806 q 313 704 258 719 l 239 642 l 233 642 q 163 697 193 642 l 131 665 l 54 665 l 195 806 z "},"":{"ha":382,"x_min":2,"x_max":366,"o":"m 143 509 q 113 372 113 456 q 119 292 113 335 l 235 381 l 143 509 m 127 241 q 145 196 134 218 q 184 145 161 166 q 305 101 232 101 q 354 106 328 101 l 216 0 q 197 2 207 1 q 173 7 185 4 q 113 36 140 17 q 15 213 36 90 q 8 288 8 250 q 18 381 8 334 q 214 600 53 557 l 349 412 l 346 409 l 127 241 m 102 785 q 171 702 117 750 l 70 627 q 34 656 52 637 q 2 711 14 680 l 102 785 m 297 785 q 366 702 312 750 l 264 627 q 229 656 246 637 q 197 711 208 680 l 297 785 z "},"":{"ha":239,"x_min":-7,"x_max":222,"o":"m 173 162 q 197 96 173 123 q 222 75 210 81 l 121 0 l 120 1 l 119 1 l 118 1 l 115 3 l 110 6 q 98 14 104 10 q 85 26 92 20 q 60 59 69 41 q 49 107 49 81 l 49 424 q 24 490 49 463 q 0 511 12 505 l 100 586 l 101 586 l 102 585 l 104 585 l 107 583 l 112 580 q 123 572 117 576 q 136 561 130 566 q 161 528 153 545 q 173 479 173 505 l 173 162 m 56 847 l 197 689 q 206 670 206 682 q 199 650 206 659 q 180 642 191 643 l 178 642 q 160 648 168 642 l -7 779 l 56 847 z "},"":{"ha":239,"x_min":0,"x_max":222,"o":"m 173 162 q 197 96 173 123 q 222 75 210 81 l 121 0 l 120 1 l 119 1 l 118 1 l 115 3 l 110 6 q 98 14 104 10 q 85 26 92 20 q 60 59 69 41 q 49 107 49 81 l 49 424 q 24 490 49 463 q 0 511 12 505 l 100 586 l 101 586 l 102 585 l 104 585 l 107 583 l 112 580 q 123 572 117 576 q 136 561 130 566 q 161 528 153 545 q 173 479 173 505 l 173 162 m 219 778 l 52 647 q 35 640 44 640 l 33 640 q 14 649 21 642 q 6 669 6 658 q 14 688 6 680 l 156 846 l 219 778 z "},"":{"ha":239,"x_min":0,"x_max":259,"o":"m 173 162 q 197 96 173 123 q 222 75 210 81 l 121 0 l 120 1 l 119 1 l 118 1 l 115 3 l 110 6 q 98 14 104 10 q 85 26 92 20 q 60 59 69 41 q 49 107 49 81 l 49 424 q 24 490 49 463 q 0 511 12 505 l 100 586 l 101 586 l 102 585 l 104 585 l 107 583 l 112 580 q 123 572 117 576 q 136 561 130 566 q 161 528 153 545 q 173 479 173 505 l 173 162 m 140 806 q 259 704 204 719 l 185 642 l 180 642 q 109 697 138 642 l 77 665 l 0 665 l 140 806 z "},"":{"ha":238,"x_min":-68,"x_max":295,"o":"m 173 162 q 197 96 173 123 q 222 75 210 81 l 121 0 l 120 1 l 119 1 l 118 1 l 115 3 l 110 6 q 98 14 104 10 q 85 26 92 20 q 60 59 69 41 q 49 107 49 81 l 49 424 q 24 490 49 463 q 0 511 12 505 l 100 586 l 101 586 l 102 585 l 104 585 l 107 583 l 112 580 q 123 572 117 576 q 136 561 130 566 q 161 528 153 545 q 173 479 173 505 l 173 162 m 32 785 q 100 702 47 750 l -1 627 q -37 656 -19 637 q -68 711 -57 680 l 32 785 m 227 785 q 295 702 241 750 l 194 627 q 158 656 176 637 q 126 711 138 680 l 227 785 z "},"":{"ha":418,"x_min":0,"x_max":401,"o":"m 229 441 q 190 493 229 470 q 125 390 125 445 l 125 146 q 164 95 125 117 l 229 142 l 229 441 m 306 737 q 328 692 319 717 q 347 600 342 650 q 352 479 352 550 l 352 150 q 360 119 352 134 q 376 95 366 106 q 401 75 389 82 l 300 0 q 258 43 275 14 q 236 94 245 65 l 110 0 q 4 119 18 36 l 3 119 q 0 150 1 132 l 1 150 l 1 382 q 83 497 1 435 q 153 543 113 520 q 214 574 182 559 q 201 661 214 625 l 146 621 l 123 651 l 182 694 q 79 743 152 735 l 177 817 q 282 766 242 806 l 338 808 l 361 777 l 306 737 z "},"":{"ha":467,"x_min":0,"x_max":450,"o":"m 172 162 q 221 75 172 104 l 121 0 l 120 1 l 119 1 q 49 134 49 54 l 49 424 q 24 490 49 463 q 0 511 12 505 l 100 586 l 101 586 l 103 585 l 106 583 l 110 581 q 120 574 115 578 q 132 565 126 570 q 155 538 146 553 q 172 498 168 519 l 292 588 q 379 521 352 565 q 401 440 401 486 l 401 162 q 450 75 401 104 l 349 0 l 349 1 l 348 1 q 277 134 277 54 l 277 441 q 239 493 277 470 l 172 445 l 172 162 m 388 726 l 300 662 q 282 652 292 656 q 258 644 270 646 q 240 642 248 642 q 203 653 220 642 q 193 662 199 656 l 182 673 q 157 693 168 686 q 122 707 138 707 q 106 703 113 707 q 98 698 104 703 q 85 689 92 694 q 68 675 68 677 l 62 694 l 136 748 q 169 768 150 760 q 193 773 182 773 q 201 772 197 773 q 228 758 212 770 l 248 743 l 270 728 q 309 715 287 715 q 322 717 315 715 q 341 722 332 718 q 347 724 345 722 l 349 725 l 381 745 l 388 726 z "},"":{"ha":414,"x_min":8,"x_max":363,"o":"m 344 98 l 216 0 q 197 2 207 1 q 173 7 185 4 q 113 36 140 17 q 15 212 36 90 q 8 287 8 249 q 18 380 8 332 q 74 509 33 457 q 214 597 125 574 q 363 253 363 554 q 356 104 363 184 l 344 98 m 246 237 q 143 507 245 506 q 113 372 113 454 q 123 261 113 321 q 161 170 130 214 q 246 109 195 125 l 246 237 m 106 847 l 248 689 q 257 670 257 682 q 250 650 257 659 q 231 642 242 643 l 229 642 q 211 648 219 642 l 44 779 l 106 847 z "},"":{"ha":414,"x_min":8,"x_max":363,"o":"m 344 98 l 216 0 q 197 2 207 1 q 173 7 185 4 q 113 36 140 17 q 15 212 36 90 q 8 287 8 249 q 18 380 8 332 q 74 509 33 457 q 214 597 125 574 q 363 253 363 554 q 356 104 363 184 l 344 98 m 246 237 q 143 507 245 506 q 113 372 113 454 q 123 261 113 321 q 161 170 130 214 q 246 109 195 125 l 246 237 m 328 778 l 161 647 q 143 640 153 640 l 141 640 q 122 649 130 642 q 115 669 115 658 q 123 688 115 680 l 265 846 l 328 778 z "},"":{"ha":414,"x_min":8,"x_max":363,"o":"m 344 98 l 216 0 q 197 2 207 1 q 173 7 185 4 q 113 36 140 17 q 15 212 36 90 q 8 287 8 249 q 18 380 8 332 q 74 509 33 457 q 214 597 125 574 q 363 253 363 554 q 356 104 363 184 l 344 98 m 246 237 q 143 507 245 506 q 113 372 113 454 q 123 261 113 321 q 161 170 130 214 q 246 109 195 125 l 246 237 m 197 785 q 315 684 260 699 l 241 622 l 236 622 q 165 677 195 622 l 133 644 l 56 644 l 197 785 z "},"":{"ha":414,"x_min":8,"x_max":363,"o":"m 344 98 l 216 0 q 197 2 207 1 q 173 7 185 4 q 113 36 140 17 q 15 212 36 90 q 8 287 8 249 q 18 380 8 332 q 74 509 33 457 q 214 597 125 574 q 363 253 363 554 q 356 104 363 184 l 344 98 m 246 237 q 143 507 245 506 q 113 372 113 454 q 123 261 113 321 q 161 170 130 214 q 246 109 195 125 l 246 237 m 349 726 l 261 662 q 243 652 252 656 q 219 644 231 646 q 201 642 210 642 q 164 653 180 642 q 154 662 160 656 l 143 673 q 119 693 128 686 q 83 707 99 707 q 66 703 74 707 q 60 698 65 703 q 46 689 53 694 q 30 675 30 677 l 22 694 l 96 748 q 130 768 111 760 q 153 773 143 773 q 162 772 158 773 q 189 758 173 770 l 210 743 l 231 728 q 270 715 248 715 q 283 717 277 715 q 302 722 293 718 q 309 724 306 722 l 310 725 l 311 725 l 342 745 l 349 726 z "},"":{"ha":414,"x_min":8,"x_max":376,"o":"m 344 98 l 216 0 q 197 2 207 1 q 173 7 185 4 q 113 36 140 17 q 15 212 36 90 q 8 287 8 249 q 18 380 8 332 q 74 509 33 457 q 214 597 125 574 q 363 253 363 554 q 356 104 363 184 l 344 98 m 246 237 q 143 507 245 506 q 113 372 113 454 q 123 261 113 321 q 161 170 130 214 q 246 109 195 125 l 246 237 m 113 785 q 181 702 127 750 l 80 627 q 44 656 62 637 q 12 711 24 680 l 113 785 m 307 785 q 376 702 322 750 l 275 627 q 239 656 256 637 q 207 711 218 680 l 307 785 z "},"":{"ha":429,"x_min":0,"x_max":412,"o":"m 227 312 q 296 229 242 277 l 195 155 q 159 184 176 164 q 127 238 138 208 l 227 312 m 227 593 q 296 511 242 559 l 195 436 q 159 465 176 446 q 127 519 138 489 l 227 593 m 412 417 l 371 331 l 0 331 l 41 417 l 412 417 z "},"":{"ha":397,"x_min":8,"x_max":380,"o":"m 244 302 q 163 217 178 247 q 156 189 156 201 q 161 170 156 178 q 246 109 195 125 l 246 237 q 244 302 246 272 m 119 278 q 233 395 162 338 q 143 507 208 506 q 113 366 113 454 q 119 278 113 326 m 45 125 q 15 212 22 172 q 8 287 8 249 q 18 380 8 332 q 74 509 33 457 q 214 597 125 574 q 333 472 296 574 q 338 475 336 473 q 380 408 337 475 q 354 389 367 398 q 363 253 363 329 q 356 104 363 185 l 344 98 l 216 0 q 197 2 207 1 q 173 7 185 4 q 113 36 140 17 q 99 44 102 44 q 98 43 98 44 q 87 47 92 47 q 73 24 75 47 q 40 94 40 58 q 45 125 40 110 z "},"":{"ha":467,"x_min":0,"x_max":450,"o":"m 401 164 q 408 125 401 143 q 425 98 414 110 q 450 77 437 83 l 349 2 l 349 2 l 347 3 l 344 5 l 340 7 q 330 14 335 10 q 318 23 324 18 q 294 50 304 35 q 279 90 283 69 l 157 0 q 71 67 98 23 q 49 148 49 102 l 49 438 q 41 469 49 454 q 24 493 35 482 q 0 513 12 506 l 100 588 q 138 553 122 576 q 160 510 151 534 q 173 459 170 482 l 173 146 q 212 95 173 117 l 277 143 l 277 426 q 269 465 277 447 q 253 492 263 480 q 228 513 240 507 l 329 588 l 330 588 l 330 587 l 332 587 l 335 585 l 340 582 q 351 574 346 578 q 365 563 359 568 q 390 529 380 547 q 401 481 401 507 q 401 164 401 452 m 146 847 l 288 689 q 296 670 296 682 q 288 650 296 659 q 269 642 281 643 l 267 642 q 250 648 258 642 l 83 779 l 146 847 z "},"":{"ha":467,"x_min":0,"x_max":450,"o":"m 401 164 q 408 125 401 143 q 425 98 414 110 q 450 77 437 83 l 349 2 l 349 2 l 347 3 l 344 5 l 340 7 q 330 14 335 10 q 318 23 324 18 q 294 50 304 35 q 279 90 283 69 l 157 0 q 71 67 98 23 q 49 148 49 102 l 49 438 q 41 469 49 454 q 24 493 35 482 q 0 513 12 506 l 100 588 q 138 553 122 576 q 160 510 151 534 q 173 459 170 482 l 173 146 q 212 95 173 117 l 277 143 l 277 426 q 269 465 277 447 q 253 492 263 480 q 228 513 240 507 l 329 588 l 330 588 l 330 587 l 332 587 l 335 585 l 340 582 q 351 574 346 578 q 365 563 359 568 q 390 529 380 547 q 401 481 401 507 q 401 164 401 452 m 367 778 l 199 647 q 182 640 192 640 l 180 640 q 161 649 169 642 q 154 669 154 658 q 162 688 154 680 l 304 846 l 367 778 z "},"":{"ha":467,"x_min":0,"x_max":450,"o":"m 401 164 q 408 125 401 143 q 425 98 414 110 q 450 77 437 83 l 349 2 l 349 2 l 347 3 l 344 5 l 340 7 q 330 14 335 10 q 318 23 324 18 q 294 50 304 35 q 279 90 283 69 l 157 0 q 71 67 98 23 q 49 148 49 102 l 49 438 q 41 469 49 454 q 24 493 35 482 q 0 513 12 506 l 100 588 q 138 553 122 576 q 160 510 151 534 q 173 459 170 482 l 173 146 q 212 95 173 117 l 277 143 l 277 426 q 269 465 277 447 q 253 492 263 480 q 228 513 240 507 l 329 588 l 330 588 l 330 587 l 332 587 l 335 585 l 340 582 q 351 574 346 578 q 365 563 359 568 q 390 529 380 547 q 401 481 401 507 q 401 164 401 452 m 235 785 q 355 684 299 699 l 280 622 l 275 622 q 204 677 233 622 l 172 644 l 95 644 l 235 785 z "},"":{"ha":467,"x_min":0,"x_max":450,"o":"m 401 164 q 408 125 401 143 q 425 98 414 110 q 450 77 437 83 l 349 2 l 349 2 l 347 3 l 344 5 l 340 7 q 330 14 335 10 q 318 23 324 18 q 294 50 304 35 q 279 90 283 69 l 157 0 q 71 67 98 23 q 49 148 49 102 l 49 438 q 41 469 49 454 q 24 493 35 482 q 0 513 12 506 l 100 588 q 138 553 122 576 q 160 510 151 534 q 173 459 170 482 l 173 146 q 212 95 173 117 l 277 143 l 277 426 q 269 465 277 447 q 253 492 263 480 q 228 513 240 507 l 329 588 l 330 588 l 330 587 l 332 587 l 335 585 l 340 582 q 351 574 346 578 q 365 563 359 568 q 390 529 380 547 q 401 481 401 507 q 401 164 401 452 m 144 785 q 212 702 159 750 l 111 627 q 75 656 93 637 q 43 711 55 680 l 144 785 m 338 785 q 407 702 353 750 l 306 627 q 270 656 288 637 q 238 711 250 680 l 338 785 z "},"":{"ha":418,"x_min":0,"x_max":401,"o":"m 329 588 l 330 587 l 330 587 l 332 587 l 335 585 l 340 582 q 351 574 346 578 q 365 562 359 568 q 390 529 380 547 q 401 481 401 507 q 401 30 401 451 q 359 -127 401 -58 q 349 -142 353 -136 q 336 -160 343 -152 q 300 -199 319 -183 q 204 -237 256 -237 q 184 -235 194 -237 q 93 -183 130 -228 q 68 -123 68 -153 q 79 -83 68 -103 q 132 -49 96 -50 q 155 -52 144 -49 q 163 -54 159 -53 l 165 -56 l 165 -56 q 138 -94 140 -71 l 138 -99 q 151 -130 138 -117 q 189 -145 167 -145 l 192 -145 q 243 -119 219 -144 q 277 -37 277 -84 l 277 89 l 157 0 q 71 67 98 23 q 49 148 49 102 l 49 438 q 41 469 49 454 q 24 493 35 481 q 0 513 12 506 l 101 588 q 138 553 122 575 q 160 510 151 534 q 173 458 170 482 l 173 244 l 172 244 l 172 146 q 212 94 172 117 l 277 144 l 277 426 q 253 492 277 464 q 228 513 241 507 l 329 588 m 342 778 l 176 647 q 158 640 168 640 l 156 640 q 137 649 144 642 q 130 669 130 658 q 138 688 130 680 l 280 846 l 342 778 z "},"":{"ha":415,"x_min":0,"x_max":398,"o":"m 173 500 l 291 588 q 397 469 382 552 l 398 136 l 217 -1 q 173 36 206 17 l 173 -76 q 180 -115 173 -97 q 197 -142 186 -130 q 222 -163 210 -157 l 121 -238 l 120 -237 l 119 -237 l 118 -237 l 115 -235 l 110 -232 q 98 -224 104 -228 q 85 -212 92 -218 q 60 -179 69 -197 q 49 -131 49 -157 l 49 664 q 41 704 49 686 q 24 731 35 718 q 0 751 12 745 l 101 826 l 102 826 l 102 825 l 104 825 l 107 823 l 112 820 q 123 812 118 817 q 136 801 130 807 q 161 768 153 785 q 173 719 173 745 l 173 500 m 173 446 l 173 121 q 214 129 194 129 q 276 109 246 129 l 276 441 q 237 494 276 471 l 173 446 z "},"":{"ha":418,"x_min":0,"x_max":401,"o":"m 329 588 l 330 587 l 330 587 l 332 587 l 335 585 l 340 582 q 351 574 346 578 q 365 562 359 568 q 390 529 380 547 q 401 481 401 507 q 401 30 401 451 q 359 -127 401 -58 q 349 -142 353 -136 q 336 -160 343 -152 q 300 -199 319 -183 q 204 -237 256 -237 q 184 -235 194 -237 q 93 -183 130 -228 q 68 -123 68 -153 q 79 -83 68 -103 q 132 -49 96 -50 q 155 -52 144 -49 q 163 -54 159 -53 l 165 -56 l 165 -56 q 138 -94 140 -71 l 138 -99 q 151 -130 138 -117 q 189 -145 167 -145 l 192 -145 q 243 -119 219 -144 q 277 -37 277 -84 l 277 89 l 157 0 q 71 67 98 23 q 49 148 49 102 l 49 438 q 41 469 49 454 q 24 493 35 481 q 0 513 12 506 l 101 588 q 138 553 122 575 q 160 510 151 534 q 173 458 170 482 l 173 244 l 172 244 l 172 146 q 212 94 172 117 l 277 144 l 277 426 q 253 492 277 464 q 228 513 241 507 l 329 588 m 133 785 q 201 702 148 750 l 100 627 q 64 656 82 637 q 33 711 44 680 l 133 785 m 328 785 q 396 702 342 750 l 295 627 q 259 656 277 637 q 227 711 239 680 l 328 785 z "},"":{"ha":1025,"x_min":-34,"x_max":1004,"o":"m 543 334 q 584 366 572 340 q 589 383 588 374 q 590 389 590 386 l 590 392 l 588 399 q 502 665 570 524 l 374 372 q 452 349 391 368 q 532 334 503 334 q 543 334 538 334 m 838 -8 q 1004 -138 911 -113 q 910 -176 1001 -138 q 861 -186 885 -186 q 730 -109 794 -186 q 607 266 673 -21 q 526 240 570 240 q 456 254 493 240 q 371 273 406 273 q 327 263 345 273 l 229 58 q 322 14 275 45 l 212 -68 q 113 -36 165 -43 q 77 -34 95 -34 q -34 -56 22 -34 q 9 -1 -19 -29 q 64 40 35 24 q 138 65 100 60 l 440 738 q 357 762 403 762 q 311 757 335 762 q 188 701 257 744 l 189 703 q 195 710 191 706 q 220 736 205 722 q 309 808 263 777 q 426 862 372 850 q 465 867 446 867 q 543 842 509 867 q 644 692 606 797 q 723 358 656 655 q 838 -8 789 60 m 634 996 l 593 909 l 337 909 l 378 996 l 634 996 z "},"":{"ha":418,"x_min":0,"x_max":401,"o":"m 229 441 q 190 493 229 471 q 125 390 125 445 l 125 146 q 164 95 125 117 l 229 142 l 229 441 m 352 150 q 360 119 352 134 q 376 95 366 106 q 401 75 389 82 l 300 0 q 258 43 275 14 q 236 94 245 65 l 110 0 q 4 119 18 36 l 3 119 q 0 150 1 132 l 1 150 l 1 382 q 39 458 1 418 q 122 524 68 491 q 243 588 183 563 q 330 521 303 565 q 352 440 352 486 l 352 150 m 349 728 l 308 642 l 52 642 l 94 728 l 349 728 z "},"":{"ha":1025,"x_min":-34,"x_max":1004,"o":"m 543 334 q 532 334 538 334 q 452 349 503 334 q 374 372 391 368 l 502 665 q 588 399 570 524 l 590 392 l 590 389 q 589 383 590 386 q 584 366 588 374 q 543 334 572 340 m 838 -8 q 723 358 789 60 q 644 692 656 655 q 543 842 606 797 q 465 867 509 867 q 426 862 446 867 q 309 808 372 850 q 220 736 263 777 q 195 710 205 722 q 189 703 191 706 l 188 701 q 311 757 257 744 q 357 762 335 762 q 440 738 403 762 l 138 65 q 64 40 100 60 q 9 -1 35 24 q -34 -56 -19 -29 q 77 -34 22 -34 q 113 -36 95 -34 q 212 -68 165 -43 l 322 14 q 229 58 275 45 l 327 263 q 371 273 345 273 q 456 254 406 273 q 526 240 493 240 q 607 266 570 240 q 730 -109 673 -21 q 861 -186 794 -186 q 910 -176 885 -186 q 1004 -138 1001 -138 q 838 -8 911 -113 m 615 1038 q 454 909 534 909 q 400 924 427 909 q 355 989 371 943 q 448 1067 448 1066 q 446 1048 446 1057 q 456 1017 446 1029 q 503 991 476 992 l 504 991 q 530 999 514 991 q 597 1061 546 1007 l 615 1038 z "},"":{"ha":418,"x_min":0,"x_max":401,"o":"m 229 142 l 164 95 q 125 146 125 117 l 125 390 q 190 493 125 445 q 229 441 229 471 l 229 142 m 352 440 q 330 521 352 486 q 243 588 303 565 q 122 524 183 563 q 39 458 68 491 q 1 382 1 418 l 1 150 l 0 150 q 3 119 1 132 l 4 119 q 110 0 18 36 l 236 94 q 258 43 245 65 q 300 0 275 14 l 401 75 q 376 95 389 82 q 360 119 366 106 q 352 150 352 134 l 352 440 m 330 750 q 170 621 250 621 q 115 636 142 621 q 71 701 86 654 q 163 779 163 778 q 161 760 161 768 q 171 728 161 741 q 218 703 191 704 l 219 703 q 245 711 229 703 q 312 773 261 719 l 330 750 z "},"":{"ha":1025,"x_min":-34,"x_max":1004,"o":"m 452 349 q 532 334 503 334 q 543 334 538 334 q 584 366 572 340 q 589 383 588 374 q 590 389 590 386 l 590 392 l 588 399 q 502 665 570 524 l 374 372 q 452 349 391 368 m 869 -186 l 862 -186 q 730 -109 794 -186 q 607 266 673 -21 q 526 240 570 240 q 456 254 493 240 q 371 273 406 273 q 327 263 345 273 l 229 58 q 322 14 275 45 l 212 -68 q 113 -36 165 -43 q 77 -34 95 -34 q -34 -56 22 -34 q 9 -1 -19 -29 q 64 40 35 24 q 138 65 100 60 l 440 738 q 357 762 403 762 q 311 757 335 762 q 188 701 257 744 l 189 703 q 195 710 191 706 q 220 736 205 722 q 309 808 263 777 q 426 862 372 850 q 465 867 446 867 q 543 842 509 867 q 644 692 606 797 q 723 358 656 655 q 838 -8 789 60 q 1004 -138 911 -113 q 910 -211 1002 -138 q 838 -311 838 -268 q 844 -335 838 -323 q 880 -355 859 -351 q 886 -355 883 -355 q 952 -334 908 -355 l 955 -342 l 914 -370 q 850 -412 866 -406 q 802 -424 825 -424 l 799 -424 q 753 -404 769 -423 q 736 -358 736 -383 q 753 -302 736 -332 q 869 -186 780 -251 z "},"":{"ha":418,"x_min":0,"x_max":401,"o":"m 229 441 q 190 493 229 471 q 125 390 125 445 l 125 146 q 164 95 125 117 l 229 142 l 229 441 m 283 12 q 258 43 269 25 q 236 94 245 65 l 110 0 q 4 119 18 36 l 3 119 q 0 150 1 132 l 1 150 l 1 382 q 39 458 1 418 q 122 524 68 491 q 243 588 183 563 q 330 521 303 565 q 352 440 352 486 l 352 150 q 360 119 352 134 q 376 95 366 106 q 401 75 389 82 q 258 -107 258 -43 q 265 -132 258 -121 q 301 -152 279 -149 q 307 -153 304 -153 q 374 -131 329 -153 l 376 -140 l 336 -168 q 271 -210 288 -203 q 222 -221 246 -221 l 220 -221 q 174 -201 191 -220 q 157 -155 157 -180 q 174 -99 157 -130 q 283 12 201 -50 z "},"":{"ha":654,"x_min":5,"x_max":637,"o":"m 540 760 l 541 760 l 541 759 q 544 757 543 758 q 554 751 549 754 q 585 735 570 741 q 620 726 606 726 q 637 736 633 726 l 637 730 q 633 691 637 713 q 565 609 620 609 q 526 617 547 609 q 492 634 511 623 l 476 644 l 460 654 q 394 688 420 682 q 337 696 366 696 q 243 677 292 696 q 174 629 203 663 q 134 553 145 596 q 122 466 122 509 q 127 409 122 437 q 185 274 140 347 q 491 41 279 121 l 591 116 l 620 75 l 413 -81 q 362 -64 408 -81 q 301 -40 314 -46 q 24 256 81 68 q 5 374 5 318 q 6 402 5 389 q 51 543 12 470 q 163 683 85 608 q 233 741 191 709 l 250 753 l 267 767 q 304 791 288 781 q 384 820 347 817 q 395 821 389 821 q 466 803 429 821 q 504 783 483 795 l 522 771 l 540 760 m 463 1011 l 296 881 q 278 874 288 874 l 276 874 q 257 882 264 875 q 250 902 250 891 q 258 921 250 913 l 399 1079 l 463 1011 z "},"":{"ha":371,"x_min":8,"x_max":354,"o":"m 123 261 q 161 170 130 214 q 305 101 212 101 q 354 105 328 101 l 216 0 q 197 2 207 1 q 173 7 185 4 q 113 36 140 17 q 15 212 36 90 q 8 287 8 249 q 18 380 8 332 q 74 509 33 457 q 214 597 125 574 l 298 480 l 211 414 l 143 507 q 113 372 113 454 q 123 261 113 321 m 323 778 l 156 647 q 138 640 148 640 l 136 640 q 117 649 125 642 q 110 669 110 658 q 119 688 110 680 l 260 846 l 323 778 z "},"":{"ha":654,"x_min":5,"x_max":637,"o":"m 540 760 l 541 760 l 541 759 q 544 757 543 758 q 554 751 549 754 q 585 735 570 741 q 620 726 606 726 q 637 736 633 726 l 637 730 q 633 691 637 713 q 565 609 620 609 q 526 617 547 609 q 492 634 511 623 l 476 644 l 460 654 q 394 688 420 682 q 337 696 366 696 q 243 677 292 696 q 174 629 203 663 q 134 553 145 596 q 122 466 122 509 q 127 409 122 437 q 185 274 140 347 q 491 41 279 121 l 591 116 l 620 75 l 413 -81 q 362 -64 408 -81 q 301 -40 314 -46 q 24 256 81 68 q 5 374 5 318 q 6 402 5 389 q 51 543 12 470 q 163 683 85 608 q 233 741 191 709 l 250 753 l 267 767 q 304 791 288 781 q 384 820 347 817 q 395 821 389 821 q 466 803 429 821 q 504 783 483 795 l 522 771 l 540 760 m 386 1038 q 505 937 450 951 l 431 875 l 426 875 q 355 930 385 875 l 322 898 l 245 898 l 386 1038 z "},"":{"ha":371,"x_min":8,"x_max":354,"o":"m 123 261 q 161 170 130 214 q 305 101 212 101 q 354 105 328 101 l 216 0 q 197 2 207 1 q 173 7 185 4 q 113 36 140 17 q 15 212 36 90 q 8 287 8 249 q 18 380 8 332 q 74 509 33 457 q 214 597 125 574 l 298 480 l 211 414 l 143 507 q 113 372 113 454 q 123 261 113 321 m 192 785 q 311 684 256 699 l 236 622 l 231 622 q 161 677 190 622 l 128 644 l 52 644 l 192 785 z "},"":{"ha":654,"x_min":5,"x_max":637,"o":"m 540 760 l 541 760 l 541 759 q 544 757 543 758 q 554 751 549 754 q 585 735 570 741 q 620 726 606 726 q 637 736 633 726 l 637 730 q 633 691 637 713 q 565 609 620 609 q 526 617 547 609 q 492 634 511 623 l 476 644 l 460 654 q 394 688 420 682 q 337 696 366 696 q 243 677 292 696 q 174 629 203 663 q 134 553 145 596 q 122 466 122 509 q 127 409 122 437 q 185 274 140 347 q 491 41 279 121 l 591 116 l 620 75 l 413 -81 q 362 -64 408 -81 q 301 -40 314 -46 q 24 256 81 68 q 5 374 5 318 q 6 402 5 389 q 51 543 12 470 q 163 683 85 608 q 233 741 191 709 l 250 753 l 267 767 q 304 791 288 781 q 384 820 347 817 q 395 821 389 821 q 466 803 429 821 q 504 783 483 795 l 522 771 l 540 760 m 412 1034 q 480 951 427 999 l 379 876 q 343 905 361 886 q 311 960 323 929 l 412 1034 z "},"":{"ha":371,"x_min":8,"x_max":354,"o":"m 123 261 q 161 170 130 214 q 305 101 212 101 q 354 105 328 101 l 216 0 q 197 2 207 1 q 173 7 185 4 q 113 36 140 17 q 15 212 36 90 q 8 287 8 249 q 18 380 8 332 q 74 509 33 457 q 214 597 125 574 l 298 480 l 211 414 l 143 507 q 113 372 113 454 q 123 261 113 321 m 197 785 q 265 703 212 751 l 164 628 q 128 657 146 637 q 96 711 108 681 l 197 785 z "},"":{"ha":654,"x_min":5,"x_max":637,"o":"m 540 760 l 541 760 l 541 759 q 544 757 543 758 q 554 751 549 754 q 585 735 570 741 q 620 726 606 726 q 637 736 633 726 l 637 730 q 633 691 637 713 q 565 609 620 609 q 526 617 547 609 q 492 634 511 623 l 476 644 l 460 654 q 394 688 420 682 q 337 696 366 696 q 243 677 292 696 q 174 629 203 663 q 134 553 145 596 q 122 466 122 509 q 127 409 122 437 q 185 274 140 347 q 491 41 279 121 l 591 116 l 620 75 l 413 -81 q 362 -64 408 -81 q 301 -40 314 -46 q 24 256 81 68 q 5 374 5 318 q 6 402 5 389 q 51 543 12 470 q 163 683 85 608 q 233 741 191 709 l 250 753 l 267 767 q 304 791 288 781 q 384 820 347 817 q 395 821 389 821 q 466 803 429 821 q 504 783 483 795 l 522 771 l 540 760 m 391 876 q 273 978 328 963 l 347 1040 l 353 1040 q 422 985 393 1040 l 455 1017 l 532 1017 l 391 876 z "},"":{"ha":371,"x_min":8,"x_max":354,"o":"m 123 261 q 161 170 130 214 q 305 101 212 101 q 354 105 328 101 l 216 0 q 197 2 207 1 q 173 7 185 4 q 113 36 140 17 q 15 212 36 90 q 8 287 8 249 q 18 380 8 332 q 74 509 33 457 q 214 597 125 574 l 298 480 l 211 414 l 143 507 q 113 372 113 454 q 123 261 113 321 m 170 628 q 52 730 106 715 l 126 791 l 132 791 q 201 736 172 791 l 234 769 l 311 769 l 170 628 z "},"":{"ha":790,"x_min":0,"x_max":752,"o":"m 612 163 q 618 248 618 200 q 601 429 618 325 l 597 456 l 592 484 q 579 540 586 516 q 528 639 562 603 q 485 671 511 657 q 434 688 457 686 l 393 693 q 363 550 363 640 q 364 517 363 534 l 370 446 l 376 374 l 379 344 l 382 313 q 385 261 385 284 l 385 252 q 355 136 382 183 q 326 89 336 103 q 347 90 336 90 q 538 52 441 90 q 612 163 602 108 m 743 505 q 752 391 752 445 q 699 156 752 255 q 639 78 677 117 q 566 13 615 54 q 548 -3 564 12 q 533 -16 539 -10 l 516 -31 q 469 -68 473 -68 l 469 -68 q 359 -23 431 -41 q 214 -5 290 -5 q 47 -25 134 -5 q 243 78 117 49 q 249 125 249 99 q 248 153 249 138 l 217 428 q 214 467 214 446 q 220 531 214 496 q 252 621 229 581 q 326 703 279 671 l 240 715 q 146 751 197 722 q 0 912 43 808 q 26 891 4 903 q 43 883 33 888 l 51 880 q 56 877 54 878 q 186 840 111 849 q 253 833 215 836 l 287 832 l 321 831 q 581 776 498 825 q 683 680 641 740 q 743 505 728 615 m 440 889 q 321 991 376 976 l 396 1053 l 401 1053 q 471 998 442 1053 l 504 1030 l 581 1030 l 440 889 z "},"":{"ha":571,"x_min":0,"x_max":554,"o":"m 229 441 q 190 493 229 471 q 125 390 125 445 l 125 146 q 164 95 125 117 l 229 142 l 229 441 m 300 0 q 260 40 277 14 q 235 92 242 64 l 110 0 q 4 119 18 36 l 3 119 q 0 150 1 132 l 1 150 l 1 382 q 39 458 1 418 q 122 524 68 491 q 229 582 176 558 l 229 664 q 222 704 229 686 q 205 731 216 718 q 180 751 193 745 l 281 826 l 282 826 l 283 825 l 284 825 l 288 823 l 292 820 q 304 812 298 817 q 317 801 311 807 q 342 768 333 785 q 353 719 353 745 l 353 160 q 377 94 353 121 q 401 75 387 83 l 301 0 l 300 0 m 429 685 l 429 688 q 385 752 429 720 l 486 826 q 554 743 537 789 q 414 606 517 674 l 385 629 q 429 685 427 651 z "},"":{"ha":790,"x_min":0,"x_max":752,"o":"m 486 465 l 445 379 l 376 379 l 376 374 l 379 344 l 382 313 q 385 261 385 284 l 385 252 q 355 136 382 183 q 326 89 336 103 q 347 90 336 90 q 538 52 441 90 q 612 163 602 108 q 618 248 618 200 q 601 429 618 325 l 597 456 l 592 484 q 579 540 586 516 q 528 639 562 603 q 485 671 511 657 q 434 688 457 686 l 393 693 q 363 550 363 640 q 364 517 363 534 l 369 465 l 486 465 m 214 465 q 220 531 214 496 q 252 621 229 581 q 326 703 279 671 l 240 715 q 146 751 197 722 q 0 912 43 808 q 26 891 4 903 q 43 883 33 888 l 51 880 q 56 877 54 878 q 186 840 111 849 q 253 833 215 836 l 287 832 l 321 831 q 581 776 498 825 q 683 680 641 740 q 743 505 728 615 q 752 391 752 445 q 699 156 752 255 q 639 78 677 117 q 566 13 615 54 q 548 -3 564 12 q 533 -16 539 -10 l 516 -31 q 469 -68 473 -68 l 469 -68 q 359 -23 431 -41 q 214 -5 290 -5 q 47 -25 134 -5 q 243 78 117 49 q 249 125 249 99 q 248 153 249 138 l 222 379 l 94 379 l 136 465 l 214 465 z "},"":{"ha":467,"x_min":0,"x_max":450,"o":"m 229 441 q 190 493 229 471 q 125 390 125 445 l 125 146 q 164 95 125 117 l 229 142 l 229 441 m 353 602 l 353 160 q 377 94 353 121 q 401 75 387 83 l 301 0 l 300 0 q 260 40 277 14 q 235 92 242 64 l 110 0 q 4 119 18 36 l 3 119 q 0 150 1 132 l 1 150 l 1 382 q 39 458 1 418 q 122 524 68 491 q 229 582 176 558 l 229 602 l 126 602 l 168 687 l 227 687 q 222 704 225 696 q 205 731 216 718 q 180 751 193 745 l 281 826 l 282 826 l 283 825 l 284 825 l 288 823 l 292 820 q 304 812 298 817 q 317 801 311 807 q 342 768 333 785 q 353 719 353 745 l 353 687 l 450 687 l 409 602 l 353 602 z "},"":{"ha":705,"x_min":0,"x_max":688,"o":"m 380 330 l 382 313 q 385 229 385 284 l 385 205 q 326 102 380 143 q 404 108 363 108 q 677 55 526 108 q 534 -62 539 -62 q 232 -10 397 -10 q 47 -25 143 -10 q 243 92 117 49 q 249 132 249 113 q 248 153 249 143 l 217 428 q 214 467 214 446 q 220 531 214 496 q 252 621 229 581 q 326 703 279 671 l 240 715 q 120 765 197 722 q 0 912 43 808 q 58 876 4 903 q 186 840 111 849 q 356 830 215 836 q 566 793 498 825 q 688 626 634 760 q 393 693 638 671 q 363 550 363 640 q 364 517 363 534 l 370 446 l 372 428 l 399 422 q 482 410 455 410 q 494 411 489 410 q 541 442 528 416 q 547 468 547 456 q 576 402 576 433 q 559 357 576 378 q 476 316 526 316 q 452 318 465 316 q 380 330 395 327 m 526 996 l 485 909 l 229 909 l 271 996 l 526 996 z "},"":{"ha":371,"x_min":8,"x_max":354,"o":"m 143 509 q 113 372 113 456 q 119 292 113 335 l 235 381 l 143 509 m 127 241 q 145 196 134 218 q 184 145 161 166 q 305 101 232 101 q 354 106 328 101 l 216 0 q 197 2 207 1 q 173 7 185 4 q 113 36 140 17 q 15 213 36 90 q 8 288 8 250 q 18 381 8 334 q 214 600 53 557 l 349 412 l 346 409 l 127 241 m 330 728 l 288 642 l 33 642 l 74 728 l 330 728 z "},"":{"ha":705,"x_min":0,"x_max":688,"o":"m 380 330 q 452 318 395 327 q 476 316 465 316 q 559 357 526 316 q 576 402 576 378 q 547 468 576 433 q 541 442 547 456 q 494 411 528 416 q 482 410 489 410 q 399 422 455 410 l 372 428 l 370 446 l 364 517 q 363 550 363 534 q 393 693 363 640 q 688 626 638 671 q 566 793 634 760 q 356 830 498 825 q 186 840 215 836 q 58 876 111 849 q 0 912 4 903 q 120 765 43 808 q 240 715 197 722 l 326 703 q 252 621 279 671 q 220 531 229 581 q 214 467 214 496 q 217 428 214 446 l 248 153 q 249 132 249 143 q 243 92 249 113 q 47 -25 117 49 q 232 -10 143 -10 q 534 -62 397 -10 q 677 55 539 -62 q 404 108 526 108 q 326 102 363 108 q 385 205 380 143 l 385 229 q 382 313 385 284 l 380 330 m 508 1038 q 347 909 427 909 q 293 924 320 909 q 248 989 264 943 q 341 1067 341 1066 q 338 1048 338 1057 q 349 1017 338 1029 q 395 991 369 992 l 397 991 q 422 999 407 991 q 490 1061 439 1007 l 508 1038 z "},"":{"ha":371,"x_min":8,"x_max":354,"o":"m 235 381 l 119 292 q 113 372 113 335 q 143 509 113 456 l 235 381 m 346 409 l 349 412 l 214 600 q 18 381 53 557 q 8 288 8 334 q 15 213 8 250 q 113 36 36 90 q 173 7 140 17 q 197 2 185 4 q 216 0 207 1 l 354 106 q 305 101 328 101 q 184 145 232 101 q 145 196 161 166 q 127 241 134 218 l 346 409 m 311 770 q 150 642 230 642 q 96 656 123 642 q 51 721 66 675 q 144 799 144 798 q 142 779 142 788 q 151 749 142 762 q 199 723 172 724 l 200 723 q 226 731 210 723 q 292 793 241 739 l 311 770 z "},"":{"ha":705,"x_min":0,"x_max":688,"o":"m 380 330 l 382 313 q 385 229 385 284 l 385 205 q 326 102 380 143 q 404 108 363 108 q 677 55 526 108 q 534 -62 539 -62 q 232 -10 397 -10 q 47 -25 143 -10 q 243 92 117 49 q 249 132 249 113 q 248 153 249 143 l 217 428 q 214 467 214 446 q 220 531 214 496 q 252 621 229 581 q 326 703 279 671 l 240 715 q 120 765 197 722 q 0 912 43 808 q 58 876 4 903 q 186 840 111 849 q 356 830 215 836 q 566 793 498 825 q 688 626 634 760 q 393 693 638 671 q 363 550 363 640 q 364 517 363 534 l 370 446 l 372 428 l 399 422 q 482 410 455 410 q 494 411 489 410 q 541 442 528 416 q 547 468 547 456 q 576 402 576 433 q 559 357 576 378 q 476 316 526 316 q 452 318 465 316 q 380 330 395 327 m 393 1067 q 462 984 408 1032 l 361 909 q 325 939 342 919 q 293 993 304 962 l 393 1067 z "},"":{"ha":371,"x_min":8,"x_max":354,"o":"m 143 509 q 113 372 113 456 q 119 292 113 335 l 235 381 l 143 509 m 127 241 q 145 196 134 218 q 184 145 161 166 q 305 101 232 101 q 354 106 328 101 l 216 0 q 197 2 207 1 q 173 7 185 4 q 113 36 140 17 q 15 213 36 90 q 8 288 8 250 q 18 381 8 334 q 214 600 53 557 l 349 412 l 346 409 l 127 241 m 217 785 q 286 703 232 751 l 184 628 q 149 657 166 637 q 117 711 128 681 l 217 785 z "},"":{"ha":705,"x_min":0,"x_max":688,"o":"m 541 -71 q 521 -119 521 -94 q 532 -158 521 -138 q 568 -178 546 -174 q 573 -178 570 -178 q 640 -157 595 -178 l 642 -165 l 602 -193 q 538 -235 554 -229 q 489 -247 513 -247 l 486 -247 q 440 -227 457 -246 q 424 -181 424 -206 q 440 -125 424 -155 q 505 -53 455 -98 q 231 -10 380 -10 q 47 -25 143 -10 q 243 92 117 49 q 249 132 249 113 q 248 153 249 143 l 217 428 q 214 467 214 446 q 220 531 214 496 q 252 621 229 581 q 326 703 279 671 l 240 715 q 120 765 197 722 q 0 912 43 808 q 58 876 4 903 q 186 840 111 849 q 356 830 215 836 q 566 793 498 825 q 688 626 634 760 q 393 693 638 671 q 363 550 363 640 q 364 517 363 534 l 370 446 l 372 428 l 399 422 q 482 410 455 410 q 494 411 489 410 q 541 442 528 416 q 547 468 547 456 q 576 402 576 433 q 559 357 576 378 q 476 316 526 316 q 452 318 465 316 q 380 330 395 327 l 382 313 q 385 229 385 284 l 385 205 q 326 102 380 143 q 404 108 363 108 q 677 55 526 108 q 541 -71 574 -33 z "},"":{"ha":371,"x_min":8,"x_max":354,"o":"m 143 509 q 113 372 113 456 q 119 292 113 335 l 235 381 l 143 509 m 176 7 q 173 7 174 7 q 113 36 140 17 q 15 213 36 90 q 8 288 8 250 q 18 381 8 334 q 214 600 53 557 l 349 412 l 346 409 l 127 241 q 145 196 134 218 q 184 145 161 166 q 305 101 232 101 q 354 106 328 101 q 190 -85 190 -24 q 194 -104 190 -96 q 228 -126 207 -121 q 238 -127 233 -127 q 302 -111 260 -127 l 304 -120 l 261 -144 q 194 -181 210 -176 q 152 -189 172 -189 q 142 -189 147 -189 q 97 -165 112 -186 q 84 -125 84 -146 q 106 -63 84 -96 q 176 7 127 -31 z "},"":{"ha":705,"x_min":0,"x_max":688,"o":"m 380 330 l 382 313 q 385 229 385 284 l 385 205 q 326 102 380 143 q 404 108 363 108 q 677 55 526 108 q 534 -62 539 -62 q 232 -10 397 -10 q 47 -25 143 -10 q 243 92 117 49 q 249 132 249 113 q 248 153 249 143 l 217 428 q 214 467 214 446 q 220 531 214 496 q 252 621 229 581 q 326 703 279 671 l 240 715 q 120 765 197 722 q 0 912 43 808 q 58 876 4 903 q 186 840 111 849 q 356 830 215 836 q 566 793 498 825 q 688 626 634 760 q 393 693 638 671 q 363 550 363 640 q 364 517 363 534 l 370 446 l 372 428 l 399 422 q 482 410 455 410 q 494 411 489 410 q 541 442 528 416 q 547 468 547 456 q 576 402 576 433 q 559 357 576 378 q 476 316 526 316 q 452 318 465 316 q 380 330 395 327 m 367 909 q 248 1011 303 996 l 323 1073 l 328 1073 q 398 1018 369 1073 l 431 1050 l 507 1050 l 367 909 z "},"":{"ha":371,"x_min":8,"x_max":354,"o":"m 143 509 q 113 372 113 456 q 119 292 113 335 l 235 381 l 143 509 m 127 241 q 145 196 134 218 q 184 145 161 166 q 305 101 232 101 q 354 106 328 101 l 216 0 q 197 2 207 1 q 173 7 185 4 q 113 36 140 17 q 15 213 36 90 q 8 288 8 250 q 18 381 8 334 q 214 600 53 557 l 349 412 l 346 409 l 127 241 m 170 628 q 52 730 106 715 l 126 791 l 132 791 q 201 736 172 791 l 234 769 l 311 769 l 170 628 z "},"":{"ha":697,"x_min":5,"x_max":680,"o":"m 602 386 l 648 344 q 680 296 680 311 l 680 125 l 413 -77 q 362 -59 408 -77 q 301 -35 314 -41 q 24 258 81 73 q 5 376 5 320 q 6 404 5 390 q 51 544 12 471 q 163 682 85 608 q 269 762 191 708 q 384 819 347 815 q 395 819 389 819 q 466 802 429 819 q 545 757 483 794 q 616 730 589 730 q 637 735 628 730 l 633 690 q 565 609 620 609 q 526 617 547 609 q 465 652 511 623 q 394 688 420 681 q 337 695 366 695 q 243 677 292 695 q 174 629 203 663 q 134 554 145 596 q 122 467 122 509 q 127 410 122 438 q 185 276 140 349 q 491 45 279 125 l 568 102 l 568 199 q 544 237 568 214 q 482 295 521 260 l 602 386 m 406 1019 q 525 918 470 932 l 451 855 l 446 855 q 375 911 404 855 l 342 878 l 266 878 l 406 1019 z "},"":{"ha":374,"x_min":0,"x_max":357,"o":"m 231 143 l 231 358 q 230 435 230 404 q 219 482 230 460 q 192 504 210 494 q 127 399 127 454 l 127 148 q 166 96 127 119 l 231 143 m 355 469 q 356 208 355 467 q 357 -58 357 -52 q 283 -203 357 -138 q 158 -260 221 -260 q 137 -258 147 -260 q 46 -205 83 -250 q 21 -144 21 -175 q 32 -104 21 -124 q 85 -70 50 -70 l 90 -70 q 109 -73 99 -70 q 115 -75 112 -74 l 117 -76 l 118 -76 q 91 -115 94 -92 l 91 -120 q 104 -152 91 -138 q 141 -167 119 -167 l 144 -167 q 196 -140 172 -165 q 231 -57 231 -105 l 231 87 l 111 -1 q 4 120 19 36 l 3 120 q 0 152 1 134 l 1 152 l 1 391 q 39 468 1 427 q 123 535 70 501 q 247 600 185 574 q 269 589 258 595 q 355 469 347 549 m 223 799 q 342 697 287 712 l 267 635 l 262 635 q 192 690 221 635 l 159 658 l 83 658 l 223 799 z "},"":{"ha":697,"x_min":5,"x_max":680,"o":"m 482 295 q 544 237 521 260 q 568 199 568 214 l 568 102 l 491 45 q 185 276 279 125 q 127 410 140 349 q 122 467 122 438 q 134 554 122 509 q 174 629 145 596 q 243 677 203 663 q 337 695 292 695 q 394 688 366 695 q 465 652 420 681 q 526 617 511 623 q 565 609 547 609 q 633 690 620 609 l 637 735 q 616 730 628 730 q 545 757 589 730 q 466 802 483 794 q 395 819 429 819 q 384 819 389 819 q 269 762 347 815 q 163 682 191 708 q 51 544 85 608 q 6 404 12 471 q 5 376 5 390 q 24 258 5 320 q 301 -35 81 73 q 362 -59 314 -41 q 413 -77 408 -77 l 680 125 l 680 296 q 648 344 680 311 l 602 386 l 482 295 m 555 983 q 395 855 475 855 q 340 870 367 855 q 296 935 311 888 q 389 1013 389 1012 q 386 992 386 1002 q 395 962 386 975 q 443 937 416 938 l 444 937 q 470 944 454 937 q 536 1007 486 953 l 555 983 z "},"":{"ha":374,"x_min":0,"x_max":357,"o":"m 166 96 q 127 148 127 119 l 127 399 q 192 504 127 454 q 219 482 210 494 q 230 435 230 460 q 231 358 230 404 l 231 143 l 166 96 m 355 469 q 269 589 347 549 q 247 600 258 595 q 123 535 185 574 q 39 468 70 501 q 1 391 1 427 l 1 152 l 0 152 q 3 120 1 134 l 4 120 q 111 -1 19 36 l 231 87 l 231 -57 q 196 -140 231 -105 q 144 -167 172 -165 l 141 -167 q 104 -152 119 -167 q 91 -120 91 -138 l 91 -115 q 118 -76 94 -92 l 117 -76 l 115 -75 q 109 -73 112 -74 q 90 -70 99 -70 l 85 -70 q 32 -104 50 -70 q 21 -144 21 -124 q 46 -205 21 -175 q 137 -258 83 -250 q 158 -260 147 -260 q 283 -203 221 -260 q 357 -58 357 -138 q 356 208 357 -52 q 355 469 355 467 m 342 770 q 181 642 261 642 q 127 656 154 642 q 82 721 98 675 q 176 799 176 798 q 173 779 173 788 q 182 749 173 762 q 230 723 203 724 l 231 723 q 257 731 241 723 q 323 793 273 739 l 342 770 z "},"":{"ha":697,"x_min":5,"x_max":680,"o":"m 602 386 l 648 344 q 680 296 680 311 l 680 125 l 413 -77 q 362 -59 408 -77 q 301 -35 314 -41 q 24 258 81 73 q 5 376 5 320 q 6 404 5 390 q 51 544 12 471 q 163 682 85 608 q 269 762 191 708 q 384 819 347 815 q 395 819 389 819 q 466 802 429 819 q 545 757 483 794 q 616 730 589 730 q 637 735 628 730 l 633 690 q 565 609 620 609 q 526 617 547 609 q 465 652 511 623 q 394 688 420 681 q 337 695 366 695 q 243 677 292 695 q 174 629 203 663 q 134 554 145 596 q 122 467 122 509 q 127 410 122 438 q 185 276 140 349 q 491 45 279 125 l 568 102 l 568 199 q 544 237 568 214 q 482 295 521 260 l 602 386 m 427 1014 q 495 931 441 979 l 394 857 q 358 886 376 866 q 326 940 338 909 l 427 1014 z "},"":{"ha":374,"x_min":0,"x_max":357,"o":"m 231 143 l 231 358 q 230 435 230 404 q 219 482 230 460 q 192 504 210 494 q 127 399 127 454 l 127 148 q 166 96 127 119 l 231 143 m 355 469 q 356 208 355 467 q 357 -58 357 -52 q 283 -203 357 -138 q 158 -260 221 -260 q 137 -258 147 -260 q 46 -205 83 -250 q 21 -144 21 -175 q 32 -104 21 -124 q 85 -70 50 -70 l 90 -70 q 109 -73 99 -70 q 115 -75 112 -74 l 117 -76 l 118 -76 q 91 -115 94 -92 l 91 -120 q 104 -152 91 -138 q 141 -167 119 -167 l 144 -167 q 196 -140 172 -165 q 231 -57 231 -105 l 231 87 l 111 -1 q 4 120 19 36 l 3 120 q 0 152 1 134 l 1 152 l 1 391 q 39 468 1 427 q 123 535 70 501 q 247 600 185 574 q 269 589 258 595 q 355 469 347 549 m 222 785 q 290 703 237 751 l 189 628 q 153 657 171 637 q 121 711 133 681 l 222 785 z "},"":{"ha":697,"x_min":5,"x_max":680,"o":"m 602 386 l 648 344 q 680 296 680 311 l 680 125 l 413 -77 q 362 -59 408 -77 q 301 -35 314 -41 q 24 258 81 73 q 5 376 5 320 q 6 404 5 390 q 51 544 12 471 q 163 682 85 608 q 269 762 191 708 q 384 819 347 815 q 395 819 389 819 q 466 802 429 819 q 545 757 483 794 q 616 730 589 730 q 637 735 628 730 l 633 690 q 565 609 620 609 q 526 617 547 609 q 465 652 511 623 q 394 688 420 681 q 337 695 366 695 q 243 677 292 695 q 174 629 203 663 q 134 554 145 596 q 122 467 122 509 q 127 410 122 438 q 185 276 140 349 q 491 45 279 125 l 568 102 l 568 199 q 544 237 568 214 q 482 295 521 260 l 602 386 m 361 -243 l 361 -240 q 317 -176 361 -208 l 418 -102 q 486 -184 469 -139 q 345 -321 448 -254 l 317 -298 q 361 -243 359 -277 z "},"":{"ha":374,"x_min":0,"x_max":357,"o":"m 231 143 l 231 358 q 230 435 230 404 q 219 482 230 460 q 192 504 210 494 q 127 399 127 454 l 127 148 q 166 96 127 119 l 231 143 m 355 469 q 356 208 355 467 q 357 -58 357 -52 q 283 -203 357 -138 q 158 -260 221 -260 q 137 -258 147 -260 q 46 -205 83 -250 q 21 -144 21 -175 q 32 -104 21 -124 q 85 -70 50 -70 l 90 -70 q 109 -73 99 -70 q 115 -75 112 -74 l 117 -76 l 118 -76 q 91 -115 94 -92 l 91 -120 q 104 -152 91 -138 q 141 -167 119 -167 l 144 -167 q 196 -140 172 -165 q 231 -57 231 -105 l 231 87 l 111 -1 q 4 120 19 36 l 3 120 q 0 152 1 134 l 1 152 l 1 391 q 39 468 1 427 q 123 535 70 501 q 247 600 185 574 q 269 589 258 595 q 355 469 347 549 m 246 783 l 246 780 q 290 715 246 747 l 190 642 q 121 724 138 679 q 262 861 159 793 l 290 838 q 246 783 248 817 z "},"":{"ha":729,"x_min":0,"x_max":712,"o":"m 540 69 q 610 -64 540 -12 l 611 -64 l 612 -65 l 712 9 q 663 97 663 39 l 663 327 l 663 327 l 663 721 q 652 769 663 747 q 627 803 643 787 q 614 814 621 808 q 602 822 608 819 l 597 825 l 594 827 l 593 827 l 591 828 l 591 828 l 490 753 q 515 732 503 747 q 539 666 539 705 l 539 384 q 444 452 513 425 q 382 465 411 465 l 380 465 l 307 465 l 307 735 q 306 742 307 738 l 306 743 q 265 819 300 787 q 185 857 232 848 q 151 860 168 860 q 90 846 117 860 q 64 827 77 839 q 41 806 53 818 q 33 796 37 802 l 29 792 l 26 788 q 19 781 20 781 l 27 781 q 33 781 31 781 q 39 781 37 781 q 72 779 56 781 q 144 754 117 772 q 155 744 150 749 q 166 730 161 737 q 182 686 180 710 l 182 681 l 183 674 l 182 465 l 171 465 q 103 492 125 465 q 92 511 96 500 q 91 515 92 513 q 153 388 103 434 q 182 367 168 374 l 182 56 q 46 -8 107 50 q 0 -66 16 -38 q 111 -44 56 -44 q 146 -46 129 -44 q 203 -60 175 -50 q 245 -79 225 -67 l 254 -73 l 255 -73 l 355 2 l 355 3 l 356 3 l 341 12 q 319 41 327 25 q 307 90 307 63 l 307 353 q 422 349 346 351 q 500 330 469 346 q 539 298 525 317 l 539 195 l 540 195 l 540 69 m 91 515 q 90 517 90 516 l 90 519 q 91 515 90 517 m 414 1041 l 274 900 l 351 900 l 383 932 q 453 878 412 878 l 458 878 l 533 939 q 414 1041 478 954 z "},"":{"ha":467,"x_min":0,"x_max":450,"o":"m 401 162 q 450 75 401 104 l 350 0 l 349 1 l 349 1 q 278 134 278 54 l 278 441 q 239 493 278 471 l 173 445 l 173 162 q 221 75 173 104 l 121 0 l 120 1 l 119 1 q 49 134 49 54 l 49 664 q 41 704 49 686 q 24 731 35 718 q 0 751 12 745 l 100 826 l 102 826 l 102 825 l 104 825 l 107 823 l 112 820 q 123 812 117 817 q 136 801 130 807 q 161 768 153 785 q 173 719 173 745 l 173 499 l 292 588 q 379 521 352 565 q 401 440 401 486 l 401 162 m 250 1027 q 368 926 313 940 l 294 864 l 288 864 q 218 919 248 864 l 186 886 l 109 886 l 250 1027 z "},"":{"ha":766,"x_min":0,"x_max":749,"o":"m 707 556 l 749 642 l 663 642 l 663 721 q 652 769 663 747 q 627 803 643 787 q 614 814 621 808 q 602 822 608 819 l 597 825 l 594 827 l 593 827 l 591 828 l 591 828 l 490 753 q 515 732 503 747 q 539 666 539 705 l 539 642 l 307 642 l 307 735 q 306 742 307 738 l 306 743 q 265 819 300 787 q 185 857 232 848 q 151 860 168 860 q 90 846 117 860 q 64 827 77 839 q 41 806 53 818 q 33 796 37 802 l 29 792 l 26 788 q 19 781 20 781 l 27 781 q 33 781 31 781 q 39 781 37 781 q 72 779 56 781 q 144 754 117 772 q 155 744 150 749 q 166 730 161 737 q 182 686 180 710 l 182 681 l 183 674 l 183 642 l 149 642 l 107 556 l 182 556 l 182 465 l 171 465 q 103 492 125 465 q 92 511 96 500 q 91 515 92 513 q 153 388 103 434 q 182 367 168 374 l 182 56 q 46 -8 107 50 q 0 -66 16 -38 q 111 -44 56 -44 q 146 -46 129 -44 q 203 -60 175 -50 q 245 -79 225 -67 l 254 -73 l 255 -73 l 355 2 l 355 3 l 356 3 l 341 12 q 319 41 327 25 q 307 90 307 63 l 307 353 q 422 349 346 351 q 500 330 469 346 q 539 298 525 317 l 539 195 l 540 195 l 540 69 q 610 -64 540 -12 l 611 -64 l 612 -65 l 712 9 q 663 97 663 39 l 663 327 l 663 327 l 663 556 l 707 556 m 539 556 l 539 384 q 444 452 513 425 q 382 465 411 465 l 380 465 l 307 465 l 307 556 l 539 556 m 91 515 q 90 517 90 516 l 90 519 q 91 515 90 517 z "},"":{"ha":467,"x_min":-53,"x_max":450,"o":"m 172 602 l 172 499 l 292 588 q 378 521 351 565 q 400 440 400 486 l 401 162 q 450 75 401 104 l 349 0 l 349 1 l 348 1 q 277 134 277 54 l 277 441 q 238 493 277 471 l 172 445 l 172 162 q 220 75 172 104 l 120 0 l 119 1 l 119 1 q 48 134 48 54 l 48 602 l -53 602 l -12 688 l 45 688 q 41 704 44 696 q 24 731 35 718 q -1 751 12 745 l 100 826 l 101 826 l 102 825 l 103 825 l 106 823 l 111 820 q 123 812 117 817 q 136 801 130 807 q 161 768 152 785 q 172 719 172 745 l 172 688 l 271 688 l 230 602 l 172 602 z "},"":{"ha":435,"x_min":0,"x_max":418,"o":"m 385 1013 l 354 992 l 353 992 l 352 991 q 346 989 349 989 q 327 984 336 985 q 313 983 320 983 q 275 995 292 983 l 253 1010 l 232 1025 q 205 1039 216 1037 q 197 1040 201 1040 q 174 1035 186 1040 q 140 1015 155 1027 l 66 962 l 73 943 q 90 956 73 943 q 103 965 96 961 q 110 970 109 970 q 126 975 117 975 q 162 960 142 975 q 186 940 172 954 l 197 929 q 208 920 203 924 q 244 909 224 909 q 262 911 252 909 q 286 919 274 913 q 304 929 296 924 l 393 994 l 385 1013 m 242 60 q 304 142 269 85 q 325 250 325 176 q 306 425 325 319 q 296 532 296 479 q 387 853 296 694 q 261 806 315 806 q 161 864 200 806 l 0 737 q 153 693 81 693 q 203 699 179 693 q 149 562 152 637 q 148 530 148 547 q 157 450 148 492 q 182 288 169 391 q 189 182 189 236 q 184 95 189 139 q 19 -26 118 92 q 54 -1 19 -24 q 92 12 73 12 q 123 2 108 12 q 117 0 119 1 q 123 1 120 1 q 130 -3 127 -1 q 161 -29 144 -15 l 174 -42 q 187 -54 181 -49 q 232 -68 207 -68 q 255 -65 243 -68 q 286 -55 267 -63 q 308 -42 298 -50 l 418 38 q 325 18 358 18 q 295 24 305 18 l 243 58 l 242 60 z "},"":{"ha":239,"x_min":-59,"x_max":267,"o":"m 173 162 q 197 96 173 123 q 222 75 210 81 l 121 0 l 120 1 l 119 1 l 118 1 l 115 3 l 110 6 q 98 14 104 10 q 85 26 92 20 q 60 59 69 41 q 49 107 49 81 l 49 424 q 24 490 49 463 q 0 511 12 505 l 100 586 l 101 586 l 102 585 l 104 585 l 107 583 l 112 580 q 123 572 117 576 q 136 561 130 566 q 161 528 153 545 q 173 479 173 505 l 173 162 m 267 726 l 180 662 q 161 652 171 656 q 137 644 149 646 q 119 642 127 642 q 83 653 99 642 q 73 662 78 656 l 62 673 q 37 693 47 686 q 1 707 17 707 q -15 703 -7 707 q -22 698 -16 703 q -35 689 -29 694 q -52 675 -52 677 l -59 694 l 15 748 q 48 768 29 760 q 72 773 61 773 q 81 772 77 773 q 107 758 92 770 l 127 743 l 149 728 q 188 715 166 715 q 201 717 195 715 q 220 722 212 718 q 227 724 224 722 l 229 725 l 260 745 l 267 726 z "},"":{"ha":435,"x_min":0,"x_max":418,"o":"m 385 995 l 343 909 l 87 909 l 129 995 l 385 995 m 242 60 q 304 142 269 85 q 325 250 325 176 q 306 425 325 319 q 296 532 296 479 q 387 853 296 694 q 261 806 315 806 q 161 864 200 806 l 0 737 q 153 693 81 693 q 203 699 179 693 q 149 562 152 637 q 148 530 148 547 q 157 450 148 492 q 182 288 169 391 q 189 182 189 236 q 184 95 189 139 q 19 -26 118 92 q 54 -1 19 -24 q 92 12 73 12 q 123 2 108 12 q 117 0 119 1 q 123 1 120 1 q 130 -3 127 -1 q 161 -29 144 -15 l 174 -42 q 187 -54 181 -49 q 232 -68 207 -68 q 255 -65 243 -68 q 286 -55 267 -63 q 308 -42 298 -50 l 418 38 q 325 18 358 18 q 295 24 305 18 l 243 58 l 242 60 z "},"":{"ha":239,"x_min":-37,"x_max":259,"o":"m 173 162 q 197 96 173 123 q 222 75 210 81 l 121 0 l 120 1 l 119 1 l 118 1 l 115 3 l 110 6 q 98 14 104 10 q 85 26 92 20 q 60 59 69 41 q 49 107 49 81 l 49 424 q 24 490 49 463 q 0 511 12 505 l 100 586 l 101 586 l 102 585 l 104 585 l 107 583 l 112 580 q 123 572 117 576 q 136 561 130 566 q 161 528 153 545 q 173 479 173 505 l 173 162 m 259 728 l 218 642 l -37 642 l 4 728 l 259 728 z "},"":{"ha":435,"x_min":0,"x_max":418,"o":"m 372 1038 q 212 909 292 909 q 157 924 184 909 q 113 988 128 942 q 205 1066 205 1065 q 203 1047 203 1056 q 213 1016 203 1029 q 260 990 233 991 l 261 990 q 287 998 271 990 q 354 1061 303 1006 l 372 1038 m 242 60 q 304 142 269 85 q 325 250 325 176 q 306 425 325 319 q 296 532 296 479 q 387 853 296 694 q 261 806 315 806 q 161 864 200 806 l 0 737 q 153 693 81 693 q 203 699 179 693 q 149 562 152 637 q 148 530 148 547 q 157 450 148 492 q 182 288 169 391 q 189 182 189 236 q 184 95 189 139 q 19 -26 118 92 q 54 -1 19 -24 q 92 12 73 12 q 123 2 108 12 q 117 0 119 1 q 123 1 120 1 q 130 -3 127 -1 q 161 -29 144 -15 l 174 -42 q 187 -54 181 -49 q 232 -68 207 -68 q 255 -65 243 -68 q 286 -55 267 -63 q 308 -42 298 -50 l 418 38 q 325 18 358 18 q 295 24 305 18 l 243 58 l 242 60 z "},"":{"ha":239,"x_min":-19,"x_max":241,"o":"m 173 479 q 161 528 173 505 q 136 561 153 545 q 123 572 130 566 q 112 580 117 576 l 107 583 l 104 585 l 102 585 l 101 586 l 100 586 l 0 511 q 24 490 12 505 q 49 424 49 463 l 49 107 q 60 59 49 81 q 85 26 69 41 q 98 14 92 20 q 110 6 104 10 l 115 3 l 118 1 l 119 1 l 120 1 l 121 0 l 222 75 q 197 96 210 81 q 173 162 173 123 l 173 479 m 241 770 q 80 642 160 642 q 26 656 53 642 q -19 721 -3 675 q 74 799 74 798 q 71 779 71 789 q 81 749 71 762 q 128 723 102 724 l 130 723 q 155 731 140 723 q 222 793 172 739 l 241 770 z "},"":{"ha":435,"x_min":0,"x_max":418,"o":"m 248 -66 q 183 -142 201 -107 q 167 -198 167 -172 q 183 -243 167 -223 q 229 -264 199 -263 l 232 -264 q 281 -252 255 -264 q 345 -210 296 -245 l 385 -182 l 382 -174 q 316 -195 338 -195 q 311 -195 313 -195 q 275 -175 289 -191 q 264 -136 264 -156 q 334 -23 264 -83 l 418 38 l 415 47 q 327 22 365 22 q 271 39 294 22 l 243 58 l 242 60 q 304 142 269 85 q 325 250 325 176 q 306 425 325 319 q 296 535 296 480 q 382 848 296 694 q 262 805 315 805 q 161 864 201 805 l 0 737 q 153 693 81 693 q 203 699 179 693 q 149 562 152 637 q 148 530 148 547 q 157 450 148 492 q 182 288 169 391 q 189 182 189 236 q 184 95 189 139 q 165 100 176 100 q 102 65 139 100 l 19 -26 q 54 -1 19 -24 q 92 12 73 12 q 123 2 108 12 q 117 0 119 1 q 123 1 120 1 q 130 -3 127 -1 q 161 -29 144 -15 l 174 -42 q 187 -54 181 -49 q 232 -68 207 -68 q 248 -66 239 -68 z "},"":{"ha":239,"x_min":-23,"x_max":222,"o":"m 106 749 q 119 732 111 741 q 140 714 129 722 q 188 701 162 701 q 218 705 202 701 q 158 635 195 661 q 102 616 130 616 q 4 674 54 616 l 106 749 m 104 10 q 98 14 101 12 q 85 26 92 20 q 60 59 69 41 q 49 107 49 81 l 49 424 q 24 490 49 463 q 0 511 12 505 l 100 586 l 101 586 l 102 585 l 104 585 l 107 583 l 112 580 q 123 572 117 576 q 136 561 130 566 q 161 528 153 545 q 173 479 173 505 l 173 162 q 197 96 173 123 q 222 75 210 81 l 146 18 q 75 -96 75 -43 q 85 -135 75 -116 q 121 -155 99 -151 q 126 -155 123 -155 q 193 -134 149 -155 l 195 -142 l 155 -170 q 91 -212 106 -205 q 42 -224 65 -224 l 39 -224 q -7 -203 9 -223 q -23 -158 -23 -183 q -7 -102 -23 -132 q 104 10 20 -52 z "},"":{"ha":435,"x_min":0,"x_max":418,"o":"m 172 991 q 203 937 183 961 q 239 908 221 918 l 340 983 q 272 1065 287 1031 l 172 991 m 242 60 q 304 142 269 85 q 325 250 325 176 q 306 425 325 319 q 296 532 296 479 q 387 853 296 694 q 261 806 315 806 q 161 864 200 806 l 0 737 q 153 693 81 693 q 203 699 179 693 q 149 562 152 637 q 148 530 148 547 q 157 450 148 492 q 182 288 169 391 q 189 182 189 236 q 184 95 189 139 q 19 -26 118 92 q 54 -1 19 -24 q 92 12 73 12 q 123 2 108 12 q 117 0 119 1 q 123 1 120 1 q 130 -3 127 -1 q 161 -29 144 -15 l 174 -42 q 187 -54 181 -49 q 232 -68 207 -68 q 255 -65 243 -68 q 286 -55 267 -63 q 308 -42 298 -50 l 418 38 q 325 18 358 18 q 295 24 305 18 l 243 58 l 242 60 z "},"":{"ha":239,"x_min":0,"x_max":222,"o":"m 173 162 q 197 96 173 123 q 222 75 210 81 l 121 0 l 120 1 l 119 1 l 118 1 l 115 3 l 110 6 q 98 14 104 10 q 85 26 92 20 q 60 59 69 41 q 49 107 49 81 l 49 424 q 24 490 49 463 q 0 511 12 505 l 100 586 l 101 586 l 102 585 l 104 585 l 107 583 l 112 580 q 123 572 117 576 q 136 561 130 566 q 161 528 153 545 q 173 479 173 505 l 173 162 z "},"":{"ha":947,"x_min":0,"x_max":920,"o":"m 242 60 q 304 142 269 85 q 325 250 325 176 q 306 425 325 319 q 296 537 296 481 q 379 848 296 696 q 262 819 313 819 q 161 864 199 819 l 0 737 q 153 693 81 693 q 203 699 179 693 q 149 562 152 637 q 148 530 148 547 q 157 450 148 492 q 182 288 169 391 q 189 182 189 236 q 184 95 189 139 q 174 96 180 96 q 144 90 161 96 q 102 65 121 80 l 10 -2 l 19 -26 q 40 -9 19 -24 l 56 3 l 62 7 l 64 8 l 65 9 q 86 14 75 14 q 123 2 103 14 q 117 0 119 1 q 123 1 120 1 q 130 -3 127 -1 q 161 -29 144 -15 l 174 -42 q 187 -54 181 -49 q 232 -68 207 -68 q 255 -65 243 -68 q 286 -55 267 -63 q 308 -42 298 -50 l 418 38 l 409 62 l 370 36 l 369 36 l 367 35 l 363 33 l 359 32 q 336 26 349 28 q 319 24 328 24 q 271 39 292 24 l 243 58 l 242 60 m 721 702 q 633 712 680 707 q 514 762 591 720 q 393 909 437 805 q 451 873 397 899 q 579 837 505 846 q 701 828 608 833 q 920 612 920 826 q 919 591 920 602 q 781 694 882 693 q 759 570 759 629 q 760 552 759 561 q 779 405 764 484 q 797 298 793 326 q 804 199 804 243 q 783 85 804 124 q 711 -3 750 23 q 672 -25 688 -18 q 591 -42 635 -42 q 546 -38 569 -42 q 470 -2 502 -31 q 431 72 434 29 l 431 77 q 471 24 443 44 q 536 3 500 3 q 633 61 597 3 q 649 170 649 105 q 635 309 649 230 q 616 496 616 422 q 620 551 616 527 q 702 689 631 629 q 721 702 712 695 z "},"":{"ha":473,"x_min":0,"x_max":456,"o":"m 173 162 q 197 96 173 123 q 222 75 210 81 l 121 0 l 120 1 l 119 1 l 118 1 l 115 3 l 110 6 q 98 14 104 10 q 85 26 92 20 q 60 59 69 41 q 49 107 49 81 l 49 424 q 24 490 49 463 q 0 511 12 505 l 100 586 l 101 586 l 102 585 l 104 585 l 107 583 l 112 580 q 123 572 117 576 q 136 561 130 566 q 161 528 153 545 q 173 479 173 505 l 173 162 m 106 749 q 119 732 111 741 q 140 714 129 722 q 188 701 162 701 q 218 705 202 701 q 158 635 195 661 q 102 616 130 616 q 4 674 54 616 l 106 749 m 344 751 q 357 734 349 743 q 378 716 367 724 q 426 703 400 703 q 456 707 440 703 q 396 637 433 663 q 340 618 368 618 q 242 676 292 618 l 344 751 m 419 -59 q 347 -202 419 -137 q 224 -258 286 -258 q 204 -256 214 -258 q 115 -204 152 -249 q 91 -144 91 -174 q 102 -104 91 -124 q 154 -71 119 -71 l 157 -71 q 176 -73 167 -71 q 183 -75 180 -75 l 185 -77 l 186 -77 q 159 -115 161 -92 q 159 -121 159 -118 q 172 -151 159 -138 q 208 -166 187 -166 l 212 -166 q 262 -140 238 -165 q 296 -58 296 -105 l 295 426 q 271 492 295 465 q 246 513 258 507 l 347 588 l 347 588 l 348 587 l 349 587 l 353 585 l 357 582 q 369 574 363 578 q 382 563 376 568 q 408 529 398 547 q 419 481 419 507 l 419 -59 z "},"":{"ha":553,"x_min":0,"x_max":526,"o":"m 328 702 q 240 712 286 707 q 121 762 198 720 q 0 909 43 805 q 58 873 4 899 q 186 837 112 846 q 308 828 215 833 q 526 612 526 826 q 526 591 526 602 q 388 694 489 693 q 366 570 366 629 q 366 552 366 561 q 385 405 370 484 q 404 298 400 326 q 410 199 410 243 q 390 85 410 124 q 318 -3 357 23 q 279 -25 294 -18 q 197 -42 241 -42 q 153 -38 176 -42 q 77 -2 109 -31 q 38 72 41 29 l 38 77 q 78 24 50 44 q 142 3 106 3 q 240 61 203 3 q 253 161 253 98 q 231 372 253 243 l 220 431 q 218 463 218 444 q 227 551 218 498 q 309 689 238 629 q 328 702 319 695 m 308 1074 l 168 932 l 244 932 l 277 965 q 347 910 306 910 l 353 910 l 427 972 q 308 1074 372 987 z "},"":{"ha":427,"x_min":16,"x_max":410,"o":"m 292 785 q 410 684 355 699 l 336 622 l 331 622 q 260 677 290 622 l 228 644 l 151 644 l 292 785 m 345 -59 q 273 -202 345 -137 q 149 -258 212 -258 q 130 -256 140 -258 q 41 -204 77 -249 q 16 -144 16 -174 q 27 -104 16 -124 q 79 -71 44 -71 l 83 -71 q 102 -73 92 -71 q 109 -75 106 -75 l 111 -77 l 111 -77 q 85 -115 87 -92 q 84 -121 84 -118 q 98 -151 84 -138 q 134 -166 113 -166 l 137 -166 q 187 -140 163 -165 q 221 -58 221 -105 l 220 426 q 196 492 220 465 q 172 513 184 507 l 272 588 l 273 588 l 273 587 l 275 587 l 279 585 l 283 582 q 294 574 289 578 q 308 563 302 568 q 333 529 323 547 q 345 481 345 507 l 345 -59 z "},"":{"ha":818,"x_min":0,"x_max":801,"o":"m 801 -40 q 751 -58 775 -58 q 688 -20 718 -58 q 597 160 638 44 q 450 397 557 277 l 631 589 q 683 677 670 631 q 690 724 690 701 q 688 748 690 736 q 631 854 679 805 l 530 779 q 553 755 543 768 q 566 728 564 741 q 566 724 566 726 q 540 674 566 701 l 538 672 q 533 667 536 670 q 514 646 524 657 q 451 579 482 612 q 307 425 353 475 l 307 715 q 306 722 307 718 l 306 722 q 265 799 300 767 q 185 837 232 829 q 153 840 168 840 q 90 825 118 840 q 64 807 77 819 q 41 786 53 798 q 33 776 37 781 l 29 772 l 26 768 q 19 760 20 760 q 27 761 23 761 l 39 761 q 72 758 56 760 q 144 734 117 752 q 155 724 150 730 q 166 709 161 718 q 182 666 180 690 l 182 661 l 183 654 l 182 397 l 182 56 q 46 -8 107 51 q 0 -66 16 -37 q 109 -43 55 -43 q 146 -46 128 -43 q 203 -60 175 -50 q 245 -79 225 -67 l 254 -72 l 255 -73 l 355 2 l 355 3 l 356 3 l 341 13 q 319 41 327 25 q 307 90 307 63 l 307 304 q 489 49 374 290 q 533 -43 495 35 q 624 -149 572 -121 q 689 -165 654 -165 q 737 -157 712 -165 q 801 -40 798 -139 m 360 -243 q 316 -299 358 -277 l 345 -322 q 485 -185 447 -254 q 416 -102 468 -140 l 316 -176 q 360 -241 360 -208 l 360 -243 z "},"":{"ha":475,"x_min":0,"x_max":458,"o":"m 298 469 q 254 492 275 475 l 173 432 l 173 376 l 298 469 m 49 664 q 41 704 49 686 q 24 731 35 718 q 0 751 12 745 l 101 826 l 102 826 l 102 825 l 104 825 l 107 823 l 112 820 q 123 812 118 817 q 136 801 130 807 q 161 768 153 785 q 173 719 173 745 l 173 487 l 322 598 l 323 597 l 323 599 q 336 581 329 589 q 359 564 347 570 q 406 551 380 551 q 435 555 420 551 q 401 506 423 530 q 361 475 382 486 q 321 465 341 465 q 309 466 315 465 q 389 399 363 442 q 409 322 409 366 l 409 162 q 458 75 409 104 l 357 0 l 357 1 l 356 1 q 286 130 288 52 l 286 323 q 246 375 286 352 l 173 321 l 173 162 q 222 75 173 104 l 121 0 l 120 1 l 119 1 q 49 134 49 54 l 49 664 m 189 -209 l 189 -206 q 144 -142 189 -174 l 245 -68 q 314 -151 296 -105 q 173 -288 276 -220 l 144 -264 q 189 -209 186 -243 z "},"":{"ha":475,"x_min":0,"x_max":458,"o":"m 298 469 q 254 492 275 475 l 173 432 l 173 376 l 298 469 m 49 431 q 41 471 49 452 q 24 498 35 485 q 0 518 12 511 l 101 593 l 102 593 l 102 592 l 104 591 l 107 589 l 112 587 q 123 578 118 583 q 136 568 130 574 q 161 534 153 552 q 173 486 173 511 l 173 487 l 322 598 l 323 597 l 323 599 q 336 581 329 589 q 359 564 347 570 q 406 551 380 551 q 435 555 420 551 q 401 506 423 530 q 361 475 382 486 q 321 465 341 465 q 309 466 315 465 q 389 399 363 442 q 409 322 409 366 l 409 162 q 458 75 409 104 l 357 0 l 357 1 l 356 1 q 286 130 288 52 l 286 323 q 246 375 286 352 l 173 321 l 173 162 q 222 75 173 104 l 121 0 l 120 1 l 119 1 q 49 134 49 54 l 49 431 z "},"":{"ha":589,"x_min":0,"x_max":572,"o":"m 148 77 q 310 98 252 98 q 572 28 446 97 l 426 -79 q 178 -9 358 -9 q 0 -23 100 -9 q 83 229 83 64 q 50 472 83 335 q 45 526 45 498 q 64 649 45 586 q 319 867 119 833 q 361 878 338 878 q 434 856 394 878 q 539 732 504 817 q 548 690 548 711 q 534 633 548 662 q 382 493 513 591 l 378 490 l 374 488 l 372 487 q 430 612 430 552 q 380 717 430 667 q 246 779 330 768 q 225 783 236 781 q 198 629 198 728 q 201 564 198 599 q 222 272 222 313 l 222 269 q 148 77 219 173 m 428 1045 l 261 915 q 243 908 253 908 l 241 908 q 222 917 230 909 q 215 936 215 925 q 224 955 215 947 l 365 1113 l 428 1045 z "},"":{"ha":239,"x_min":0,"x_max":221,"o":"m 49 664 q 41 704 49 686 q 24 731 35 718 q 0 751 12 745 l 101 826 l 102 826 l 102 825 l 104 825 l 107 823 l 112 820 q 123 812 118 817 q 136 801 130 807 q 161 768 153 785 q 173 719 173 745 l 173 161 q 221 75 173 103 l 121 0 l 120 1 l 119 1 q 49 134 49 54 l 49 664 m 217 1025 l 50 895 q 33 888 42 888 l 31 888 q 12 897 19 889 q 4 916 4 905 q 13 935 5 928 l 155 1093 l 217 1025 z "},"":{"ha":589,"x_min":0,"x_max":572,"o":"m 148 77 q 310 98 252 98 q 572 28 446 97 l 426 -79 q 178 -9 358 -9 q 0 -23 100 -9 q 83 229 83 64 q 50 472 83 335 q 45 526 45 498 q 64 649 45 586 q 319 867 119 833 q 361 878 338 878 q 434 856 394 878 q 539 732 504 817 q 548 690 548 711 q 534 633 548 662 q 382 493 513 591 l 378 490 l 374 488 l 372 487 q 430 612 430 552 q 380 717 430 667 q 246 779 330 768 q 225 783 236 781 q 198 629 198 728 q 201 564 198 599 q 222 272 222 313 l 222 269 q 148 77 219 173 m 245 -243 l 245 -241 q 201 -176 245 -208 l 302 -102 q 371 -185 353 -140 q 230 -322 333 -254 l 201 -299 q 245 -243 243 -277 z "},"":{"ha":239,"x_min":0,"x_max":221,"o":"m 49 664 q 41 704 49 686 q 24 731 35 718 q 0 751 12 745 l 101 826 l 102 826 l 102 825 l 104 825 l 107 823 l 112 820 q 123 812 118 817 q 136 801 130 807 q 161 768 153 785 q 173 719 173 745 l 173 161 q 221 75 173 103 l 121 0 l 120 1 l 119 1 q 49 134 49 54 l 49 664 m 83 -210 l 83 -207 q 39 -142 83 -174 l 140 -68 q 208 -151 191 -106 q 68 -288 171 -220 l 39 -264 q 83 -210 81 -243 z "},"":{"ha":589,"x_min":0,"x_max":572,"o":"m 393 727 l 393 730 q 349 794 393 763 l 450 869 q 518 786 501 831 q 378 648 481 716 l 349 672 q 393 727 391 693 m 147 87 q 184 94 158 89 l 204 97 l 227 100 q 331 109 284 109 q 572 39 469 108 l 453 -68 q 315 -17 398 -39 q 170 5 241 2 q 141 5 155 5 q 0 -12 68 5 q 64 69 46 14 l 64 69 q 73 126 73 94 q 71 153 73 139 l 40 483 q 37 538 37 510 q 54 667 37 602 q 280 882 104 857 q 229 831 254 870 q 197 751 208 798 q 186 652 186 707 q 187 618 186 635 q 191 575 189 602 l 192 550 l 193 524 q 199 429 197 454 l 201 413 l 203 396 q 205 359 204 376 q 208 294 208 324 l 208 280 q 178 136 205 184 q 147 87 158 103 z "},"":{"ha":409,"x_min":0,"x_max":392,"o":"m 49 664 q 41 704 49 686 q 24 731 35 718 q 0 751 12 745 l 101 826 l 102 826 l 102 825 l 104 825 l 107 823 l 112 820 q 123 812 118 817 q 136 801 130 807 q 161 768 153 785 q 173 719 173 745 l 173 161 q 221 75 173 103 l 121 0 l 120 1 l 119 1 q 49 134 49 54 l 49 664 m 267 684 l 267 687 q 223 751 267 720 l 323 826 q 392 743 375 788 q 252 606 355 673 l 223 629 q 267 684 265 650 z "},"":{"ha":589,"x_min":0,"x_max":572,"o":"m 148 77 q 310 98 252 98 q 572 28 446 97 l 426 -79 q 178 -9 358 -9 q 0 -23 100 -9 q 83 229 83 64 q 50 472 83 335 q 45 526 45 498 q 64 649 45 586 q 319 867 119 833 q 361 878 338 878 q 434 856 394 878 q 539 732 504 817 q 548 690 548 711 q 534 633 548 662 q 382 493 513 591 l 378 490 l 374 488 l 372 487 q 430 612 430 552 q 380 717 430 667 q 246 779 330 768 q 225 783 236 781 q 198 629 198 728 q 201 564 198 599 q 222 272 222 313 l 222 269 q 148 77 219 173 m 363 1067 q 431 984 378 1031 l 330 909 q 294 939 312 919 q 262 993 274 962 l 363 1067 z "},"":{"ha":397,"x_min":0,"x_max":380,"o":"m 311 547 q 380 465 326 512 l 279 390 q 243 419 260 399 q 211 473 222 443 l 311 547 m 49 664 q 41 704 49 686 q 24 731 35 718 q 0 751 12 745 l 101 826 l 102 826 l 102 825 l 104 825 l 107 823 l 112 820 q 123 812 118 817 q 136 801 130 807 q 161 768 153 785 q 173 719 173 745 l 173 161 q 221 75 173 103 l 121 0 l 120 1 l 119 1 q 49 134 49 54 l 49 664 z "},"":{"ha":625,"x_min":0,"x_max":608,"o":"m 229 537 l 282 588 l 342 526 l 237 425 l 237 413 l 239 396 q 242 359 241 372 q 244 294 244 321 l 244 280 q 214 136 242 183 q 184 87 195 104 q 199 90 191 88 q 220 94 209 92 l 241 97 l 264 100 q 368 109 321 109 q 608 39 505 108 l 490 -68 q 351 -17 435 -39 q 206 5 277 2 q 178 5 192 5 q 37 -12 104 5 q 100 69 83 13 l 101 69 q 109 125 109 94 q 108 153 109 139 l 95 288 l 60 254 l 0 315 l 85 397 l 77 483 q 73 538 73 510 q 91 667 73 602 q 317 882 140 857 q 266 831 291 870 q 233 751 244 798 q 223 652 223 707 q 224 618 223 636 q 227 575 225 602 l 229 550 l 229 537 z "},"":{"ha":238,"x_min":-47,"x_max":279,"o":"m 173 476 l 173 161 q 221 75 173 103 l 121 0 l 120 1 l 119 1 q 49 134 49 54 l 49 356 l 13 321 l -47 382 l 49 475 l 49 664 q 41 704 49 686 q 24 731 35 718 q 0 751 12 745 l 101 826 l 102 826 l 102 825 l 104 825 l 107 823 l 112 820 q 123 812 118 817 q 136 801 130 807 q 161 768 153 785 q 173 719 173 745 l 173 596 l 220 642 l 279 580 l 173 476 z "},"":{"ha":763,"x_min":1,"x_max":746,"o":"m 696 90 q 722 24 696 52 q 746 3 734 9 l 645 -72 l 644 -71 l 642 -70 l 640 -68 q 636 -69 637 -69 q 534 -9 582 -61 q 465 92 502 26 q 262 505 399 208 l 262 97 q 311 9 262 39 l 211 -65 l 210 -64 l 210 -64 q 138 69 138 -12 l 139 645 q 118 723 139 696 q 59 751 97 751 q 1 723 27 751 l 1 725 q 15 776 1 751 q 50 812 28 799 q 119 828 78 828 q 277 727 249 825 l 573 121 l 573 671 q 549 737 573 709 q 524 758 536 751 l 625 833 l 625 832 l 627 831 l 628 831 l 631 829 l 635 827 q 648 819 642 823 q 661 807 654 813 q 686 774 677 792 q 697 726 697 751 l 696 90 m 564 985 l 397 854 q 379 848 389 848 l 377 848 q 358 856 366 848 q 351 876 351 865 q 359 895 351 887 l 501 1053 l 564 985 z "},"":{"ha":467,"x_min":0,"x_max":450,"o":"m 172 162 q 221 75 172 104 l 121 0 l 120 1 l 119 1 q 49 134 49 54 l 49 424 q 24 490 49 463 q 0 511 12 505 l 100 586 l 101 586 l 103 585 l 106 583 l 110 581 q 120 574 115 578 q 132 565 126 570 q 155 538 146 553 q 172 498 168 519 l 292 588 q 379 521 352 565 q 401 440 401 486 l 401 162 q 450 75 401 104 l 349 0 l 349 1 l 348 1 q 277 134 277 54 l 277 441 q 239 493 277 470 l 172 445 l 172 162 m 367 778 l 199 647 q 182 640 192 640 l 180 640 q 161 649 169 642 q 154 669 154 658 q 162 688 154 680 l 304 846 l 367 778 z "},"":{"ha":763,"x_min":1,"x_max":746,"o":"m 696 90 q 722 24 696 52 q 746 3 734 9 l 645 -72 l 644 -71 l 642 -70 l 640 -68 q 636 -69 637 -69 q 534 -9 582 -61 q 465 92 502 26 q 262 505 399 208 l 262 97 q 311 9 262 39 l 211 -65 l 210 -64 l 210 -64 q 138 69 138 -12 l 139 645 q 118 723 139 696 q 59 751 97 751 q 1 723 27 751 l 1 725 q 15 776 1 751 q 50 812 28 799 q 119 828 78 828 q 277 727 249 825 l 573 121 l 573 671 q 549 737 573 709 q 524 758 536 751 l 625 833 l 625 832 l 627 831 l 628 831 l 631 829 l 635 827 q 648 819 642 823 q 661 807 654 813 q 686 774 677 792 q 697 726 697 751 l 696 90 m 381 -243 l 381 -241 q 338 -176 381 -208 l 438 -102 q 507 -185 490 -140 q 366 -322 469 -254 l 338 -298 q 381 -243 379 -277 z "},"":{"ha":467,"x_min":0,"x_max":450,"o":"m 172 162 q 221 75 172 104 l 121 0 l 120 1 l 119 1 q 49 134 49 54 l 49 424 q 24 490 49 463 q 0 511 12 505 l 100 586 l 101 586 l 103 585 l 106 583 l 110 581 q 120 574 115 578 q 132 565 126 570 q 155 538 146 553 q 172 498 168 519 l 292 588 q 379 521 352 565 q 401 440 401 486 l 401 162 q 450 75 401 104 l 349 0 l 349 1 l 348 1 q 277 134 277 54 l 277 441 q 239 493 277 470 l 172 445 l 172 162 m 191 -210 l 191 -207 q 147 -142 191 -174 l 248 -68 q 316 -151 298 -106 q 175 -288 278 -220 l 147 -265 q 191 -210 189 -243 z "},"":{"ha":763,"x_min":1,"x_max":746,"o":"m 696 90 q 722 24 696 52 q 746 3 734 9 l 645 -72 l 644 -71 l 642 -70 l 640 -68 q 636 -69 637 -69 q 534 -9 582 -61 q 465 92 502 26 q 262 505 399 208 l 262 97 q 311 9 262 39 l 211 -65 l 210 -64 l 210 -64 q 138 69 138 -12 l 139 645 q 118 723 139 696 q 59 751 97 751 q 1 723 27 751 l 1 725 q 15 776 1 751 q 50 812 28 799 q 119 828 78 828 q 277 727 249 825 l 573 121 l 573 671 q 549 737 573 709 q 524 758 536 751 l 625 833 l 625 832 l 627 831 l 628 831 l 631 829 l 635 827 q 648 819 642 823 q 661 807 654 813 q 686 774 677 792 q 697 726 697 751 l 696 90 m 389 827 q 271 928 326 914 l 345 991 l 350 991 q 420 935 391 991 l 453 968 l 530 968 l 389 827 z "},"":{"ha":467,"x_min":0,"x_max":450,"o":"m 172 162 q 221 75 172 104 l 121 0 l 120 1 l 119 1 q 49 134 49 54 l 49 424 q 24 490 49 463 q 0 511 12 505 l 100 586 l 101 586 l 103 585 l 106 583 l 110 581 q 120 574 115 578 q 132 565 126 570 q 155 538 146 553 q 172 498 168 519 l 292 588 q 379 521 352 565 q 401 440 401 486 l 401 162 q 450 75 401 104 l 349 0 l 349 1 l 348 1 q 277 134 277 54 l 277 441 q 239 493 277 470 l 172 445 l 172 162 m 214 628 q 95 730 151 715 l 170 791 l 175 791 q 245 736 216 791 l 278 769 l 355 769 l 214 628 z "},"":{"ha":640,"x_min":0,"x_max":623,"o":"m 345 162 q 394 75 345 104 l 294 0 l 293 1 l 292 1 q 222 134 222 54 l 222 424 q 197 490 222 463 q 173 511 185 505 l 273 586 l 274 586 l 276 585 l 279 583 l 283 581 q 293 574 288 578 q 304 565 299 570 q 328 538 319 553 q 345 498 340 519 l 465 588 q 552 521 525 565 q 574 440 574 486 l 574 162 q 623 75 574 104 l 522 0 l 522 1 l 521 1 q 450 134 450 54 l 450 441 q 412 493 450 470 l 345 445 l 345 162 m 44 500 l 44 503 q 0 567 44 536 l 100 642 q 169 559 152 604 q 28 421 132 489 l 0 445 q 44 500 42 466 z "},"":{"ha":714,"x_min":1,"x_max":697,"o":"m 573 671 q 549 737 573 709 q 524 758 536 751 l 625 833 l 625 832 l 627 831 l 628 831 l 631 829 l 635 827 q 648 819 642 823 q 661 807 654 813 q 686 774 677 792 q 697 726 697 751 l 696 -69 l 695 -69 q 625 -201 691 -141 q 503 -257 564 -257 q 483 -256 492 -257 q 395 -203 431 -248 q 371 -144 371 -174 q 382 -103 371 -123 q 433 -70 399 -70 l 437 -70 q 456 -73 446 -70 q 463 -75 460 -74 l 465 -76 l 465 -76 q 439 -115 441 -92 q 438 -121 438 -117 q 452 -151 438 -137 q 487 -165 467 -165 l 490 -165 q 543 -142 517 -164 q 551 -119 551 -134 q 524 -41 551 -92 l 262 505 l 262 97 q 311 9 262 39 l 211 -65 l 210 -64 l 210 -64 q 138 69 138 -12 l 139 645 q 118 723 139 696 q 59 751 97 751 q 1 723 27 751 l 1 725 q 15 776 1 751 q 50 812 28 799 q 119 828 78 828 q 277 727 249 825 l 573 121 l 573 671 z "},"":{"ha":418,"x_min":0,"x_max":401,"o":"m 401 -124 q 389 -172 401 -150 q 364 -205 380 -191 q 351 -217 358 -212 q 340 -225 346 -221 l 335 -228 l 332 -230 l 330 -231 l 330 -231 l 329 -231 l 228 -157 q 252 -136 240 -150 q 277 -69 277 -108 l 277 441 q 239 493 277 470 l 172 445 l 172 162 q 221 75 172 104 l 121 0 l 120 1 l 119 1 q 49 134 49 54 l 49 424 q 24 490 49 463 q 0 511 12 505 l 100 586 l 101 586 l 103 585 l 106 583 l 110 581 q 120 574 115 578 q 132 565 126 570 q 155 538 146 553 q 172 498 168 519 l 292 588 q 379 521 352 565 q 401 440 401 486 l 401 -124 z "},"":{"ha":819,"x_min":5,"x_max":800,"o":"m 659 259 q 667 340 667 301 q 633 486 667 418 q 409 688 570 612 q 365 701 394 695 q 340 702 353 702 q 246 684 294 702 q 177 637 206 670 q 137 562 149 604 q 125 477 125 518 q 131 421 125 448 q 189 288 144 359 q 494 60 283 139 q 659 259 640 174 m 777 556 q 800 433 799 495 l 800 425 q 779 309 800 363 q 424 -80 723 153 q 372 -62 419 -80 q 309 -38 322 -44 q 135 83 206 12 q 24 259 55 162 q 5 379 5 323 q 6 407 5 393 q 52 549 13 475 q 168 689 87 614 q 268 765 196 715 q 355 819 339 815 q 365 820 359 820 q 457 808 389 820 q 623 741 543 793 q 777 556 736 666 m 551 975 l 510 889 l 254 889 l 296 975 l 551 975 z "},"":{"ha":414,"x_min":8,"x_max":363,"o":"m 344 98 l 216 0 q 197 2 207 1 q 173 7 185 4 q 113 36 140 17 q 15 212 36 90 q 8 287 8 249 q 18 380 8 332 q 74 509 33 457 q 214 597 125 574 q 363 253 363 554 q 356 104 363 184 l 344 98 m 246 237 q 143 507 245 506 q 113 372 113 454 q 123 261 113 321 q 161 170 130 214 q 246 109 195 125 l 246 237 m 334 728 l 293 642 l 37 642 l 79 728 l 334 728 z "},"":{"ha":819,"x_min":5,"x_max":800,"o":"m 659 259 q 494 60 640 174 q 189 288 283 139 q 131 421 144 359 q 125 477 125 448 q 137 562 125 518 q 177 637 149 604 q 246 684 206 670 q 340 702 294 702 q 365 701 353 702 q 409 688 394 695 q 633 486 570 612 q 667 340 667 418 q 659 259 667 301 m 777 556 q 623 741 736 666 q 457 808 543 793 q 365 820 389 820 q 355 819 359 820 q 268 765 339 815 q 168 689 196 715 q 52 549 87 614 q 6 407 13 475 q 5 379 5 393 q 24 259 5 323 q 135 83 55 162 q 309 -38 206 12 q 372 -62 322 -44 q 424 -80 419 -80 q 779 309 723 153 q 800 425 800 363 l 800 433 q 777 556 799 495 m 532 1018 q 372 889 452 889 q 317 904 345 889 q 273 968 288 922 q 366 1046 366 1046 q 363 1027 363 1036 q 373 996 363 1009 q 420 970 393 972 l 421 970 q 447 979 431 970 q 514 1041 463 987 l 532 1018 z "},"":{"ha":414,"x_min":8,"x_max":363,"o":"m 356 104 q 363 253 363 184 q 214 597 363 554 q 74 509 125 574 q 18 380 33 457 q 8 287 8 332 q 15 212 8 249 q 113 36 36 90 q 173 7 140 17 q 197 2 185 4 q 216 0 207 1 l 344 98 l 356 104 m 246 109 q 161 170 195 125 q 123 261 130 214 q 113 372 113 321 q 143 507 113 454 q 246 237 245 506 l 246 109 m 316 770 q 155 642 235 642 q 100 656 127 642 q 56 721 71 675 q 149 799 149 798 q 146 779 146 788 q 156 749 146 762 q 203 723 176 724 l 205 723 q 231 731 215 723 q 297 793 247 739 l 316 770 z "},"":{"ha":819,"x_min":5,"x_max":800,"o":"m 659 259 q 667 340 667 301 q 633 486 667 418 q 409 688 570 612 q 365 701 394 695 q 340 702 353 702 q 246 684 294 702 q 177 637 206 670 q 137 562 149 604 q 125 477 125 518 q 131 421 125 448 q 189 288 144 359 q 494 60 283 139 q 659 259 640 174 m 777 556 q 800 433 799 495 l 800 425 q 779 309 800 363 q 424 -80 723 153 q 372 -62 419 -80 q 309 -38 322 -44 q 135 83 206 12 q 24 259 55 162 q 5 379 5 323 q 6 407 5 393 q 52 549 13 475 q 168 689 87 614 q 268 765 196 715 q 355 819 339 815 q 365 820 359 820 q 457 808 389 820 q 623 741 543 793 q 777 556 736 666 m 413 1076 l 315 904 q 301 891 311 895 q 292 890 296 890 q 281 892 286 890 q 268 906 272 897 q 266 916 266 911 q 269 926 266 920 l 335 1112 l 413 1076 m 539 1076 l 441 904 q 427 891 437 895 q 418 890 422 890 q 408 892 412 890 q 394 906 398 897 q 392 916 392 911 q 395 926 392 920 l 461 1112 l 539 1076 z "},"":{"ha":414,"x_min":8,"x_max":363,"o":"m 344 98 l 216 0 q 197 2 207 1 q 173 7 185 4 q 113 36 140 17 q 15 212 36 90 q 8 287 8 249 q 18 380 8 332 q 74 509 33 457 q 214 597 125 574 q 363 253 363 554 q 356 104 363 184 l 344 98 m 246 237 q 143 507 245 506 q 113 372 113 454 q 123 261 113 321 q 161 170 130 214 q 246 109 195 125 l 246 237 m 224 828 l 125 656 q 111 643 121 646 q 102 642 106 642 q 92 644 97 642 q 78 658 82 648 q 76 667 76 663 q 79 677 76 672 l 145 864 l 224 828 m 350 828 l 252 656 q 237 643 247 646 q 229 642 233 642 q 218 644 223 642 q 204 658 208 648 q 202 667 202 663 q 205 677 202 672 l 271 864 l 350 828 z "},"":{"ha":1018,"x_min":5,"x_max":1001,"o":"m 190 287 q 503 53 287 133 q 565 134 565 83 q 563 155 565 144 l 536 406 q 534 501 534 422 q 536 682 534 569 q 404 703 431 696 q 346 711 376 711 q 249 692 298 711 q 178 644 208 677 q 137 568 149 610 q 125 480 125 523 q 131 422 125 451 q 190 287 144 359 m 643 52 q 738 62 690 62 q 988 6 857 62 l 871 -102 q 749 -59 826 -77 q 599 -41 675 -41 q 437 -61 518 -41 l 423 -71 q 372 -53 418 -71 q 309 -28 322 -35 q 135 92 206 21 q 24 269 55 171 q 5 385 5 330 q 7 416 5 401 q 52 557 13 484 q 167 697 87 623 q 239 756 195 724 l 250 765 l 262 774 q 288 791 277 784 q 340 821 317 811 q 393 836 368 833 l 397 836 q 454 828 422 828 l 456 828 l 720 830 q 734 831 727 831 q 857 801 795 831 q 953 719 918 772 q 1001 552 998 652 q 997 569 1000 559 q 989 587 994 578 q 972 608 982 597 q 789 671 919 664 l 713 673 q 686 529 686 618 q 687 497 686 513 l 694 420 l 709 416 l 724 410 q 753 402 741 406 q 795 397 777 397 q 807 397 801 397 q 834 411 823 401 q 848 431 843 418 q 854 457 854 444 q 888 370 888 408 q 885 349 888 359 q 869 321 880 334 q 860 314 865 317 q 857 311 859 313 q 854 310 855 311 q 803 296 834 296 q 786 296 795 296 q 749 303 770 298 q 732 308 742 305 l 723 311 l 715 313 q 703 317 711 314 q 708 234 708 268 q 707 209 708 220 q 677 106 703 150 q 643 52 655 69 z "},"":{"ha":623,"x_min":8,"x_max":606,"o":"m 246 237 q 143 507 245 506 q 113 372 113 454 q 123 261 113 321 q 161 170 130 214 q 246 109 195 125 l 246 237 m 395 509 q 365 372 365 456 q 371 292 365 335 l 488 381 l 395 509 m 320 80 l 216 0 q 197 2 207 1 q 173 7 185 4 q 113 36 140 17 q 15 212 36 90 q 8 287 8 249 q 18 380 8 332 q 74 509 33 457 q 214 597 125 574 q 320 503 283 578 q 466 600 371 574 l 602 412 l 598 409 l 380 241 q 397 196 387 218 q 436 145 414 166 q 557 101 484 101 q 606 106 581 101 l 468 0 q 450 2 459 1 q 425 7 437 4 q 366 36 393 17 q 320 80 340 54 z "},"":{"ha":813,"x_min":0,"x_max":796,"o":"m 528 254 q 364 301 450 298 l 361 336 q 356 499 356 429 q 380 690 356 644 l 434 683 q 556 622 507 672 q 614 507 600 576 q 620 453 620 480 q 608 376 620 414 q 528 254 589 308 m 568 228 q 698 351 668 310 q 747 514 747 418 l 747 519 q 688 689 746 617 q 536 790 632 758 q 418 815 488 806 q 64 862 124 826 q 0 907 4 898 l 67 806 q 146 746 101 771 q 240 709 197 718 l 325 698 q 223 540 237 633 q 214 433 214 477 q 216 395 214 412 l 226 286 q 47 186 111 254 q 214 206 133 206 l 233 206 l 243 98 q 245 66 245 81 q 222 -28 245 7 q 191 -56 207 -51 q 288 -8 251 -47 q 341 79 310 16 q 368 186 363 124 q 542 17 490 132 q 640 -123 593 -99 q 697 -138 667 -138 q 739 -132 718 -138 q 796 -28 793 -115 q 758 -41 776 -41 q 680 50 711 -41 q 568 228 637 174 m 540 1116 l 398 958 q 389 939 389 951 q 397 920 389 928 q 416 911 404 912 l 418 911 q 435 918 427 911 l 602 1048 l 540 1116 z "},"":{"ha":397,"x_min":0,"x_max":380,"o":"m 292 588 q 380 519 353 564 l 277 444 q 239 493 276 471 l 173 445 l 173 163 q 180 123 173 142 q 197 96 186 109 q 222 75 210 81 l 121 0 l 120 1 l 119 1 l 118 1 l 115 3 l 110 6 q 98 14 104 10 q 85 26 92 20 q 60 59 69 41 q 49 107 49 81 l 49 424 q 24 490 49 463 q 0 511 12 505 l 100 586 l 101 586 l 103 585 l 106 583 l 110 581 q 120 574 115 578 q 132 565 126 570 q 155 538 146 553 q 171 498 168 519 l 292 588 m 332 778 l 165 647 q 147 640 157 640 l 145 640 q 126 649 134 642 q 119 669 119 658 q 127 688 119 680 l 269 846 l 332 778 z "},"":{"ha":813,"x_min":0,"x_max":796,"o":"m 528 254 q 364 301 450 298 l 361 336 q 356 499 356 429 q 380 690 356 644 l 434 683 q 556 622 507 672 q 614 507 600 576 q 620 453 620 480 q 608 376 620 414 q 528 254 589 308 m 568 228 q 698 351 668 310 q 747 514 747 418 l 747 519 q 688 689 746 617 q 536 790 632 758 q 418 815 488 806 q 64 862 124 826 q 0 907 4 898 l 67 806 q 146 746 101 771 q 240 709 197 718 l 325 698 q 223 540 237 633 q 214 433 214 477 q 216 395 214 412 l 226 286 q 47 186 111 254 q 214 206 133 206 l 233 206 l 243 98 q 245 66 245 81 q 222 -28 245 7 q 191 -56 207 -51 q 288 -8 251 -47 q 341 79 310 16 q 368 186 363 124 q 542 17 490 132 q 640 -123 593 -99 q 697 -138 667 -138 q 739 -132 718 -138 q 796 -28 793 -115 q 758 -41 776 -41 q 680 50 711 -41 q 568 228 637 174 m 364 -210 q 320 -265 362 -243 l 349 -288 q 490 -151 452 -220 q 421 -68 472 -106 l 320 -142 q 364 -207 364 -174 l 364 -210 z "},"":{"ha":397,"x_min":0,"x_max":380,"o":"m 292 588 q 380 519 353 564 l 277 444 q 239 493 276 471 l 173 445 l 173 163 q 180 123 173 142 q 197 96 186 109 q 222 75 210 81 l 121 0 l 120 1 l 119 1 l 118 1 l 115 3 l 110 6 q 98 14 104 10 q 85 26 92 20 q 60 59 69 41 q 49 107 49 81 l 49 424 q 24 490 49 463 q 0 511 12 505 l 100 586 l 101 586 l 103 585 l 106 583 l 110 581 q 120 574 115 578 q 132 565 126 570 q 155 538 146 553 q 171 498 168 519 l 292 588 m 94 -210 l 94 -207 q 50 -142 94 -174 l 151 -68 q 219 -151 201 -106 q 78 -288 181 -220 l 50 -265 q 94 -210 92 -243 z "},"":{"ha":813,"x_min":0,"x_max":796,"o":"m 528 254 q 364 301 450 298 l 361 336 q 356 499 356 429 q 380 690 356 644 l 434 683 q 556 622 507 672 q 614 507 600 576 q 620 453 620 480 q 608 376 620 414 q 528 254 589 308 m 568 228 q 698 351 668 310 q 747 514 747 418 l 747 519 q 688 689 746 617 q 536 790 632 758 q 418 815 488 806 q 64 862 124 826 q 0 907 4 898 l 67 806 q 146 746 101 771 q 240 709 197 718 l 325 698 q 223 540 237 633 q 214 433 214 477 q 216 395 214 412 l 226 286 q 47 186 111 254 q 214 206 133 206 l 233 206 l 243 98 q 245 66 245 81 q 222 -28 245 7 q 191 -56 207 -51 q 288 -8 251 -47 q 341 79 310 16 q 368 186 363 124 q 542 17 490 132 q 640 -123 593 -99 q 697 -138 667 -138 q 739 -132 718 -138 q 796 -28 793 -115 q 758 -41 776 -41 q 680 50 711 -41 q 568 228 637 174 m 431 889 l 572 1030 l 495 1030 l 463 998 q 393 1053 433 1053 l 387 1053 l 313 991 q 431 889 368 976 z "},"":{"ha":397,"x_min":0,"x_max":380,"o":"m 292 588 q 380 519 353 564 l 277 444 q 239 493 276 471 l 173 445 l 173 163 q 180 123 173 142 q 197 96 186 109 q 222 75 210 81 l 121 0 l 120 1 l 119 1 l 118 1 l 115 3 l 110 6 q 98 14 104 10 q 85 26 92 20 q 60 59 69 41 q 49 107 49 81 l 49 424 q 24 490 49 463 q 0 511 12 505 l 100 586 l 101 586 l 103 585 l 106 583 l 110 581 q 120 574 115 578 q 132 565 126 570 q 155 538 146 553 q 171 498 168 519 l 292 588 m 179 628 q 60 730 115 715 l 135 791 l 140 791 q 210 736 181 791 l 243 769 l 319 769 l 179 628 z "},"":{"ha":709,"x_min":0,"x_max":691,"o":"m 60 145 l 60 144 l 60 145 m 406 619 q 314 661 364 632 q 271 688 296 671 l 229 716 q 227 692 227 703 l 227 685 q 317 528 231 597 q 397 475 347 504 l 418 463 l 438 451 q 477 429 465 436 q 532 397 493 420 l 565 377 l 597 358 q 675 311 675 312 q 638 254 673 306 q 559 136 599 193 q 419 -45 443 -34 q 370 -56 395 -56 q 298 -37 336 -56 q 243 -4 276 -26 l 216 14 q 190 31 201 24 q 92 60 142 60 q 0 20 36 60 q 100 158 37 114 q 190 187 142 187 q 278 164 232 187 q 353 119 307 149 l 388 95 q 427 73 409 82 q 447 67 437 67 q 509 125 479 67 q 530 180 524 153 q 533 202 533 194 q 530 212 533 210 q 455 256 496 231 l 383 298 q 236 386 288 355 q 114 507 146 439 q 98 581 98 541 q 104 635 98 607 q 124 699 111 663 l 136 730 l 149 761 l 150 763 l 288 865 q 379 811 322 848 l 423 783 q 469 756 448 767 q 543 739 502 739 l 548 739 q 621 753 583 739 q 650 765 635 758 q 673 777 662 770 q 691 785 690 785 q 615 704 663 745 q 526 637 582 676 q 450 612 491 612 q 406 619 429 612 m 515 1046 l 348 915 q 330 908 340 908 l 328 908 q 309 917 317 909 q 302 936 302 925 q 311 956 302 948 l 452 1113 l 515 1046 z "},"":{"ha":355,"x_min":4,"x_max":338,"o":"m 225 349 q 271 322 225 349 q 326 243 318 295 q 332 186 332 212 q 330 165 332 176 q 300 97 325 123 q 191 14 296 94 q 147 0 171 0 q 80 23 117 0 q 9 121 14 63 l 103 191 q 119 157 108 174 q 193 101 151 112 q 206 99 200 99 q 234 115 225 99 q 237 125 236 119 l 238 130 l 238 135 q 239 143 239 139 q 237 155 239 149 q 151 253 225 216 q 56 306 76 291 q 4 397 4 345 l 4 405 q 41 485 7 453 l 47 491 l 178 589 q 191 589 184 589 q 274 559 233 589 q 338 481 321 526 l 241 408 q 220 437 241 411 q 179 475 198 465 q 136 489 163 486 l 134 489 q 122 486 126 489 l 121 485 q 106 455 106 474 l 106 454 q 110 439 107 447 q 115 427 112 433 q 225 349 132 403 m 313 778 l 146 647 q 128 640 138 640 l 126 640 q 107 649 115 642 q 100 669 100 658 q 109 688 100 680 l 250 846 l 313 778 z "},"":{"ha":709,"x_min":0,"x_max":691,"o":"m 60 145 l 60 144 l 60 145 m 406 619 q 314 661 364 632 q 271 688 296 671 l 229 716 q 227 692 227 703 l 227 685 q 317 528 231 597 q 397 475 347 504 l 418 463 l 438 451 q 477 429 465 436 q 532 397 493 420 l 565 377 l 597 358 q 675 311 675 312 q 638 254 673 306 q 559 136 599 193 q 419 -45 443 -34 q 370 -56 395 -56 q 298 -37 336 -56 q 243 -4 276 -26 l 216 14 q 190 31 201 24 q 92 60 142 60 q 0 20 36 60 q 100 158 37 114 q 190 187 142 187 q 278 164 232 187 q 353 119 307 149 l 388 95 q 427 73 409 82 q 447 67 437 67 q 509 125 479 67 q 530 180 524 153 q 533 202 533 194 q 530 212 533 210 q 455 256 496 231 l 383 298 q 236 386 288 355 q 114 507 146 439 q 98 581 98 541 q 104 635 98 607 q 124 699 111 663 l 136 730 l 149 761 l 150 763 l 288 865 q 379 811 322 848 l 423 783 q 469 756 448 767 q 543 739 502 739 l 548 739 q 621 753 583 739 q 650 765 635 758 q 673 777 662 770 q 691 785 690 785 q 615 704 663 745 q 526 637 582 676 q 450 612 491 612 q 406 619 429 612 m 392 1072 q 511 970 456 985 l 437 909 l 431 909 q 361 964 390 909 l 328 931 l 252 931 l 392 1072 z "},"":{"ha":355,"x_min":4,"x_max":338,"o":"m 225 349 q 271 322 225 349 q 326 243 318 295 q 332 186 332 212 q 330 165 332 176 q 300 97 325 123 q 191 14 296 94 q 147 0 171 0 q 80 23 117 0 q 9 121 14 63 l 103 191 q 119 157 108 174 q 193 101 151 112 q 206 99 200 99 q 234 115 225 99 q 237 125 236 119 l 238 130 l 238 135 q 239 143 239 139 q 237 155 239 149 q 151 253 225 216 q 56 306 76 291 q 4 397 4 345 l 4 405 q 41 485 7 453 l 47 491 l 178 589 q 191 589 184 589 q 274 559 233 589 q 338 481 321 526 l 241 408 q 220 437 241 411 q 179 475 198 465 q 136 489 163 486 l 134 489 q 122 486 126 489 l 121 485 q 106 455 106 474 l 106 454 q 110 439 107 447 q 115 427 112 433 q 225 349 132 403 m 182 785 q 300 684 245 699 l 226 622 l 220 622 q 151 677 180 622 l 118 644 l 41 644 l 182 785 z "},"":{"ha":709,"x_min":0,"x_max":691,"o":"m 60 145 l 60 144 l 60 145 m 406 619 q 450 612 429 612 q 526 637 491 612 q 615 704 582 676 q 691 785 663 745 q 673 777 690 785 q 650 765 662 770 q 621 753 635 758 q 548 739 583 739 l 543 739 q 469 756 502 739 q 423 783 448 767 l 379 811 q 288 865 322 848 l 150 763 l 149 761 l 136 730 l 124 699 q 104 635 111 663 q 98 581 98 607 q 114 507 98 541 q 236 386 146 439 q 383 298 288 355 l 455 256 q 530 212 496 231 q 533 202 533 210 q 530 180 533 194 q 509 125 524 153 q 447 67 479 67 q 427 73 437 67 q 388 95 409 82 l 353 119 q 278 164 307 149 q 190 187 232 187 q 100 158 142 187 q 0 20 37 114 q 92 60 36 60 q 190 31 142 60 q 216 14 201 24 l 243 -4 q 298 -37 276 -26 q 370 -56 336 -56 q 419 -45 395 -56 q 559 136 443 -34 q 638 254 599 193 q 675 311 673 306 q 597 358 675 312 l 565 377 l 532 397 q 477 429 493 420 q 438 451 465 436 l 418 463 l 397 475 q 317 528 347 504 q 227 685 231 597 l 227 692 q 229 716 227 703 l 271 688 q 314 661 296 671 q 406 619 364 632 m 394 -172 q 347 -130 364 -142 l 435 63 l 367 63 l 282 -121 q 338 -184 336 -165 l 338 -186 q 309 -204 338 -203 l 307 -204 q 258 -190 283 -204 q 256 -189 257 -189 q 288 -220 257 -190 q 333 -259 318 -251 q 363 -272 348 -268 q 379 -274 372 -274 q 401 -269 391 -274 q 420 -252 412 -264 q 427 -227 426 -240 q 420 -203 427 -214 q 394 -172 413 -189 z "},"":{"ha":355,"x_min":4,"x_max":338,"o":"m 137 1 q 80 23 111 4 q 9 121 14 63 l 103 191 q 119 157 108 174 q 193 101 151 112 q 206 99 200 99 q 234 115 225 99 q 237 125 236 119 l 238 130 l 238 135 q 239 143 239 139 q 237 155 239 149 q 151 253 225 216 q 56 306 76 291 q 4 397 4 345 l 4 405 q 41 485 7 453 l 47 491 l 178 589 q 191 589 184 589 q 274 559 233 589 q 338 481 321 526 l 241 408 q 220 437 241 411 q 179 475 198 465 q 136 489 163 486 l 134 489 q 122 486 126 489 l 121 485 q 106 455 106 474 l 106 454 q 110 439 107 447 q 115 427 112 433 q 225 349 132 403 q 326 243 318 295 q 332 186 332 212 q 330 165 332 176 q 300 97 325 123 q 220 37 296 94 l 180 -59 q 228 -101 197 -72 q 254 -132 246 -118 q 260 -154 260 -142 l 260 -156 q 253 -181 260 -170 q 234 -199 246 -193 q 213 -203 224 -203 q 197 -201 205 -203 q 167 -189 182 -197 q 121 -150 152 -180 q 90 -119 90 -119 q 92 -119 91 -119 q 140 -134 116 -134 l 142 -134 q 172 -115 172 -132 l 172 -113 q 115 -51 170 -95 l 137 1 z "},"":{"ha":709,"x_min":0,"x_max":691,"o":"m 60 145 l 60 144 l 60 145 m 406 619 q 314 661 364 632 q 271 688 296 671 l 229 716 q 227 692 227 703 l 227 685 q 317 528 231 597 q 397 475 347 504 l 418 463 l 438 451 q 477 429 465 436 q 532 397 493 420 l 565 377 l 597 358 q 675 311 675 312 q 638 254 673 306 q 559 136 599 193 q 419 -45 443 -34 q 370 -56 395 -56 q 298 -37 336 -56 q 243 -4 276 -26 l 216 14 q 190 31 201 24 q 92 60 142 60 q 0 20 36 60 q 100 158 37 114 q 190 187 142 187 q 278 164 232 187 q 353 119 307 149 l 388 95 q 427 73 409 82 q 447 67 437 67 q 509 125 479 67 q 530 180 524 153 q 533 202 533 194 q 530 212 533 210 q 455 256 496 231 l 383 298 q 236 386 288 355 q 114 507 146 439 q 98 581 98 541 q 104 635 98 607 q 124 699 111 663 l 136 730 l 149 761 l 150 763 l 288 865 q 379 811 322 848 l 423 783 q 469 756 448 767 q 543 739 502 739 l 548 739 q 621 753 583 739 q 650 765 635 758 q 673 777 662 770 q 691 785 690 785 q 615 704 663 745 q 526 637 582 676 q 450 612 491 612 q 406 619 429 612 m 403 890 q 283 991 339 977 l 358 1053 l 363 1053 q 434 998 405 1053 l 467 1030 l 543 1030 l 403 890 z "},"":{"ha":355,"x_min":4,"x_max":338,"o":"m 225 349 q 271 322 225 349 q 326 243 318 295 q 332 186 332 212 q 330 165 332 176 q 300 97 325 123 q 191 14 296 94 q 147 0 171 0 q 80 23 117 0 q 9 121 14 63 l 103 191 q 119 157 108 174 q 193 101 151 112 q 206 99 200 99 q 234 115 225 99 q 237 125 236 119 l 238 130 l 238 135 q 239 143 239 139 q 237 155 239 149 q 151 253 225 216 q 56 306 76 291 q 4 397 4 345 l 4 405 q 41 485 7 453 l 47 491 l 178 589 q 191 589 184 589 q 274 559 233 589 q 338 481 321 526 l 241 408 q 220 437 241 411 q 179 475 198 465 q 136 489 163 486 l 134 489 q 122 486 126 489 l 121 485 q 106 455 106 474 l 106 454 q 110 439 107 447 q 115 427 112 433 q 225 349 132 403 m 160 628 q 41 730 96 715 l 115 791 l 121 791 q 191 736 162 791 l 224 769 l 300 769 l 160 628 z "},"":{"ha":820,"x_min":0,"x_max":803,"o":"m 803 894 l 802 895 l 802 896 q 803 894 802 895 m 237 4 q 254 65 245 33 q 260 173 260 122 q 253 276 260 228 q 230 463 239 369 q 229 487 229 475 q 289 680 229 572 q 123 741 202 690 q 0 896 43 791 q 58 860 4 886 q 186 823 111 833 q 355 814 214 819 q 566 777 497 809 q 688 610 634 743 q 422 673 638 654 l 401 673 q 395 582 395 635 q 421 313 395 477 q 425 275 425 295 q 286 -41 425 153 q 333 -83 303 -54 q 359 -114 351 -100 q 365 -135 365 -124 l 365 -138 q 358 -163 365 -151 q 339 -180 351 -175 q 318 -185 329 -185 q 302 -183 311 -185 q 272 -171 287 -179 q 226 -132 257 -162 q 195 -100 195 -101 q 197 -101 196 -100 q 246 -115 222 -115 l 248 -115 q 277 -97 277 -114 l 277 -95 q 220 -33 275 -77 l 237 4 z "},"":{"ha":249,"x_min":0,"x_max":232,"o":"m 102 13 q 100 14 101 14 q 87 26 93 20 q 62 59 71 41 q 50 107 50 81 l 50 524 l 0 524 l 27 588 l 51 588 l 51 610 q 43 650 51 631 q 26 677 37 664 q 1 697 14 690 l 102 772 l 103 772 l 104 771 l 105 770 l 109 768 l 113 766 q 125 758 119 762 q 138 747 132 753 q 163 713 154 731 q 174 665 174 690 l 174 588 l 232 588 l 205 524 l 174 524 l 174 162 q 199 96 174 123 q 223 75 211 81 l 183 45 l 140 -59 q 188 -101 157 -72 q 214 -132 206 -118 q 220 -154 220 -142 l 220 -156 q 213 -181 220 -170 q 194 -199 206 -193 q 173 -203 184 -203 q 157 -201 165 -203 q 127 -189 142 -197 q 81 -150 112 -180 q 50 -119 50 -119 q 52 -119 51 -119 q 100 -134 76 -134 l 102 -134 q 132 -115 132 -132 l 132 -113 q 75 -51 130 -95 l 102 13 z "},"":{"ha":820,"x_min":0,"x_max":803,"o":"m 803 894 l 802 895 l 802 896 q 803 894 802 895 m 289 680 q 123 741 202 690 q 0 896 43 791 q 58 860 4 886 q 186 823 111 833 q 355 814 214 819 q 566 777 497 809 q 688 610 634 743 q 422 673 638 654 l 401 673 q 395 582 395 635 q 421 313 395 477 q 426 252 426 281 q 187 -54 426 49 q 229 -22 209 -48 q 254 31 245 -1 q 260 142 260 88 q 253 259 260 202 q 230 463 239 369 q 229 487 229 475 q 289 680 229 572 m 350 876 l 490 1017 l 414 1017 l 381 984 q 311 1039 352 1039 l 306 1039 l 231 977 q 350 876 286 962 z "},"":{"ha":439,"x_min":0,"x_max":422,"o":"m 174 524 l 174 162 q 199 96 174 123 q 223 75 211 81 l 123 0 l 122 1 l 121 1 l 119 1 l 116 3 l 111 6 q 100 14 106 10 q 87 26 93 20 q 62 59 71 41 q 50 107 50 81 l 50 524 l 0 524 l 27 588 l 51 588 l 51 610 q 43 650 51 631 q 26 677 37 664 q 1 697 14 690 l 102 772 l 103 772 l 104 771 l 105 770 l 109 768 l 113 766 q 125 758 119 762 q 138 747 132 753 q 163 713 154 731 q 174 665 174 690 l 174 588 l 232 588 l 205 524 l 174 524 m 296 631 l 296 633 q 252 698 296 666 l 353 772 q 422 689 404 734 q 281 552 384 620 l 252 575 q 296 631 294 597 z "},"":{"ha":820,"x_min":0,"x_max":803,"o":"m 803 894 l 802 895 l 802 896 q 803 894 802 895 m 232 439 q 230 463 231 451 q 229 488 229 475 q 289 680 229 572 q 123 741 202 690 q 0 896 43 791 q 58 860 4 886 q 186 823 111 833 q 355 814 214 819 q 566 777 497 809 q 688 610 634 743 q 422 673 638 654 l 401 673 q 395 581 395 635 q 404 439 395 521 l 453 439 l 453 378 l 411 378 q 421 313 416 347 q 426 252 426 281 q 187 -54 426 49 l 229 -22 q 254 31 245 -1 q 260 144 260 89 q 253 259 260 203 q 239 378 245 321 l 179 378 l 179 439 l 232 439 z "},"":{"ha":250,"x_min":0,"x_max":233,"o":"m 50 378 l 50 524 l 0 524 l 27 588 l 51 588 l 51 610 q 43 650 51 631 q 26 677 37 664 q 1 697 14 690 l 102 772 l 103 772 l 104 771 l 105 770 l 109 768 l 113 766 q 125 758 119 762 q 138 747 132 753 q 163 713 154 731 q 174 665 174 690 l 174 588 l 232 588 l 205 524 l 174 524 l 174 378 l 233 378 l 233 315 l 174 315 l 174 162 q 199 96 174 123 q 223 75 211 81 l 123 0 l 122 1 l 121 1 l 119 1 l 116 3 l 111 6 q 100 14 106 10 q 87 26 93 20 q 62 59 71 41 q 50 107 50 81 l 50 315 l 0 315 l 0 378 l 50 378 z "},"":{"ha":643,"x_min":14,"x_max":626,"o":"m 454 95 l 452 95 q 199 -96 201 -97 q 94 -5 137 -58 q 16 199 29 74 q 14 238 14 218 q 100 495 14 363 l 111 511 l 123 527 q 146 561 138 548 q 169 628 169 597 l 169 635 q 147 672 168 656 q 109 687 128 687 l 106 687 q 62 667 78 686 q 51 637 51 653 q 55 615 51 627 l 54 615 l 54 616 q 52 618 53 617 q 43 628 47 623 q 34 642 38 635 q 26 659 28 650 q 19 700 19 680 q 32 748 19 726 q 110 795 54 785 q 132 798 121 798 q 180 785 159 798 q 298 699 220 762 l 267 661 q 203 549 236 621 q 155 397 163 462 q 152 338 152 366 q 174 202 152 266 q 297 35 210 101 l 452 150 l 452 664 q 428 730 452 703 q 404 751 416 745 l 504 826 l 505 826 l 506 825 l 507 825 l 511 823 l 515 820 q 527 812 521 817 q 540 801 534 806 q 565 767 556 785 q 576 719 576 745 l 577 97 q 626 9 577 39 l 526 -65 l 525 -64 l 524 -64 q 454 69 454 -12 l 454 95 m 484 912 l 395 848 q 377 838 387 842 q 353 829 365 832 q 335 827 343 827 q 298 839 315 827 q 288 848 294 842 l 277 859 q 253 879 262 872 q 218 892 234 892 q 201 888 209 892 q 193 884 199 888 q 180 875 187 880 q 163 861 163 863 l 157 880 l 231 934 q 264 954 245 946 q 288 959 277 959 q 296 958 292 959 q 323 944 307 956 l 344 928 l 366 913 q 406 901 382 901 q 418 902 412 901 q 437 907 427 904 q 442 909 439 908 l 444 911 l 445 911 l 476 931 l 484 912 z "},"":{"ha":467,"x_min":0,"x_max":450,"o":"m 401 164 q 408 125 401 143 q 425 98 414 110 q 450 77 437 83 l 349 2 l 349 2 l 347 3 l 344 5 l 340 7 q 330 14 335 10 q 318 23 324 18 q 294 50 304 35 q 279 90 283 69 l 157 0 q 71 67 98 23 q 49 148 49 102 l 49 438 q 41 469 49 454 q 24 493 35 482 q 0 513 12 506 l 100 588 q 138 553 122 576 q 160 510 151 534 q 173 459 170 482 l 173 146 q 212 95 173 117 l 277 143 l 277 426 q 269 465 277 447 q 253 492 263 480 q 228 513 240 507 l 329 588 l 330 588 l 330 587 l 332 587 l 335 585 l 340 582 q 351 574 346 578 q 365 563 359 568 q 390 529 380 547 q 401 481 401 507 q 401 164 401 452 m 388 706 l 300 642 q 282 631 292 636 q 258 623 270 626 q 240 621 248 621 q 203 633 220 621 q 193 642 199 636 l 182 652 q 157 673 168 666 q 122 687 138 687 q 106 683 113 687 q 98 677 104 682 q 85 669 92 673 q 68 655 68 656 l 62 674 l 136 728 q 169 747 150 740 q 193 753 182 753 q 201 751 197 753 q 228 738 212 749 l 248 722 l 270 707 q 309 695 287 695 q 322 696 315 695 q 341 701 332 698 q 347 703 345 702 l 349 705 l 381 725 l 388 706 z "},"":{"ha":643,"x_min":14,"x_max":626,"o":"m 454 95 l 452 95 q 199 -96 201 -97 q 94 -5 137 -58 q 16 199 29 74 q 14 238 14 218 q 100 495 14 363 l 111 511 l 123 527 q 146 561 138 548 q 169 628 169 597 l 169 635 q 147 672 168 656 q 109 687 128 687 l 106 687 q 62 667 78 686 q 51 637 51 653 q 55 615 51 627 l 54 615 l 54 616 q 52 618 53 617 q 43 628 47 623 q 34 642 38 635 q 26 659 28 650 q 19 700 19 680 q 32 748 19 726 q 110 795 54 785 q 132 798 121 798 q 180 785 159 798 q 298 699 220 762 l 267 661 q 203 549 236 621 q 155 397 163 462 q 152 338 152 366 q 174 202 152 266 q 297 35 210 101 l 452 150 l 452 664 q 428 730 452 703 q 404 751 416 745 l 504 826 l 505 826 l 506 825 l 507 825 l 511 823 l 515 820 q 527 812 521 817 q 540 801 534 806 q 565 767 556 785 q 576 719 576 745 l 577 97 q 626 9 577 39 l 526 -65 l 525 -64 l 524 -64 q 454 69 454 -12 l 454 95 m 468 996 l 427 909 l 171 909 l 212 996 l 468 996 z "},"":{"ha":467,"x_min":0,"x_max":450,"o":"m 401 164 q 408 125 401 143 q 425 98 414 110 q 450 77 437 83 l 349 2 l 349 2 l 347 3 l 344 5 l 340 7 q 330 14 335 10 q 318 23 324 18 q 294 50 304 35 q 279 90 283 69 l 157 0 q 71 67 98 23 q 49 148 49 102 l 49 438 q 41 469 49 454 q 24 493 35 482 q 0 513 12 506 l 100 588 q 138 553 122 576 q 160 510 151 534 q 173 459 170 482 l 173 146 q 212 95 173 117 l 277 143 l 277 426 q 269 465 277 447 q 253 492 263 480 q 228 513 240 507 l 329 588 l 330 588 l 330 587 l 332 587 l 335 585 l 340 582 q 351 574 346 578 q 365 563 359 568 q 390 529 380 547 q 401 481 401 507 q 401 164 401 452 m 373 728 l 332 642 l 77 642 l 118 728 l 373 728 z "},"":{"ha":643,"x_min":14,"x_max":626,"o":"m 454 69 q 524 -64 454 -12 l 525 -64 l 526 -65 l 626 9 q 577 97 577 39 l 576 719 q 565 767 576 745 q 540 801 556 785 q 527 812 534 806 q 515 820 521 817 l 511 823 l 507 825 l 506 825 l 505 826 l 504 826 l 404 751 q 428 730 416 745 q 452 664 452 703 l 452 150 l 297 35 q 174 202 210 101 q 152 338 152 266 q 155 397 152 366 q 203 549 163 462 q 267 661 236 621 l 298 699 q 180 785 220 762 q 132 798 159 798 q 110 795 121 798 q 32 748 54 785 q 19 700 19 726 q 26 659 19 680 q 34 642 28 650 q 43 628 38 635 q 52 618 47 623 q 54 616 53 617 l 54 615 l 55 615 q 51 637 51 627 q 62 667 51 653 q 106 687 78 686 l 109 687 q 147 672 128 687 q 169 635 168 656 l 169 628 q 146 561 169 597 q 123 527 138 548 l 111 511 l 100 495 q 14 238 14 363 q 16 199 14 218 q 94 -5 29 74 q 199 -96 137 -58 q 452 95 201 -97 l 454 95 l 454 69 m 484 954 q 323 825 404 825 q 269 840 296 825 q 224 904 240 858 q 317 982 317 981 q 315 962 315 971 q 324 932 315 944 q 372 906 345 907 l 373 906 q 399 913 383 906 q 466 977 415 922 l 484 954 z "},"":{"ha":467,"x_min":0,"x_max":450,"o":"m 401 164 q 401 481 401 452 q 390 529 401 507 q 365 563 380 547 q 351 574 359 568 q 340 582 346 578 l 335 585 l 332 587 l 330 587 l 330 588 l 329 588 l 228 513 q 253 492 240 507 q 269 465 263 480 q 277 426 277 447 l 277 143 l 212 95 q 173 146 173 117 l 173 459 q 160 510 170 482 q 138 553 151 534 q 100 588 122 576 l 0 513 q 24 493 12 506 q 41 469 35 482 q 49 438 49 454 l 49 148 q 71 67 49 102 q 157 0 98 23 l 279 90 q 294 50 283 69 q 318 23 304 35 q 330 14 324 18 q 340 7 335 10 l 344 5 l 347 3 l 349 2 l 349 2 l 450 77 q 425 98 437 83 q 408 125 414 110 q 401 164 401 143 m 355 770 q 194 642 274 642 q 140 656 167 642 q 95 721 111 675 q 188 799 188 798 q 185 779 185 789 q 195 749 185 762 q 242 723 216 724 l 243 723 q 269 731 254 723 q 336 793 286 739 l 355 770 z "},"":{"ha":643,"x_min":14,"x_max":626,"o":"m 454 95 l 452 95 q 199 -96 201 -97 q 94 -5 137 -58 q 16 199 29 74 q 14 238 14 218 q 100 495 14 363 l 111 511 l 123 527 q 146 561 138 548 q 169 628 169 597 l 169 635 q 147 672 168 656 q 109 687 128 687 l 106 687 q 62 667 78 686 q 51 637 51 653 q 55 615 51 627 l 54 615 l 54 616 q 52 618 53 617 q 43 628 47 623 q 34 642 38 635 q 26 659 28 650 q 19 700 19 680 q 32 748 19 726 q 110 795 54 785 q 132 798 121 798 q 180 785 159 798 q 298 699 220 762 l 267 661 q 203 549 236 621 q 155 397 163 462 q 152 338 152 366 q 174 202 152 266 q 297 35 210 101 l 452 150 l 452 664 q 428 730 452 703 q 404 751 416 745 l 504 826 l 505 826 l 506 825 l 507 825 l 511 823 l 515 820 q 527 812 521 817 q 540 801 534 806 q 565 767 556 785 q 576 719 576 745 l 577 97 q 626 9 577 39 l 526 -65 l 525 -64 l 524 -64 q 454 69 454 -12 l 454 95 m 373 957 q 372 958 373 958 q 372 963 372 960 q 367 977 370 970 q 331 997 356 997 l 331 918 q 332 913 331 916 q 336 899 333 905 q 373 879 347 879 l 373 957 m 375 1081 l 401 1058 q 419 1036 413 1046 q 428 1006 428 1021 l 428 866 l 337 798 l 336 798 q 326 802 334 798 q 307 817 316 808 q 279 869 279 843 l 279 1008 l 375 1081 z "},"":{"ha":467,"x_min":0,"x_max":450,"o":"m 401 164 q 408 125 401 143 q 425 98 414 110 q 450 77 437 83 l 349 2 l 349 2 l 347 3 l 344 5 l 340 7 q 330 14 335 10 q 318 23 324 18 q 294 50 304 35 q 279 90 283 69 l 157 0 q 71 67 98 23 q 49 148 49 102 l 49 438 q 41 469 49 454 q 24 493 35 482 q 0 513 12 506 l 100 588 q 138 553 122 576 q 160 510 151 534 q 173 459 170 482 l 173 146 q 212 95 173 117 l 277 143 l 277 426 q 269 465 277 447 q 253 492 263 480 q 228 513 240 507 l 329 588 l 330 588 l 330 587 l 332 587 l 335 585 l 340 582 q 351 574 346 578 q 365 563 359 568 q 390 529 380 547 q 401 481 401 507 q 401 164 401 452 m 244 789 q 243 793 244 791 q 239 808 242 801 q 202 827 228 827 l 202 748 q 203 743 203 746 q 208 730 205 736 q 244 709 218 709 l 244 789 m 247 911 q 273 888 273 888 q 290 866 284 876 q 300 836 300 851 q 299 696 300 696 l 209 629 l 208 629 q 198 633 205 629 q 178 648 188 639 q 150 699 150 673 l 150 839 l 247 911 z "},"":{"ha":643,"x_min":14,"x_max":626,"o":"m 454 95 l 452 95 q 199 -96 201 -97 q 94 -5 137 -58 q 16 199 29 74 q 14 238 14 218 q 100 495 14 363 l 111 511 l 123 527 q 146 561 138 548 q 169 628 169 597 l 169 635 q 147 672 168 656 q 109 687 128 687 l 106 687 q 62 667 78 686 q 51 637 51 653 q 55 615 51 627 l 54 615 l 54 616 q 52 618 53 617 q 43 628 47 623 q 34 642 38 635 q 26 659 28 650 q 19 700 19 680 q 32 748 19 726 q 110 795 54 785 q 132 798 121 798 q 180 785 159 798 q 298 699 220 762 l 267 661 q 203 549 236 621 q 155 397 163 462 q 152 338 152 366 q 174 202 152 266 q 297 35 210 101 l 452 150 l 452 664 q 428 730 452 703 q 404 751 416 745 l 504 826 l 505 826 l 506 825 l 507 825 l 511 823 l 515 820 q 527 812 521 817 q 540 801 534 806 q 565 767 556 785 q 576 719 576 745 l 577 97 q 626 9 577 39 l 526 -65 l 525 -64 l 524 -64 q 454 69 454 -12 l 454 95 m 385 1013 l 286 840 q 272 828 281 831 q 263 827 267 827 q 252 829 258 827 q 239 842 243 833 q 237 852 237 847 q 239 862 237 857 l 306 1049 l 385 1013 m 511 1013 l 412 840 q 398 828 408 831 q 389 827 393 827 q 378 829 384 827 q 365 842 369 833 q 363 852 363 847 q 366 862 363 857 l 432 1049 l 511 1013 z "},"":{"ha":467,"x_min":0,"x_max":450,"o":"m 401 164 q 408 125 401 143 q 425 98 414 110 q 450 77 437 83 l 349 2 l 349 2 l 347 3 l 344 5 l 340 7 q 330 14 335 10 q 318 23 324 18 q 294 50 304 35 q 279 90 283 69 l 157 0 q 71 67 98 23 q 49 148 49 102 l 49 438 q 41 469 49 454 q 24 493 35 482 q 0 513 12 506 l 100 588 q 138 553 122 576 q 160 510 151 534 q 173 459 170 482 l 173 146 q 212 95 173 117 l 277 143 l 277 426 q 269 465 277 447 q 253 492 263 480 q 228 513 240 507 l 329 588 l 330 588 l 330 587 l 332 587 l 335 585 l 340 582 q 351 574 346 578 q 365 563 359 568 q 390 529 380 547 q 401 481 401 507 q 401 164 401 452 m 276 828 l 178 656 q 163 643 173 646 q 155 642 159 642 q 144 644 149 642 q 131 658 134 648 q 129 667 129 663 q 132 677 129 672 l 197 864 l 276 828 m 402 828 l 304 656 q 290 643 299 646 q 281 642 285 642 q 270 644 275 642 q 257 658 260 648 q 255 667 255 663 q 258 677 255 672 l 323 864 l 402 828 z "},"":{"ha":643,"x_min":14,"x_max":626,"o":"m 505 -48 q 454 69 454 0 l 454 95 l 452 95 q 199 -96 201 -97 q 94 -5 137 -58 q 16 199 29 74 q 14 238 14 218 q 100 495 14 363 l 111 511 l 123 527 q 146 561 138 548 q 169 628 169 597 l 169 635 q 147 672 168 656 q 109 687 128 687 l 106 687 q 62 667 78 686 q 51 637 51 653 q 55 615 51 627 l 54 615 l 54 616 q 52 618 53 617 q 43 628 47 623 q 34 642 38 635 q 26 659 28 650 q 19 700 19 680 q 32 748 19 726 q 110 795 54 785 q 132 798 121 798 q 180 785 159 798 q 298 699 220 762 l 267 661 q 203 549 236 621 q 155 397 163 462 q 152 338 152 366 q 174 202 152 266 q 297 35 210 101 l 452 150 l 452 664 q 428 730 452 703 q 404 751 416 745 l 504 826 l 505 826 l 506 825 l 507 825 l 511 823 l 515 820 q 527 812 521 817 q 540 801 534 806 q 565 767 556 785 q 576 719 576 745 l 577 97 q 626 9 577 39 l 526 -65 l 525 -64 q 465 -176 465 -123 q 476 -220 465 -198 q 517 -242 492 -239 q 524 -243 520 -243 q 600 -218 549 -243 l 602 -229 l 556 -260 q 483 -308 501 -300 q 427 -321 454 -321 l 425 -321 q 372 -298 391 -320 q 353 -247 353 -275 q 372 -182 353 -217 q 505 -48 404 -123 z "},"":{"ha":467,"x_min":0,"x_max":450,"o":"m 324 18 q 318 23 321 21 q 294 50 304 35 q 279 90 283 69 l 157 0 q 71 67 98 23 q 49 148 49 102 l 49 438 q 41 469 49 454 q 24 493 35 482 q 0 513 12 506 l 100 588 q 138 553 122 576 q 160 510 151 534 q 173 459 170 482 l 173 146 q 212 95 173 117 l 277 143 l 277 426 q 269 465 277 447 q 253 492 263 480 q 228 513 240 507 l 329 588 l 330 588 l 330 587 l 332 587 l 335 585 l 340 582 q 351 574 346 578 q 365 563 359 568 q 390 529 380 547 q 401 481 401 507 q 401 164 401 452 q 408 125 401 143 q 425 98 414 110 q 450 77 437 83 l 356 7 q 300 -94 300 -46 q 311 -132 300 -113 q 347 -152 325 -149 q 352 -153 349 -153 q 419 -131 374 -153 l 421 -140 l 381 -168 q 317 -210 333 -203 q 268 -221 292 -221 l 265 -221 q 219 -201 236 -220 q 203 -155 203 -180 q 219 -99 203 -130 q 324 18 246 -50 z "}}}
